<svg width="100" height="100" viewBox="0 0 100 100" fill="none" xmlns="http://www.w3.org/2000/svg">
<path fill-rule="evenodd" clip-rule="evenodd" d="M55.9898 28.3977C54.6877 27.7438 53.0766 27.5511 51.2761 27.8786C50.1659 28.0814 48.9823 28.4824 47.755 29.094C46.5766 29.6833 45.4484 30.4219 44.3794 31.2786L48.7157 33.4577C49.7847 32.601 50.9129 31.8624 52.09 31.2742C53.3174 30.6614 54.4997 30.2604 55.6111 30.0576C57.4116 29.7301 59.0228 29.9228 60.3248 30.5768L55.9898 28.3977Z" fill="#F0A72E"/>
<mask id="mask0" mask-type="alpha" maskUnits="userSpaceOnUse" x="3" y="25" width="42" height="47">
<path fill-rule="evenodd" clip-rule="evenodd" d="M3 25H44.9694V71.5717H3V25Z" fill="white"/>
</mask>
<g mask="url(#mask0)">
<path fill-rule="evenodd" clip-rule="evenodd" d="M40.6344 25.7807C39.1302 25.0242 37.2666 24.8025 35.1854 25.1813C33.9 25.4153 32.531 25.8787 31.1105 26.5883C28.7472 27.7692 26.5281 29.4848 24.604 31.5135C21.0636 35.2466 18.5213 40.0391 17.9057 44.5008C16.8432 44.708 15.7047 45.1013 14.5366 45.685C12.4991 46.7021 10.5866 48.1793 8.92907 49.9261C5.37706 53.6659 2.98673 58.639 2.99961 62.9681C3.0112 66.1252 4.29781 68.3477 6.37518 69.3916L10.7102 71.5717C8.63157 70.5268 7.34496 68.3043 7.33466 65.1471C7.32049 60.818 9.71211 55.845 13.2628 52.1052C14.9216 50.3584 16.8329 48.8812 18.8716 47.8641C20.0384 47.2803 21.1782 46.8871 22.2395 46.6799C22.8551 42.2182 25.3987 37.4256 28.9391 33.6925C30.8632 31.6639 33.0809 29.9482 35.4455 28.7674C36.8648 28.0577 38.2338 27.5943 39.5191 27.3604C41.6017 26.9805 43.4639 27.2033 44.9695 27.9597L40.6344 25.7807Z" fill="#F0A72E"/>
</g>
<path fill-rule="evenodd" clip-rule="evenodd" d="M35.445 28.7676C42.1498 25.4188 47.7212 27.5422 48.7155 33.4577C49.7844 32.601 50.9126 31.8624 52.0898 31.2742C58.4803 28.0825 63.6808 30.6458 63.7014 36.9969C63.722 43.3491 58.555 51.0894 52.1645 54.2811L18.9458 70.8712C12.5463 74.0674 7.35477 71.4995 7.33417 65.1473C7.31356 58.7951 12.4703 51.0604 18.8698 47.8643C20.0392 47.2805 21.1777 46.8873 22.239 46.6801C23.1894 39.7931 28.73 32.1208 35.445 28.7676" fill="#FFCA00"/>
<path fill-rule="evenodd" clip-rule="evenodd" d="M89.8474 31.5168C88.5453 30.8629 86.9341 30.6701 85.1337 30.9977C84.0222 31.2004 82.8399 31.6015 81.6113 32.2131C80.4341 32.8013 79.306 33.541 78.237 34.3977L82.572 36.5767C83.641 35.72 84.7692 34.9803 85.9476 34.3932C87.1737 33.7794 88.3573 33.3795 89.4674 33.1767C91.2692 32.8492 92.8791 33.0419 94.1811 33.6958L89.8474 31.5168Z" fill="#D43E3E"/>
<path fill-rule="evenodd" clip-rule="evenodd" d="M74.4856 28.8927C72.9813 28.1363 71.1177 27.9135 69.0365 28.2922C67.7512 28.5262 66.3847 28.9896 64.9668 29.6981C62.6112 30.8746 60.3986 32.5857 58.4783 34.611C54.9353 38.3475 52.3879 43.1489 51.771 47.6151C50.6995 47.8267 49.57 48.2155 48.3928 48.8037C46.358 49.8197 44.448 51.2969 42.7905 53.0426C39.2385 56.7824 36.843 61.7577 36.8572 66.0868C36.8675 69.2428 38.1567 71.4631 40.2327 72.5081L44.5678 74.686C42.4904 73.6421 41.2012 71.4219 41.1909 68.2658C41.1768 63.9367 43.5735 58.9615 47.1243 55.2217C48.7831 53.4749 50.693 51.9988 52.7266 50.9828C53.9063 50.3946 55.0345 50.0058 56.106 49.7941C56.7229 45.3269 59.2704 40.5265 62.8134 36.7901C64.7336 34.7648 66.9462 33.0536 69.3018 31.8761C70.7185 31.1687 72.0862 30.7052 73.3703 30.4713C75.4528 30.0925 77.3151 30.3153 78.8206 31.0717L74.4856 28.8927Z" fill="#D43E3E"/>
<path fill-rule="evenodd" clip-rule="evenodd" d="M69.3013 31.8763C76.0061 28.5286 81.5788 30.6609 82.5718 36.5764C83.6407 35.7197 84.7689 34.9811 85.9473 34.3929C92.3379 31.2012 97.5371 33.7646 97.5577 40.1157C97.5783 46.4679 92.4125 54.2081 86.022 57.3998L52.8021 73.99C46.4128 77.1816 41.2123 74.6183 41.1917 68.2661C41.1711 61.9139 46.3369 54.1736 52.7274 50.9819C53.9058 50.3948 55.0353 50.006 56.1055 49.7932C57.056 42.9074 62.5965 35.2251 69.3013 31.8763" fill="#FA7564"/>
</svg>
