<svg width="682" height="542" fill="none" xmlns="http://www.w3.org/2000/svg"><path fill-rule="evenodd" clip-rule="evenodd" d="M129.421 442.024C113.058 458.564 81.979 455.617 82 481.18c.017 22.671 25.933 33.273 44.38 39.89 60.677 21.758 109.978 29.092 169.053 7.045 40.803-15.22 256.353-138.592 286.208-158.069 41.131-26.841-50.518-52.267-102.814-60.79-76.535-12.48-349.406 132.768-349.406 132.768z" fill="#FA7564"/><path fill-rule="evenodd" clip-rule="evenodd" d="M448.106 202.695c27.263-34.665 16.787-65.677 12.036-103.751-2.875-23.03-5.51-64.185-31.023-79.133-23.753-13.924-63.34-13.224-85.703-3.009-64.856 29.64-171.623 94.832-224.73 137.793C72.372 192.055 79.508 239.724 89 287.924c4.381 22.237 29.347 62.148 61.191 65.529 35.058 3.726 267.193-111.702 297.915-150.758zM454 261.553h48v-60.635h-48v60.635z" fill="#02ECF1"/><path fill-rule="evenodd" clip-rule="evenodd" d="M464.025 207.97l.771-.321c.282-.113.53-.205.756-.284.58.449.486.512.639 1.039l-6.318 2.826v.016l2.726 1.216c1.36.612 2.553 1.154 3.584 1.595-.153.548-.028.591-.639 1.061a9.512 9.512 0 01-.916-.363c-1.803-.804-4.13-1.83-7.003-3.125v-.42c0-.05.095-.115.299-.201-.08.029-.153.05-.225.079v-.092c0-.086.014-.178.123-.242l6.203-2.784zm0 40.308l.771-.321c.282-.113.53-.205.756-.284.58.449.486.512.639 1.039l-6.318 2.826v.016l2.726 1.216c1.36.612 2.553 1.154 3.584 1.595-.153.548-.028.591-.639 1.061a9.769 9.769 0 01-.916-.364c-1.803-.804-4.13-1.829-7.003-3.124v-.421c0-.049.095-.114.299-.2-.08.029-.153.051-.225.079v-.092c0-.086.014-.179.123-.243l6.203-2.783zm8.698-36.022h24.57v-2.533h-24.57v2.533zm5.487 8.863h19.083v-2.532H478.21v2.532zm8.622 7.598h10.461v-2.532h-10.461v2.532zm-14.109 23.848h24.57v-2.533h-24.57v2.533zm5.487-8.864h19.083v-2.532H478.21v2.532zm8.622-7.598h10.461v-2.532h-10.461v2.532zm-17.235 11.033l-2.559 9.023 1.838.145 2.558-9.023-1.837-.145z" fill="#fff"/><path fill-rule="evenodd" clip-rule="evenodd" d="M486.173 268.057l.965 8.026 5.774 14.677-5.28 1.59-4.061-15.308-.531-8.631 3.133-.354z" fill="#250F8A"/><path fill-rule="evenodd" clip-rule="evenodd" d="M498.512 306.868l-2.579 25.543.859 22.454h-8.886l-.478-1.671 6.091-.796-3.249-19.883-2.931-24.725 11.173-.922z" fill="#fff"/><path fill-rule="evenodd" clip-rule="evenodd" d="M501.447 306.582l2.021 21.758 13.604 17.696-1.624 8.35h-4.061l2.436-1.789.407-5.369-12.995-14.315-11.777-25.647 11.989-.684z" fill="#E7EEFA"/><path fill-rule="evenodd" clip-rule="evenodd" d="M477.013 271.479l2.837.92a22.065 22.065 0 005.613 8.646l5.31 5.052 6.537 4.323 4.856 17.64-15.192 1.404-.502-19.437-5.64-6.905a21.896 21.896 0 01-4.569-9.766l.75-1.877z" fill="#250F8A"/><path fill-rule="evenodd" clip-rule="evenodd" d="M480.147 273.367l-3.736 1.298-2.412-12.393.725-1.052 5.423 12.147z" fill="#FFD0D4"/><path fill-rule="evenodd" clip-rule="evenodd" d="M480.991 273.132l-4.701 2.242s-.964-.826-.845-1.298c.121-.472.362-.826.724-1.062.362-.237 3.979-1.535 3.979-1.535l.843 1.653z" fill="#472BC7"/><path fill-rule="evenodd" clip-rule="evenodd" d="M483.04 268.411l-.24-6.61h2.651l.722 6.256-3.133.354zm-6.058-6.738c-.036-.024-1.699-.919-1.734-1.035-.035-.117-1.211-2.895-1.211-2.895l-1.692.234.482 4.564 2.331.55 1.824-1.418zm24.384 20.999c-1.133 2.542-4.802 5.157-7.399 4.047-2.596-1.109-3.134-5.522-2.002-8.064 1.133-2.542 4.155-3.704 6.751-2.594 2.596 1.109 3.783 4.069 2.65 6.611z" fill="#FFD0D4"/><path fill-rule="evenodd" clip-rule="evenodd" d="M493.626 277.104c-.45-.312-.916-.601-1.398-.865-.347-.188-.891-.304-1.045.053-.075.178.004.378.083.553.262.587.551 1.205 1.088 1.573a1.851 1.851 0 001.58.229c.474-.151.937-.504.986-.982a3.325 3.325 0 01-1.294-.561z" fill="#FFD0D4"/><path fill-rule="evenodd" clip-rule="evenodd" d="M494.544 286.898c2.535.55 5.771-1.867 6.822-4.226 1.132-2.543-.053-5.503-2.649-6.611-.157-.068-.319-.1-.478-.15-.297.308-.537.674-.644 1.022-.418 1.358-.101 2.962.776 4.091 0 0-2.937 5.42-3.827 5.874z" fill="#000"/><path fill-rule="evenodd" clip-rule="evenodd" d="M498.713 281.837c.378.193.669.526.85.902.591 1.211-.81 2.4-2.005 2.242-.386-.05-.752-.202-1.089-.394-.29-.167-.574-.382-.704-.688-.126-.295-.085-.64.051-.93.136-.29.362-.532.605-.744.556-.485 1.609-.736 2.292-.388z" fill="#FFD0D4"/><path fill-rule="evenodd" clip-rule="evenodd" d="M184.964 419.65h257.254V154.824H184.964V419.65z" fill="#FFDA4F"/><path fill-rule="evenodd" clip-rule="evenodd" d="M178.367 419.65h257.254V154.824H178.367V419.65z" fill="#fff"/><path fill-rule="evenodd" clip-rule="evenodd" d="M178.367 175.451h257.254v-20.627H178.367v20.627z" fill="#FFCA00"/><path fill-rule="evenodd" clip-rule="evenodd" d="M257.079 357.124a4.797 4.797 0 00-.998-.148c-.072-.002-.143.007-.214.007-.268 0-.534.018-.794.064-.051.008-.099.023-.151.034-.287.06-.564.145-.833.257l-.055.024c-1.222.527-2.208 1.548-2.59 2.908-.667 2.392.388 6.228 2.83 6.883 1.134.305 2.367-.136 3.431-.929l.002-.003a7.498 7.498 0 001.121-1.034 8.7 8.7 0 00.456-.567c.019-.026.04-.053.059-.081.137-.191.264-.386.378-.584.016-.026.027-.051.043-.078.094-.167.178-.336.253-.506l.067-.151a4.384 4.384 0 00.33-2.357 4.524 4.524 0 00-3.335-3.739z" fill="#E5FDFD"/><path fill-rule="evenodd" clip-rule="evenodd" d="M246.396 342.024h20.66v.002c0 .872.55 1.616 1.328 1.925l-8.762 24.417-8.848-.693-5.477-24.462a2.092 2.092 0 001.099-1.189zm-3.587.67l-.177.025 3.186 26.69 2.478 24.956 2.104 25.285h3.687l.974-25.567 2.414-.1 1.552 25.667h4.239l1.666-25.978-.354-23.223 6.726-27.382-.273-.039c.168-.298.273-.635.273-1.002v-.002h15.68v-45.013h-59.536v45.013h14.96c.09.25.226.475.401.67z" fill="#E5FDFD"/><path fill-rule="evenodd" clip-rule="evenodd" d="M353.127 341.003l2.98 17.561h-6.317l2.98-17.561h.357zm28.109 0l-2.98 17.561h-20.914l-2.98-17.561h26.874zm1.593 0l2.98 17.561h-6.318l2.98-17.561h.358zm5.142 30.286H377.33l1.959-11.532h6.723l1.959 11.532zm2.158 12.724h-14.957l1.956-11.531h11.045l1.956 11.531zm2.159 12.723h-19.276l1.957-11.531h15.363l1.956 11.531zm2.161 12.725h-23.597l1.956-11.532h19.684l1.957 11.532zm-24.833 0h-3.634l-1.958-11.532h7.55l-1.958 11.532zm-28.466 0l1.957-11.532h19.683l1.958 11.532H341.15zm4.117-24.256h15.363l1.958 11.531h-19.279l1.958-11.531zm2.16-12.723h11.043l1.957 11.531H345.47l1.957-11.531zm12.075-1.193l-1.958-11.532h20.51l-1.958 11.532h-16.594zm14.232 13.916l-1.957 11.531h-7.955l-1.956-11.531h11.868zm-12.072-1.192l-1.958-11.531h16.189l-1.957 11.531h-12.274zm-12.075-24.256h6.722l1.959 11.532h-10.639l1.958-11.532zm-11.402 59.893h1.235l1.527-8.996h24.003l1.527 8.996h1.235l-1.526-8.996h3.228l-1.528 8.996h1.236l1.527-8.996h24.003l1.527 8.996h1.234l-13.348-78.647h2.569v-3.579h-36.549v3.579h1.45l-13.35 78.647z" fill="#000"/><path fill-rule="evenodd" clip-rule="evenodd" d="M525.814 257.131h48.307V137.096h-48.307v120.035z" fill="#FFCA00"/><path fill-rule="evenodd" clip-rule="evenodd" d="M537.187 143.137l.772-.321c.283-.113.53-.205.756-.284.581.449.486.512.639 1.039l-6.318 2.826v.016l2.726 1.216c1.36.612 2.553 1.154 3.585 1.595-.154.548-.029.591-.64 1.061a10.062 10.062 0 01-.916-.363c-1.803-.805-4.13-1.83-7.002-3.125v-.42c0-.05.095-.115.298-.199-.079.027-.153.048-.224.077v-.092c0-.086.013-.179.123-.243l6.201-2.783zm0 40.308l.772-.321c.283-.113.53-.206.756-.284.581.449.486.512.639 1.039l-6.318 2.826v.014l2.726 1.218c1.36.612 2.553 1.154 3.585 1.595-.154.548-.029.591-.64 1.061a9.769 9.769 0 01-.916-.364c-1.803-.804-4.13-1.829-7.002-3.124v-.421c0-.049.095-.114.298-.2-.079.029-.153.051-.224.079v-.092c0-.086.013-.179.123-.243l6.201-2.783zm8.7-36.022h24.57v-2.533h-24.57v2.533zm5.487 8.863h19.083v-2.532h-19.083v2.532zm8.621 7.598h10.462v-2.532h-10.462v2.532zm-14.108 23.848h24.57v-2.533h-24.57v2.533zm5.487-8.865h19.083v-2.532h-19.083v2.532zm8.621-7.596h10.462v-2.533h-10.462v2.533zm-17.235 11.032l-2.559 9.023 1.839.145 2.558-9.023-1.838-.145zm-5.573 15.607l.772-.32c.283-.114.53-.206.756-.284.581.448.486.511.639 1.039l-6.318 2.826v.015l2.726 1.217c1.36.612 2.553 1.154 3.585 1.595-.154.548-.029.59-.64 1.06a10.073 10.073 0 01-.916-.362c-1.803-.805-4.13-1.83-7.002-3.126v-.421c0-.049.095-.113.298-.199-.079.029-.153.05-.224.079v-.092c0-.086.013-.179.123-.243l6.201-2.784zm0 40.309l.772-.321c.283-.114.53-.207.756-.284.581.448.486.512.639 1.039l-6.318 2.826v.014l2.726 1.218c1.36.612 2.553 1.154 3.585 1.595-.154.548-.029.591-.64 1.061a10.05 10.05 0 01-.916-.364c-1.803-.804-4.13-1.829-7.002-3.126v-.42c0-.049.095-.113.298-.199-.079.029-.153.05-.224.079v-.092c0-.086.013-.179.123-.243l6.201-2.783zm8.7-36.022h24.57v-2.532h-24.57v2.532zm5.487 8.864h19.083v-2.533h-19.083v2.533zm8.621 7.596h10.462v-2.532h-10.462v2.532zm-14.108 23.848h24.57v-2.533h-24.57v2.533zm5.487-8.864h19.083v-2.532h-19.083v2.532zm8.621-7.597h10.462v-2.533h-10.462v2.533zm-17.235 11.032l-2.559 9.023 1.839.146 2.558-9.024-1.838-.145z" fill="#fff"/><path fill-rule="evenodd" clip-rule="evenodd" d="M209.172 353.953h59.537v-45.012h-59.537v45.012z" fill="#02ECF1"/><path fill-rule="evenodd" clip-rule="evenodd" d="M369.405 434.305l-16.176-95.301 1.201-.196 16.176 95.301-1.201.196zm-29.702 0l-16.177-95.301 1.201-.196 16.178 95.301-1.202.196z" fill="#000"/><path fill-rule="evenodd" clip-rule="evenodd" d="M327.573 359.757h29.967v-1.193h-29.967v1.193zm2.123 12.725h29.968v-1.193h-29.968v1.193zm2.122 12.724h29.967v-1.193h-29.967v1.193zm2.121 12.723h29.967v-1.193h-29.967v1.193zm2.121 12.725h29.967v-1.193H336.06v1.193zm2.121 12.724h29.968v-1.193h-29.968v1.193z" fill="#000"/><path fill-rule="evenodd" clip-rule="evenodd" d="M307.671 434.305l-1.201-.196 16.176-95.301 1.202.196-16.177 95.301zm29.702 0l-1.201-.196 16.176-95.301 1.201.196-16.176 95.301z" fill="#525252"/><path fill-rule="evenodd" clip-rule="evenodd" d="M319.534 359.757h29.967v-1.193h-29.967v1.193zm-2.121 12.725h29.967v-1.193h-29.967v1.193zm-2.122 12.724h29.967v-1.193h-29.967v1.193zm-2.121 12.723h29.967v-1.193H313.17v1.193zm-2.122 12.725h29.967v-1.193h-29.967v1.193zm-2.121 12.724h29.967v-1.193h-29.967v1.193z" fill="#525252"/><path fill-rule="evenodd" clip-rule="evenodd" d="M320.824 341.003h36.548v-3.579h-36.548v3.579z" fill="#000"/><path fill-rule="evenodd" clip-rule="evenodd" d="M453.992 481.023l-2.478-24.956-3.186-26.689 2.478-.346 5.664 25.302 8.849.693 9.203-25.649 2.478.347-6.726 27.381.354 23.224-16.636.693z" fill="#FFCA00"/><path fill-rule="evenodd" clip-rule="evenodd" d="M457.141 446.929c-.669 2.391.386 6.229 2.829 6.884 2.442.654 5.348-2.121 6.017-4.513.669-2.392-.769-4.862-3.212-5.517-2.443-.655-4.965.754-5.634 3.146z" fill="#FFD0D4"/><path fill-rule="evenodd" clip-rule="evenodd" d="M460.407 445.548c-.5-.134-1.199-.471-1.466-.93-.026-.043-.035-.085-.051-.127a4.631 4.631 0 013.884-.707c2.444.653 3.881 3.125 3.212 5.517-.477 1.707-2.096 3.604-3.871 4.315.033-.483.152-.961.277-1.429a97.24 97.24 0 011.691-5.625 25.246 25.246 0 01-3.676-1.014z" fill="#000"/><path fill-rule="evenodd" clip-rule="evenodd" d="M463.261 449.205c.33-.236.784-.345 1.161-.186a.752.752 0 01.236.154c.183.177.236.449.213.701-.062.694-.644 1.276-1.324 1.483a1.39 1.39 0 01-.597.061.76.76 0 01-.51-.289c-.427-.598.344-1.585.821-1.924z" fill="#FFD0D4"/><path fill-rule="evenodd" clip-rule="evenodd" d="M470.629 480.33l-2.458 38.278h-2.703l-2.296-37.966-2.416.1-1.475 38.802-2.087-.048-3.202-38.473-.471-4.74 17.048.218.06 3.829z" fill="#fff"/><path fill-rule="evenodd" clip-rule="evenodd" d="M468.172 518.607l5.946.642-.215.903h-8.707l.271-1.545h2.705zm-8.892.937v1.087l-8.168.303v-1.001l6.081-.437 2.087.048z" fill="#250F8A"/><path fill-rule="evenodd" clip-rule="evenodd" d="M452.221 427.992c0 1.149-.95 2.079-2.123 2.079-1.173 0-2.123-.93-2.123-2.079s.95-2.079 2.123-2.079c1.173 0 2.123.93 2.123 2.079zm24.778.693c0 1.149-.95 2.079-2.123 2.079-1.173 0-2.123-.93-2.123-2.079s.95-2.079 2.123-2.079c1.173 0 2.123.93 2.123 2.079z" fill="#FFD0D4"/><path fill-rule="evenodd" clip-rule="evenodd" d="M230.021 406.295l-2.478-24.956-3.186-26.689 2.478-.348 5.664 25.304 8.848.693 9.204-25.649 2.478.347-6.726 27.381.354 23.224-16.636.693z" fill="#2D109F"/><path fill-rule="evenodd" clip-rule="evenodd" d="M228.25 353.263c0 1.149-.95 2.079-2.123 2.079-1.173 0-2.124-.93-2.124-2.079s.951-2.079 2.124-2.079 2.123.93 2.123 2.079zm24.778.693c0 1.149-.95 2.08-2.123 2.08-1.173 0-2.124-.931-2.124-2.08 0-1.148.951-2.079 2.124-2.079s2.123.931 2.123 2.079z" fill="#FFD0D4"/><path fill-rule="evenodd" clip-rule="evenodd" d="M241.009 376.55l.058-.08c.138-.192.265-.388.379-.586.016-.025.027-.051.043-.076a6.28 6.28 0 00.32-.658 4.383 4.383 0 00.33-2.358 4.37 4.37 0 00-.314-1.088 4.512 4.512 0 00-1.369-1.824c-.14-.11-.301-.198-.456-.292-.111-.068-.212-.148-.33-.207a4.702 4.702 0 00-.866-.327h-.003a4.64 4.64 0 00-.995-.148c-.072-.003-.143.008-.216.008-.268 0-.532.016-.792.062-.051.009-.101.024-.151.035a4.538 4.538 0 00-.833.257l-.055.024c-1.222.525-2.21 1.548-2.59 2.908-.667 2.391.388 6.228 2.83 6.883 1.134.304 2.366-.136 3.43-.929l.005-.004c.402-.3.779-.651 1.118-1.033l.039-.046c.147-.168.286-.344.418-.521z" fill="#000"/><path fill-rule="evenodd" clip-rule="evenodd" d="M246.657 405.602l-2.456 38.277h-2.705l-2.296-37.967-2.415.101-1.476 38.802-2.087-.047-3.202-38.473-.47-4.741 17.048.218.059 3.83z" fill="#FFCA00"/><path fill-rule="evenodd" clip-rule="evenodd" d="M244.201 443.879l5.945.641-.214.902h-8.708l.273-1.543h2.704zm-8.893.936v1.087l-8.167.303v-1.001l6.082-.436 2.085.047z" fill="#2D109F"/><path fill-rule="evenodd" clip-rule="evenodd" d="M411.321 428.147h102.332v-59.646H411.321v59.646z" fill="#fff"/><path fill-rule="evenodd" clip-rule="evenodd" d="M462.529 420.322h45.652v-44.285h-45.652v44.285zm-45.414-40.106h39.868v-3.76h-39.868v3.76zm0 9.19h39.868v-3.759h-39.868v3.759zm0 9.191h39.868v-3.76h-39.868v3.76zm0 9.192h39.868v-3.76h-39.868v3.76zm0 9.19h39.868v-3.759h-39.868v3.759z" fill="#250F8A"/><path fill-rule="evenodd" clip-rule="evenodd" d="M337.75 261.49c.454.353.939.704 1.495.839-.003.148-.023.291-.012.441.213 2.766 2.794 6.421 5.618 6.213a3.14 3.14 0 00.596-.106v-.001c.765-.205 1.453-.686 2.036-1.327l.055-.057c.092-.105.181-.215.268-.327.028-.037.058-.073.085-.11a6.64 6.64 0 00.225-.323l.1-.151c.066-.105.128-.212.189-.319.035-.062.071-.124.103-.186a7.716 7.716 0 00.259-.532c.044-.1.086-.202.128-.303.033-.082.063-.165.093-.247a7.72 7.72 0 00.183-.562c.026-.092.053-.182.077-.275a7.69 7.69 0 00.065-.293c.018-.086.037-.17.053-.256.018-.105.032-.209.045-.314.011-.076.023-.154.032-.23.011-.117.016-.232.022-.345.002-.062.008-.126.01-.187.001-.071-.003-.136-.005-.204.377.162.792.256 1.229.256 1.682 0 3.046-1.335 3.046-2.982 0-1.647-1.364-2.982-3.046-2.982-1.361 0-2.5.88-2.89 2.087-.041-.038-.075-.083-.117-.119a5.182 5.182 0 00-3.728-1.201 5.105 5.105 0 00-4.395 3.222 15.525 15.525 0 00-1.257-.094c-.395-.009-.932.138-.898.524.017.191.184.332.336.451z" fill="#E5FDFD"/><path fill-rule="evenodd" clip-rule="evenodd" d="M321.926 259.376l2.486 2.483a99.096 99.096 0 01-2.544-1.871l.058-.612zm67.686 42.072l-16.337.727-11.225-17.924.237-.153-12.714-13.372-2.78-.294-16.955-8.22-6.106-5.438-1.736 1.861 3.53-37.401-50.821-4.6c.196-.451.304-.947.304-1.469 0-1.869-1.398-3.408-3.226-3.695v-75.435h-1.218v75.435c-1.827.287-3.226 1.826-3.226 3.695 0 .279.035.549.095.811l-43.913-3.973-4.859 51.473 102.005 9.231.801-8.469c3.406 3.106 7.811 6.622 10.054 7.577l8.283 3.522 9.537 16.633-.064.04.152.118.094.163.067-.042.307.235 2.677 22.578 3.248 19.881-6.092.796.479 1.673h8.886l-.86-22.457 1.508-14.937 11.057 8.459 18.141-4.072 1.757 4.505 1.421-.597-2.508-6.865z" fill="#E5FDFD"/><path fill-rule="evenodd" clip-rule="evenodd" d="M194.295 263.476l102.005 9.231 4.86-51.473-102.007-9.231-4.858 51.473z" fill="#02ECF1"/><path fill-rule="evenodd" clip-rule="evenodd" d="M299.366 256.774l6.105 5.439 20.125 9.755-8.853 2.205-13.322-8.946-6.183-6.172 2.128-2.281z" fill="#FF7E6E"/><path fill-rule="evenodd" clip-rule="evenodd" d="M325.094 262.019c.212 2.765-1.784 6.758-4.609 6.964-2.824.209-5.407-3.448-5.619-6.213-.212-2.765 1.905-5.176 4.73-5.383 2.824-.208 5.286 1.867 5.498 4.632zm-30.032-6.256c-.023.002-.872-.428-.872-.428l-.821 1.318-4.169-2.29-1.384 1.509 5.88 4.349 1.282-1.575-.668-.89.273-.974.479-1.019z" fill="#FFD0D4"/><path fill-rule="evenodd" clip-rule="evenodd" d="M336.448 289.413l-2.58 25.543.86 22.456h-8.886l-.477-1.674 6.091-.794-3.249-19.883-2.93-24.726 11.171-.922z" fill="#250F8A"/><path fill-rule="evenodd" clip-rule="evenodd" d="M295.058 258.001c2.583 2.364 11.807 8.886 15.201 9.858l7.105 2.036 7.843.831 12.712 13.372-12.761 8.193-9.721-16.954-8.281-3.522c-3.405-1.448-11.799-8.803-14.107-11.65l2.009-2.164z" fill="#FA7564"/><path fill-rule="evenodd" clip-rule="evenodd" d="M315.595 260.639a15.425 15.425 0 00-1.65-.124c-.396-.009-.933.138-.898.525.017.19.183.331.337.451.512.399 1.062.813 1.712.892a1.84 1.84 0 001.507-.521c.346-.35.589-.875.402-1.32-.464.137-.927.16-1.41.097z" fill="#FFD0D4"/><path fill-rule="evenodd" clip-rule="evenodd" d="M123.898 399.563h21.117a1.22 1.22 0 001.117-.715c.193-.435.106-.94-.223-1.289l-20.305-21.471-1.787 1.621 18.409 19.469h-18.328v2.385z" fill="#250F8A"/><path fill-rule="evenodd" clip-rule="evenodd" d="M321.08 268.877c2.504-.674 4.211-4.292 4.015-6.858-.212-2.765-2.675-4.84-5.498-4.632-.171.012-.329.058-.494.086-.114.409-.153.842-.082 1.198.279 1.391 1.325 2.665 2.638 3.262 0 0-.009 6.135-.579 6.944z" fill="#FA7564"/><path fill-rule="evenodd" clip-rule="evenodd" d="M322.35 262.495c.426-.002.842.159 1.183.408 1.1.801.429 2.493-.703 2.9-.365.133-.761.166-1.151.149-.337-.014-.691-.074-.951-.284-.251-.204-.38-.527-.399-.847-.017-.318.067-.635.181-.935.26-.682 1.071-1.387 1.84-1.391z" fill="#FFD0D4"/><path fill-rule="evenodd" clip-rule="evenodd" d="M365.245 301.448l-16.335.727-11.385-18.177-12.614 8.012 21.524 16.467 18.139-4.071 1.758 4.504 1.422-.596-2.509-6.866z" fill="#472BC7"/><path fill-rule="evenodd" clip-rule="evenodd" d="M329.378 259.602c0 1.647-1.363 2.982-3.046 2.982-1.682 0-3.045-1.335-3.045-2.982 0-1.646 1.363-2.982 3.045-2.982 1.683 0 3.046 1.336 3.046 2.982z" fill="#FA7564"/><path fill-rule="evenodd" clip-rule="evenodd" d="M125.247 406.833h18.963V155.522h-18.963v251.311zm-2.437 2.386h23.837V153.136H122.81v256.083z" fill="#250F8A"/><path fill-rule="evenodd" clip-rule="evenodd" d="M119.547 417.968h30.362v-21.304h-30.362v21.304z" fill="#472BC7"/><path fill-rule="evenodd" clip-rule="evenodd" d="M123.898 311.395h21.117c.483 0 .922-.281 1.117-.716.193-.434.106-.94-.223-1.288l-20.305-21.472-1.787 1.62 18.409 19.47h-18.328v2.386z" fill="#250F8A"/><path fill-rule="evenodd" clip-rule="evenodd" d="M123.898 333.436h21.117c.483 0 .922-.28 1.117-.715.193-.435.106-.94-.223-1.289l-20.305-21.471-1.787 1.621 18.409 19.469h-18.328v2.385z" fill="#250F8A"/><path fill-rule="evenodd" clip-rule="evenodd" d="M123.898 355.479h21.117c.483 0 .922-.28 1.117-.716.193-.434.106-.94-.223-1.288l-20.305-21.472-1.787 1.622 18.409 19.468h-18.328v2.386z" fill="#250F8A"/><path fill-rule="evenodd" clip-rule="evenodd" d="M123.898 377.521h21.117c.483 0 .922-.28 1.117-.715.193-.435.106-.94-.223-1.289l-20.305-21.471-1.787 1.621 18.409 19.469h-18.328v2.385zm0-87.64h21.117c.483 0 .922-.28 1.117-.715a1.175 1.175 0 00-.223-1.288l-20.305-21.472-1.787 1.62 18.409 19.469h-18.328v2.386z" fill="#250F8A"/><path fill-rule="evenodd" clip-rule="evenodd" d="M123.898 268.368h21.117c.483 0 .922-.281 1.117-.716.193-.434.106-.94-.223-1.287l-20.305-21.473-1.787 1.62 18.409 19.47h-18.328v2.386z" fill="#250F8A"/><path fill-rule="evenodd" clip-rule="evenodd" d="M123.898 246.855h21.117c.483 0 .922-.28 1.117-.716.193-.434.106-.94-.223-1.287l-20.305-21.472-1.787 1.62 18.409 19.469h-18.328v2.386z" fill="#250F8A"/><path fill-rule="evenodd" clip-rule="evenodd" d="M123.898 225.341h21.117c.483 0 .922-.28 1.117-.715.193-.435.106-.94-.223-1.287l-20.305-21.473-1.787 1.62 18.409 19.47h-18.328v2.385z" fill="#250F8A"/><path fill-rule="evenodd" clip-rule="evenodd" d="M123.898 203.828h21.117c.483 0 .922-.28 1.117-.715.193-.435.106-.94-.223-1.288l-20.305-21.472-1.787 1.62 18.409 19.469h-18.328v2.386z" fill="#250F8A"/><path fill-rule="evenodd" clip-rule="evenodd" d="M123.898 182.315h21.117c.483 0 .922-.28 1.117-.716.193-.434.106-.94-.223-1.287l-20.305-21.472-1.787 1.62 18.409 19.469h-18.328v2.386z" fill="#250F8A"/><path fill-rule="evenodd" clip-rule="evenodd" d="M123.898 160.802h21.117c.483 0 .922-.28 1.117-.716.193-.434.106-.94-.223-1.287l-20.305-21.473-1.787 1.62 18.409 19.47h-18.328v2.386z" fill="#0089C7"/><path fill-rule="evenodd" clip-rule="evenodd" d="M122.851 161.23h38.642v-31.9h-38.642v31.9zM64.78 147.653h38.643V129.33H64.781v18.323z" fill="#472BC7"/><path fill-rule="evenodd" clip-rule="evenodd" d="M65.422 131.661h190.861c.673 0 1.219-.535 1.219-1.193 0-.659-.546-1.193-1.219-1.193H65.422c-.673 0-1.218.534-1.218 1.193 0 .658.545 1.193 1.218 1.193z" fill="#250F8A"/><path fill-rule="evenodd" clip-rule="evenodd" d="M246.198 213.575h1.219v-77.54h-1.219v77.54z" fill="#472BC7"/><path fill-rule="evenodd" clip-rule="evenodd" d="M109.191 423.534h51.075v-9.374h-51.075v9.374zm32.839-292.186a.617.617 0 00.431-.174l10.176-9.965h93.302l9.567 9.369a.62.62 0 00.862 0 .59.59 0 000-.845l-9.925-9.717h-94.31l-10.535 10.314a.59.59 0 000 .844.62.62 0 00.432.174zm-77.421 0c.219 0 .43-.117.54-.319l10.184-19.051h24.699l9.577 18.448c.152.292.52.408.819.261a.592.592 0 00.268-.802l-9.917-19.1H74.596l-10.526 19.69a.589.589 0 00.257.805c.09.047.187.068.282.068z" fill="#250F8A"/><path fill-rule="evenodd" clip-rule="evenodd" d="M242.341 136.035c0 2.416 2 4.375 4.467 4.375 2.466 0 4.466-1.959 4.466-4.375s-2-4.374-4.466-4.374c-2.467 0-4.467 1.958-4.467 4.374z" fill="#472BC7"/><path fill-rule="evenodd" clip-rule="evenodd" d="M220.396 121.2a.609.609 0 00.583-.422.595.595 0 00-.405-.745l-90.191-26.929a.63.63 0 00-.416.022l-42.746 17.666a.591.591 0 00-.325.781.613.613 0 00.797.317l42.545-17.58 89.981 26.864a.607.607 0 00.177.026z" fill="#250F8A"/><path fill-rule="evenodd" clip-rule="evenodd" d="M144.394 131.428c.144 0 .29-.025.433-.079.63-.234.945-.922.706-1.539l-14.202-36.591a1.213 1.213 0 00-1.238-.765 1.209 1.209 0 00-1.095.953l-7.341 35.688a1.194 1.194 0 00.954 1.405c.657.126 1.302-.289 1.435-.934l6.508-31.636 12.701 32.729c.185.476.648.769 1.139.769z" fill="#250F8A"/><path fill-rule="evenodd" clip-rule="evenodd" d="M127.738 93.642c0 1.328 1.099 2.404 2.454 2.404 1.356 0 2.455-1.076 2.455-2.404 0-1.327-1.099-2.403-2.455-2.403-1.355 0-2.454 1.076-2.454 2.403z" fill="#472BC7"/><path fill-rule="evenodd" clip-rule="evenodd" d="M233.238 131.462a.62.62 0 00.383-.132l11.962-9.469v8.853c0 .329.273.596.609.596a.602.602 0 00.609-.596v-10.102a.596.596 0 00-.346-.538.618.618 0 00-.646.074l-12.955 10.253a.588.588 0 00-.09.839c.12.147.296.222.474.222z" fill="#250F8A"/><path fill-rule="evenodd" clip-rule="evenodd" d="M221.67 131.462a.62.62 0 00.383-.132l11.963-9.469v8.853c0 .329.272.596.609.596a.603.603 0 00.609-.596v-10.102a.595.595 0 00-.347-.538.618.618 0 00-.646.074l-12.955 10.253a.588.588 0 00-.09.839c.12.147.296.222.474.222z" fill="#250F8A"/><path fill-rule="evenodd" clip-rule="evenodd" d="M210.102 131.462a.615.615 0 00.382-.132l11.964-9.469v8.853c0 .329.271.596.609.596a.603.603 0 00.609-.596v-10.102a.595.595 0 00-.347-.538.618.618 0 00-.646.074l-12.955 10.253a.588.588 0 00-.09.839.607.607 0 00.474.222z" fill="#250F8A"/><path fill-rule="evenodd" clip-rule="evenodd" d="M198.534 131.462c.134 0 .27-.043.383-.132l11.962-9.469v8.853c0 .329.273.596.609.596a.602.602 0 00.609-.596v-10.102a.596.596 0 00-.346-.538.616.616 0 00-.645.074l-12.955 10.253a.588.588 0 00-.091.839c.12.147.296.222.474.222z" fill="#250F8A"/><path fill-rule="evenodd" clip-rule="evenodd" d="M186.966 131.462a.62.62 0 00.383-.132l11.963-9.469v8.853c0 .329.272.596.609.596a.603.603 0 00.609-.596v-10.102a.595.595 0 00-.347-.538.618.618 0 00-.646.074l-12.955 10.253a.588.588 0 00-.09.839c.12.147.296.222.474.222z" fill="#250F8A"/><path fill-rule="evenodd" clip-rule="evenodd" d="M175.398 131.462a.62.62 0 00.383-.132l11.963-9.469v8.853c0 .329.272.596.609.596a.603.603 0 00.609-.596v-10.102a.595.595 0 00-.347-.538.618.618 0 00-.646.074l-12.955 10.253a.588.588 0 00-.09.839c.12.147.296.222.474.222z" fill="#250F8A"/><path fill-rule="evenodd" clip-rule="evenodd" d="M163.831 131.462a.615.615 0 00.382-.132l11.963-9.469v8.853c0 .329.272.596.61.596a.603.603 0 00.609-.596v-10.102a.596.596 0 00-.348-.538.617.617 0 00-.645.074l-12.955 10.253a.588.588 0 00-.09.839.607.607 0 00.474.222z" fill="#250F8A"/><path fill-rule="evenodd" clip-rule="evenodd" d="M152.262 131.462c.134 0 .27-.043.383-.132l11.963-9.469v8.853c0 .329.272.596.609.596a.602.602 0 00.609-.596v-10.102a.595.595 0 00-.347-.538.616.616 0 00-.645.074l-12.955 10.253a.588.588 0 00-.091.839c.12.147.296.222.474.222zm-68.387 0a.611.611 0 00.466-.211l15.536-17.955v17.418c0 .329.273.597.609.597.338 0 .61-.268.61-.597V111.67c0-.25-.16-.474-.399-.56a.617.617 0 00-.675.174l-16.61 19.196a.587.587 0 00.07.84.61.61 0 00.393.142z" fill="#250F8A"/><path fill-rule="evenodd" clip-rule="evenodd" d="M71.926 131.462a.612.612 0 00.508-.267l11.84-17.541v17.06c0 .329.27.597.608.597.337 0 .61-.268.61-.597V111.67a.598.598 0 00-.434-.571.617.617 0 00-.684.242l-12.956 19.195a.59.59 0 00.173.827c.104.067.22.099.335.099z" fill="#250F8A"/><path fill-rule="evenodd" clip-rule="evenodd" d="M242.972 215.166c0 2.074 1.718 3.755 3.835 3.755 2.118 0 3.836-1.681 3.836-3.755 0-2.075-1.718-3.755-3.836-3.755-2.117 0-3.835 1.68-3.835 3.755z" fill="#472BC7"/><path fill-rule="evenodd" clip-rule="evenodd" d="M559.474 310.486l-.978-13.225 1.51-9.734 5.13-28.685-2.478-.347-5.662 25.302-8.85.693-9.204-25.648-2.478.346 6.727 27.382 2.359 10.467-.276 12.756 14.2.693z" fill="#fff"/><path fill-rule="evenodd" clip-rule="evenodd" d="M547.101 277.196c0 2.48 2.052 5.909 4.585 5.909s4.585-3.429 4.585-5.909-2.052-4.49-4.585-4.49-4.585 2.01-4.585 4.49z" fill="#FFD0D4"/><path fill-rule="evenodd" clip-rule="evenodd" d="M553.617 277.809c.256-.314.663-.535 1.07-.48a.8.8 0 01.269.086c.224.125.349.375.396.623.126.685-.278 1.398-.879 1.772-.17.107-.358.19-.559.214a.767.767 0 01-.57-.147c-.573-.465-.095-1.617.273-2.068z" fill="#FFD0D4"/><path fill-rule="evenodd" clip-rule="evenodd" d="M553.613 277.559c.104.049.224.096.33.054.108-.041.164-.153.234-.242.276-.352.88-.352 1.2-.04.322.313.354.846.132 1.232-.223.386-.658.627-1.106.691a9.645 9.645 0 00-.358 3.174l2.188.157c.142.011.298.017.41-.068.105-.081.143-.218.171-.346a16.97 16.97 0 00.405-3.731c-.002-1.222-.151-2.488-.794-3.534-.771-1.251-3.933-3.311-5.476-2.157-1.698 1.273 1.487 4.257 2.664 4.81z" fill="#000"/><path fill-rule="evenodd" clip-rule="evenodd" d="M549.745 275.73c-.693 1.027-1.692 1.908-2.909 2.22a4.564 4.564 0 01.804-3.908c.479-.616 2.209-2.119 3.13-1.766.953.366-.555 2.758-1.025 3.454z" fill="#000"/><path fill-rule="evenodd" clip-rule="evenodd" d="M558.956 301.105l-13.537-.62-10.415 45.676-4.832-2.881 5.882 6.995 13.868-37.648-.211 17.075 9.402 12.199.601 4.403.249 1.872 1.676-.195.304-6.71-7.277-11.589 5.135-19.184-.845-9.393z" fill="#250F8A"/><path fill-rule="evenodd" clip-rule="evenodd" d="M559.812 271.217l2.931 1.007 2.394-13.382-2.478-.348-2.847 12.723zm-17.069-1.785l-3.436 1.328-2.842-11.572 2.478-.347 3.8 10.591zm11.484 14.582l-2.541 4.418-1.279-4.119 3.82-.299z" fill="#FFD0D4"/><path fill-rule="evenodd" clip-rule="evenodd" d="M535.356 257.455c0 1.149.951 2.079 2.125 2.079 1.173 0 2.123-.93 2.123-2.079s-.95-2.079-2.123-2.079c-1.174 0-2.125.93-2.125 2.079zm26.663.389c0 1.148.95 2.079 2.123 2.079 1.173 0 2.124-.931 2.124-2.079 0-1.149-.951-2.08-2.124-2.08s-2.123.931-2.123 2.08z" fill="#FFD0D4"/><path fill-rule="evenodd" clip-rule="evenodd" d="M406.002 171.579h-64.003c-2.2 0-3.999-1.788-3.999-3.973v-2.812c0-2.185 1.799-3.973 3.999-3.973h64.003c2.2 0 3.998 1.788 3.998 3.973v2.812c0 2.185-1.798 3.973-3.998 3.973z" fill="#fff"/><path fill-rule="evenodd" clip-rule="evenodd" d="M81.382 477.276l-.049 3.579 146.179 1.904 31.667-15.69.048-3.579-177.845 13.786z" fill="#FFCA00"/><path fill-rule="evenodd" clip-rule="evenodd" d="M227.512 482.759l-146.18-1.904L113 465.167l146.18 1.903-31.668 15.689z" fill="#FFCA00"/><path fill-rule="evenodd" clip-rule="evenodd" d="M227.56 479.179l-146.178-1.903 31.667-15.689 146.179 1.904-31.668 15.688z" fill="#fff"/><path fill-rule="evenodd" clip-rule="evenodd" d="M193.607 465.394l-80.321-1.047 2.395-1.187 80.32 1.047-2.394 1.187zm-5.986 2.964l-80.322-1.045 2.395-1.187 80.322 1.046-2.395 1.186zm-5.747 2.847l-80.322-1.045 2.395-1.187 80.322 1.047-2.395 1.185zm-5.508 2.73l-80.32-1.046 2.394-1.187 80.322 1.046-2.396 1.187zm51.086 2.977l-51.95-.675 24.183-11.983 51.952.677-24.185 11.981z" fill="#FA7564"/><path fill-rule="evenodd" clip-rule="evenodd" d="M106.23 512.235l-.049 3.579 146.178 1.904 31.667-15.689.049-3.579-177.845 13.785z" fill="#2D109F"/><path fill-rule="evenodd" clip-rule="evenodd" d="M252.359 517.718l-146.178-1.904 31.666-15.689 146.18 1.904-31.668 15.689z" fill="#2D109F"/><path fill-rule="evenodd" clip-rule="evenodd" d="M252.408 514.138l-146.178-1.904 31.666-15.688 146.18 1.904-31.668 15.688z" fill="#fff"/><path fill-rule="evenodd" clip-rule="evenodd" d="M218.455 500.352l-80.322-1.045 2.394-1.187 80.322 1.046-2.394 1.186zm-5.987 2.965l-80.321-1.045 2.395-1.187 80.32 1.047-2.394 1.185zm-5.747 2.848L126.4 505.12l2.395-1.187 80.321 1.046-2.395 1.186zm-5.507 2.729l-80.321-1.046 2.395-1.187 80.32 1.046-2.394 1.187zm51.086 2.977l-51.952-.675 24.185-11.983 51.952.677-24.185 11.981z" fill="#FA7564"/><path fill-rule="evenodd" clip-rule="evenodd" d="M335.877 200.155h91.37v-9.543h-91.37v9.543zm0 48.448h91.37v-40.097h-91.37v40.097z" fill="#E5FDFD"/><path fill-rule="evenodd" clip-rule="evenodd" d="M315.415 459.588l4.204 6.441 4.089 12.344 12.384 19.483-1.893.506-14.75-16.151-7.2-13.632 3.166-8.991z" fill="#E7F8FC"/><path fill-rule="evenodd" clip-rule="evenodd" d="M289.928 468.287l-15.747 25.704 2.046.715 19.014-23.772-5.313-2.647z" fill="#2D109F"/><path fill-rule="evenodd" clip-rule="evenodd" d="M283.126 462.914c2.753.454 6.192 3.326 5.74 6.092-.453 2.768-4.626 4.382-7.379 3.927-2.753-.455-4.618-3.067-4.165-5.833.452-2.767 3.051-4.641 5.804-4.186z" fill="#FFD0D4"/><path fill-rule="evenodd" clip-rule="evenodd" d="M279.572 471.725c-.195.509-.364 1.03-.504 1.557-.099.378-.08.931.305.989.191.029.367-.098.519-.216.51-.398 1.042-.829 1.27-1.435a1.815 1.815 0 00-.159-1.574c-.262-.416-.719-.775-1.198-.702.028.48-.059.93-.233 1.381z" fill="#FFD0D4"/><path fill-rule="evenodd" clip-rule="evenodd" d="M288.899 468.408c-.078-2.569-3.219-5.073-5.773-5.495-2.753-.454-5.352 1.42-5.804 4.186-.027.168-.02.329-.031.496.373.207.787.347 1.153.364 1.426.063 2.913-.64 3.801-1.761 0 0 5.996 1.469 6.654 2.21z" fill="#000"/><path fill-rule="evenodd" clip-rule="evenodd" d="M282.955 465.666c.096-.41.35-.772.673-1.04 1.038-.867 2.537.181 2.673 1.367.044.383-.015.773-.122 1.143-.093.32-.232.646-.499.847-.257.194-.603.241-.919.182-.317-.059-.607-.215-.874-.396-.607-.413-1.107-1.361-.932-2.103z" fill="#FFD0D4"/><path fill-rule="evenodd" clip-rule="evenodd" d="M288.354 481.901l-9.663 16.868 2.204.17 12.376-12.607 1.695-16.187s0-4.942-2.204-4.601c-2.204.341-3.221 3.067-3.221 3.067l-1.187 13.29z" fill="#1E0880"/><path fill-rule="evenodd" clip-rule="evenodd" d="M288.622 465.703c9.982-4.965 21.346-6.511 21.346-6.511l5.44 10.689-24.511 4.012-2.275-8.19z" fill="#1E0880"/><path fill-rule="evenodd" clip-rule="evenodd" d="M309.968 459.191l1.523-.053c4.109-.142 7.515 3.171 7.509 7.304l-8.101 14.728 1.476 21.178h-2.204l-4.809-19.997 4.606-23.16z" fill="#fff"/><path fill-rule="evenodd" clip-rule="evenodd" d="M276.862 496.537c0 1.437-1.106 2.602-2.472 2.602-1.364 0-2.472-1.165-2.472-2.602 0-1.436 1.108-2.603 2.472-2.603 1.366 0 2.472 1.167 2.472 2.603zm5.619 2.606c0 1.436-1.106 2.602-2.472 2.602-1.364 0-2.472-1.166-2.472-2.602 0-1.438 1.108-2.603 2.472-2.603 1.366 0 2.472 1.165 2.472 2.603z" fill="#FFD0D4"/><path fill-rule="evenodd" clip-rule="evenodd" d="M312.376 502.348l.405 2.103-10.591.236s.588-1.537.942-1.418c.353.117 7.039-.921 7.039-.921h2.205zm22.638-3.843l1.04 2.354-9.559.239.235-1.182 6.419-.9 1.865-.511z" fill="#250F8A"/><rect opacity=".5" width="119.345" height="14.753" rx="7.376" transform="matrix(.87078 -.49167 .50837 .86114 514 118.768)" fill="url(#paint0_linear)"/><rect opacity=".5" width="119.345" height="14.753" rx="7.376" transform="matrix(.87078 -.49167 .50837 .86114 570 401.404)" fill="url(#paint1_linear)"/><rect opacity=".5" width="119.345" height="14.753" rx="7.376" transform="matrix(.87078 -.49167 .50837 .86114 364 59.11)" fill="url(#paint2_linear)"/><rect opacity=".3" width="99.454" height="20.022" rx="10.011" transform="matrix(.87078 -.49167 .50837 .86114 24 272.311)" fill="url(#paint3_linear)"/><rect opacity=".5" width="99.454" height="20.022" rx="10.011" transform="matrix(.87078 -.49167 .50837 .86114 0 479.643)" fill="url(#paint4_linear)"/><defs><linearGradient id="paint0_linear" x1="119.345" y1="0" x2="0" y2="0" gradientUnits="userSpaceOnUse"><stop stop-color="#fff" stop-opacity=".01"/><stop offset="1" stop-color="#FFCA00"/><stop offset="1" stop-color="#fff"/></linearGradient><linearGradient id="paint1_linear" x1="119.345" y1="0" x2="0" y2="0" gradientUnits="userSpaceOnUse"><stop stop-color="#fff" stop-opacity=".01"/><stop offset="1" stop-color="#FA7564"/><stop offset="1" stop-color="#fff"/></linearGradient><linearGradient id="paint2_linear" x1="119.345" y1="0" x2="0" y2="0" gradientUnits="userSpaceOnUse"><stop stop-color="#fff" stop-opacity=".01"/><stop offset="1" stop-color="#fff"/><stop offset="1" stop-color="#fff"/></linearGradient><linearGradient id="paint3_linear" x1="99.454" y1="0" x2="0" y2="0" gradientUnits="userSpaceOnUse"><stop stop-color="#fff" stop-opacity=".01"/><stop offset="1" stop-color="#06CCE2"/><stop offset="1" stop-color="#fff"/></linearGradient><linearGradient id="paint4_linear" x1="99.454" y1="0" x2="0" y2="0" gradientUnits="userSpaceOnUse"><stop stop-color="#fff" stop-opacity=".01"/><stop offset="1" stop-color="#FA7564"/><stop offset="1" stop-color="#fff"/></linearGradient></defs></svg>