<svg width="649" height="517" fill="none" xmlns="http://www.w3.org/2000/svg"><mask id="a" maskUnits="userSpaceOnUse" x="108" y="252" width="541" height="264"><path fill-rule="evenodd" clip-rule="evenodd" d="M108.423 252.021H648.8v263.307H108.423V252.021z" fill="#fff"/></mask><g mask="url(#a)"><path fill-rule="evenodd" clip-rule="evenodd" d="M164.836 360.475c-19.239 19.001-55.249 47.294-56.388 77.641-1.009 26.912 27.794 40.497 48.347 49.073 67.579 28.184 122.961 38.815 190.73 14.942 46.796-16.491 248.297-124.29 282.92-146.252 47.7-30.25-6.018-87.86-64.733-100.018-85.926-17.784-185.434 30.726-267.59 53.042l-133.286 51.572z" fill="#FA7564"/></g><mask id="b" maskUnits="userSpaceOnUse" x="114" y="0" width="334" height="307"><path fill-rule="evenodd" clip-rule="evenodd" d="M114.001.586h333.715V306.58H114.001V.586z" fill="#fff"/></mask><g mask="url(#b)"><path fill-rule="evenodd" clip-rule="evenodd" d="M149.572 106.146c-28.73 30.076-27.279 62.019-31.82 100.064-2.746 23.01-9.598 63.771 7.028 82.126 15.487 17.087 46.458 22.117 66.074 15.317 56.913-19.712 154.144-68.255 204.784-102.74 44.161-30.065 48.922-77.871 51.958-126.537 1.401-22.45-9.405-65.21-33.462-73.13-26.491-8.71-232.193 71.021-264.562 104.9z" fill="#02ECF1"/></g><path fill-rule="evenodd" clip-rule="evenodd" d="M182.55 262.359c2.485.687 4.383.933 5.476 1.674h.008c.652.445 1.018 1.067 1.033 2.064.084 3.868.084 7.888.072 11.673 0 1.374-.003 2.715-.003 4.009h-.008c-1.086 1.316-3.506-.285-3.914-1.568.023-.695.034-2.329.038-4.179.011-1.757.015-3.702.011-5.231.004-.875.004-1.613.004-2.097.503-2.86-.785-3.554-1.986-3.554-.792.076-1.353.427-1.707.915a21.37 21.37 0 00.877-3.72l.099.014z" fill="#603B17"/><path fill-rule="evenodd" clip-rule="evenodd" d="M185.263 270.801c-1.407.455-2.512.043-3.228-.727a3.557 3.557 0 01-.919-2.831c.168-.368.317-.759.458-1.178.354-.488.914-.839 1.707-.911 1.201 0 2.489.69 1.986 3.55 0 .484 0 1.222-.004 2.097z" fill="#FFD6BB"/><path fill-rule="evenodd" clip-rule="evenodd" d="M176.124 373.854c6.833 4.276 17.859 10.502 22.151 11.452v-.018c4.28-.34 9.139-3.477 9.787-5.751.157.249.084 2.816.073 3.112-.046.871-.835 1.927-2.047 2.921l-3.849 2.245c-1.281.521-2.653.889-3.964.991v.025c-3.377-.745-10.919-4.765-17.315-8.528-.373-1.153-.804-2.299-2.062-3.019-.834-.433-2.206-.654-2.69.145a175.777 175.777 0 01-2.954-1.894c-1.048-.701-1.864-1.273-2.352-1.67-.038-1.154-.122-2.173-.041-3.55.019.018.049.039.072.061.884.698 2.775 1.967 5.191 3.478z" fill="#000"/><path fill-rule="evenodd" clip-rule="evenodd" d="M157.294 161.597c.286.199.564.38.85.535.58-1.03.595-1.988.53-2.964 1.086 1.684 1.909 3.495 2.336 4.949 1.765 5.444 2.645 10.877 3.087 16.531.035.438.073.886.1 1.327-.942-5.473-3.229-10.158-5.927-14.93a10.84 10.84 0 01-.095-.459c-.301-1.479-.481-3.409-.881-4.989z" fill="#CBE6F3"/><path fill-rule="evenodd" clip-rule="evenodd" d="M118.171 186.076c4.856 7.574 7.855 15.44 8.816 25.53-.983.708-1.974 1.399-2.958 2.075-2.199-9.15-2.873-17.913-5.808-27.203a24.075 24.075 0 00-.206-.64c.05.076.103.152.156.238z" fill="#0F024C"/><path fill-rule="evenodd" clip-rule="evenodd" d="M151.416 158.96c-2.748 2.979-16.122 3.905-19.971-1.974-.038-.48-.076-.958-.118-1.435.4-1.955 1.132-4.634 1.818-6.868.007-.033.023-.073.038-.112.042-.149.091-.297.133-.445.324-1.019.633-1.923.877-2.574.023-.004.045-.007.061-.011.08 1.378.373 3.221 1.581 5.069.065.101.13.198.199.292 1.193 1.031 2.614 2.072 4.089 3.041 3.872 2.548 8.099 4.634 9.296 4.898.194.043.442.069.732.094.278.025.59.036.933.029.107 0 .218 0 .332-.004z" fill="#FFD6BB"/><path fill-rule="evenodd" clip-rule="evenodd" d="M134.28 273.723a6.884 6.884 0 01-1.654.192c-1.044-1.999-1.814-4.226-2.382-6.594-2.237-9.229-1.437-20.584-2.092-28.946a214.865 214.865 0 01-.321-4.283c9.483-6.251 21.103-12.563 30.952-19.344-1.574 18.078.43 36.754.682 45.795l.088.112c-2.261 1.648-4.559 3.25-6.895 4.728-.629.405-1.265.799-1.902 1.183-2.386 1.446-4.802 2.761-7.268 3.9-.606.282-1.212.553-1.822.803-.297.13-.583.253-.88.368-2.142.857-4.311 1.569-6.506 2.086z" fill="#19066F"/><path fill-rule="evenodd" clip-rule="evenodd" d="M164.154 191.319a6.812 6.812 0 012.622.607c.835.387 1.559.94 2.005 1.638-.575 1.11-1.776 1.847-3.102 2.165a6.625 6.625 0 01-1.948.177 5.546 5.546 0 01-1.296-.238.29.29 0 00-.064-.058 21.69 21.69 0 00-1.578-1.587c-.065-1.186.522-1.956 1.406-2.353.107-.051.21-.094.32-.127a4.63 4.63 0 011.635-.224z" fill="#E9DED2"/><path fill-rule="evenodd" clip-rule="evenodd" d="M173.561 202.972c-.255 1.005.256 1.71 1.727.922a.984.984 0 00.068-.043c-.007.069-.011.13-.015.202-1.048 9.84-1.909 19.742-2.706 29.571.858 4.848 3.015 9.945 4.444 13.47a362.783 362.783 0 00-3.278 2.527 2579.92 2579.92 0 001.609 8.64c.358 1.916.72 3.872 1.09 5.867.392 2.093.792 4.222 1.189 6.377.137.752.278 1.493.415 2.252.675 3.633 1.365 7.335 2.054 11.077 3.328 17.97 6.743 36.718 9.353 51.951 2.108 12.284 3.69 22.28 4.277 27.753l-.698.405-6.525-29.716-11.597-52.855-6.118-27.847c-3.014 2.382-6.12 4.808-9.299 7.129l-.088-.108c-.247-9.045-2.256-27.721-.678-45.799 2.748-1.891 5.359-3.818 7.748-5.795.503-.756.759-1.627.82-2.585l.049.004c.587-1.544 1.163-3.203 1.231-4.823a74.383 74.383 0 003.853-.492c-.895 1.157.08 1.685 1.075 1.916zm-7.918-50.165c2.874-2.01 7.714-4.692 9.829-7.541 2.881 6.565 4.684 14.663 4.898 22.75.179 6.738-.744 13.484-3.049 19.347a33.786 33.786 0 01-1.746 3.778c-1.963-1.132-3.815-1.88-4.779-1.811-.038.003-.077.003-.115.007-.991.112-2.164.206-3.35.369.183-.763.339-1.45.461-2.05 1.216-6.174 1.674-9.934 2.775-17.775.419-3.008-.423-7.429-.812-7.429-.636 0-5.656-1.782-5.877-2.408-.331-.835.221-1.569.439-2.198.331-1.041.895-.6.007-1.652-.209-.198-.895-.668-1.833-1.225a134.872 134.872 0 013.152-2.162z" fill="#19066F"/><path fill-rule="evenodd" clip-rule="evenodd" d="M175.577 191.139a35.259 35.259 0 001.745-3.777c-.198 1.5-.396 2.993-.583 4.489a19.713 19.713 0 00-1.162-.712z" fill="#171043"/><path fill-rule="evenodd" clip-rule="evenodd" d="M175.435 203.156a.893.893 0 00-.148.738c-1.468.788-1.982.086-1.727-.922.213-.835.972-1.876 2.161-2.419.004-.032.004-.068.011-.108 1.239-.282 2.421-.625 3.476-1.063-.186.77-.003 1.699.271 2.599-1.071.008-3.4.275-4.044 1.175z" fill="#FFD6BB"/><path fill-rule="evenodd" clip-rule="evenodd" d="M159.357 209.5c.057-.159.122-.314.179-.477-.042.058-.092.112-.141.17a3.78 3.78 0 00-.038.307zm-32.152 14.638c.015-.286.026-.571.034-.853.309-.21.614-.409.911-.604 5.077-2.917 9.928-6.059 14.78-9.197 2.176-1.399 4.269-2.968 6.342-4.584 2.897-2.252 5.759-4.591 8.777-6.644.442-.304.885-.604 1.334-.882a39.218 39.218 0 012.439-1.475c.252-1.385.439-2.805.545-4.255.023.011.046.015.069.025.404.445.789.908 1.159 1.385.301.379.594.784.869 1.196.091.123.175.243.255.369-.156.47-.324.922-.499 1.381.328-.206.655-.405.975-.618 1.426 2.371 2.291 4.869 2.158 6.988-.058.954-.317 1.829-.82 2.585-2.389 1.977-5 3.904-7.748 5.791-9.848 6.785-21.473 13.094-30.955 19.348-.503.329-.999.65-1.483.983-.087.058-.171.112-.251.17-4.982 3.369-9.567 2.483-13.709 2.248 0 0-.831.228-2.283-1.388-1.155-1.283-2.706-3.734-4.543-8.394-2.264-7.902-8.938-38.276-5.755-47.245l-.1-.032c.458-2.206 1.716-3.485 3.385-4.031l-.023-.022c6.346-6.626 14.205-13.329 21.679-19.424-1.155 3.514 1.734 10.372 2.965 13.228.598 1.46 1.288 3.564 2.073 5.126h-.004c-4.379 2.567-8.163 5.253-12.84 7.577a12.955 12.955 0 00-1.73-2.169c-.24.076-.469.163-.69.268-11.602 5.227-4.002 42.27.4 49.229 4.246-1.149 8.488-4.406 12.227-6.879.019.264.034.531.053.799h.004z" fill="#14045D"/><path fill-rule="evenodd" clip-rule="evenodd" d="M158.549 191.019c1.128-.047 2.385-.014 3.331.456.114.065.221.119.32.195-.884.398-1.475 1.168-1.41 2.354-.195-.17-.393-.347-.587-.507a19.025 19.025 0 00-1.67-1.236 12.637 12.637 0 00-1.337-.777c-.054-.137-.107-.275-.168-.409.442-.007.964-.054 1.521-.076z" fill="#A87C51"/><path fill-rule="evenodd" clip-rule="evenodd" d="M141.556 397.567l1.932-127.101c2.463-1.139 4.883-2.455 7.268-3.901-.095 2.657-.24 5.922-.415 9.663-.042.973-.091 1.97-.141 3.004-.122.629-.248 1.284-.37 1.938-.434 2.288-.899 4.75-1.406 7.36.351.926.736 1.916 1.162 2.993-.354 6.952-.758 14.598-1.166 22.504-1.608 31.303-3.327 66.701-2.866 79.314.019.376.034.734.057 1.07v.018c0 .058 0 .116.004.177 0 .3-.114.593-.331.886-.599.781-1.948 1.497-3.766 2.093v-.003c.011-.008.027-.011.038-.015z" fill="#0F024C"/><path fill-rule="evenodd" clip-rule="evenodd" d="M159.537 209.023c-.061.163-.122.319-.179.478.007-.102.019-.203.038-.308.049-.057.099-.112.141-.17z" fill="#26245A"/><path fill-rule="evenodd" clip-rule="evenodd" d="M147.634 415.596c-6.033-1.33-24.537-12.428-29.045-15.779a20.6 20.6 0 01.202-1.793.771.771 0 00.019-.112c1.585.809 3.922 1.276 6.578 1.46 1.749.116 3.636.116 5.534.007.244-.011.484-.025.724-.043.099-.004.187-.015.286-.025.248-.015.492-.037.732-.058a51.626 51.626 0 004.474-.597c.202-.032.4-.065.602-.108a35.52 35.52 0 004.055-1.016c1.902-.618 3.366-1.363 4.079-2.173.377.76.846 1.53 1.337 2.278.004.003.004.011.008.014a10.228 10.228 0 001.704 2.545c3.502 3.868 8.682 3.612 9.108 7.874.248.372.286.831.145 1.309-.701 2.454-5.938 5.834-10.538 6.196l-.004.021z" fill="#1B181A"/><path fill-rule="evenodd" clip-rule="evenodd" d="M148.421 314.025c.408-7.906.808-15.552 1.167-22.503.888 2.245 1.943 4.905 3.163 8.343 1.22 3.456 6.422 14.005 6.422 14.005s.263 2.596.686 6.214l-11.438-6.059z" fill="#8A5F3D"/><path fill-rule="evenodd" clip-rule="evenodd" d="M145.489 130.862c6.608 1.305 15.42-.04 20.131-3.991.171 3.89-.313 7.292-.313 7.292-1.711 2.664-1.193 2.877-1.471 6.579-.008.116-.019.231-.031.351-.011.101-.026.206-.041.311-.286 1.923-1.178 3.474-1.971 5.621a29.412 29.412 0 00-.8 2.328c-.461 1.562-.721 2.896-1.083 4.204a16.025 16.025 0 01-1.074 2.835c-.126.509-.576.936-1.231 1.286-.587.319-1.334.564-2.146.76a20.092 20.092 0 01-3.518.502c-.057.004-.118.004-.175.011-.118.004-.237.007-.351.007-.114.004-.225.004-.332.004a9.622 9.622 0 01-.929-.025 5.446 5.446 0 01-.736-.098c-1.197-.264-5.423-2.346-9.296-4.895.275-.549.477-1.074.644-1.609.523-1.67.698-3.358 1.696-5.675.778-1.949 1.693-3.279 1.765-5.141.122-3.073-.404-3.268 1.182-5.419 0 0 .293-2.36.08-5.238zm32.125 132.92c-.312 1.739-.564 3.507-.064 4.291 1.356 2.437 2.645 1.265 3.567-.831-.13.979.206 2.078.919 2.83-1.037.987-2.939 1.128-4.345.43-.4-2.151-.801-4.28-1.189-6.373.148-.47.594-.553 1.112-.347z" fill="#FFD6BB"/><path fill-rule="evenodd" clip-rule="evenodd" d="M164.718 198.619c.168.25.331.51.476.763-.32.213-.644.412-.972.618.172-.459.34-.911.496-1.381z" fill="#26245A"/><path fill-rule="evenodd" clip-rule="evenodd" d="M163.732 195.905a6.552 6.552 0 001.947-.178c1.326-.318 2.527-1.055 3.102-2.161.176.271.309.567.389.889.358 1.793-.438 2.809-1.654 3.326-.777.329-1.73.463-2.672.473-.125 0-.247-.007-.381-.007a23.497 23.497 0 00-2.027-2.577c.404.13.842.202 1.296.235z" fill="#DBC8B5"/><path fill-rule="evenodd" clip-rule="evenodd" d="M208.162 286.57v46.204l-11.651 6.381v-47.672l11.651-4.913z" fill="#A87C51"/><path fill-rule="evenodd" clip-rule="evenodd" d="M175.355 203.852a.401.401 0 01-.068.043.889.889 0 01.148-.737c.644-.9 2.973-1.171 4.044-1.179-.274-.9-.457-1.825-.271-2.595-1.055.437-2.237.777-3.476 1.063a39.44 39.44 0 01-3.247.61 73.308 73.308 0 01-3.853.492c.053-1.276-.217-2.53-1.059-3.687l-.058-.083c1.22-.514 2.013-1.533 1.654-3.326a2.982 2.982 0 00-.388-.889c-.446-.698-1.17-1.248-2.001-1.638a6.908 6.908 0 00-2.626-.607 4.604 4.604 0 00-1.635.224 2.125 2.125 0 00-.32.126c-.099-.076-.202-.13-.32-.195.19-.155.404-.304.632-.434a7.995 7.995 0 011.704-.705c.964-.289 2.043-.491 3.117-.629 1.186-.162 2.36-.256 3.351-.368.038-.004.072-.008.114-.011.964-.065 2.813.683 4.779 1.811.389.22.778.455 1.163.716 1.604 1.012 3.178 2.241 4.333 3.452.987 1.023 1.662 2.05 1.772 2.91 0 1.656 0 3.326.149 5.13-.332.502-1.113.961-2.051 1.29-2.096.734-5.004.839-5.594-.56-.008-.014-.008-.018-.008-.022.008-.072.011-.133.015-.202z" fill="#FFD6BB"/><path fill-rule="evenodd" clip-rule="evenodd" d="M161.88 191.474c-.945-.47-2.203-.502-3.331-.455.05-3.051.091-6.178-.111-8.98-.285-4.718-1.978-9.54-3.251-13.925 0-.007.008-.011.016-.015.48-.462.968-.809 1.475-1.062 3.582 7.237 5.701 15.826 5.835 24.004-.233.13-.446.278-.633.433z" fill="#9F2542"/><path fill-rule="evenodd" clip-rule="evenodd" d="M113.169 267.242c5.694 2.906 14.33 6.753 19.457 6.673a6.892 6.892 0 001.654-.191c2.195-.517 4.364-1.229 6.505-2.086.298-.116.584-.239.881-.369.61-.249 1.216-.521 1.822-.803l-1.933 127.102c-.011.003-.026.007-.038.014a32.746 32.746 0 01-3.777.965c-.202.044-.4.076-.602.113a54.503 54.503 0 01-4.474.596c-.24.018-.484.04-.732.054-.099.011-.187.022-.286.026-.24.018-.48.032-.724.043a45.762 45.762 0 01-5.534-.007c-2.656-.185-4.993-.651-6.582-1.461a.427.427 0 01-.015.112c-.065-.029-.118-.047-.176-.083a6.744 6.744 0 01-1.193-.701s1.315-7.946 1.392-15.83c-.004-.011 0-.022 0-.029-.488-10.976-1.742-17.974-.561-29.694 1.087-10.878-4.097-58.17-5.358-69.12-.724-6.279-.938-11.076-.999-15.986.404.214.831.438 1.273.662zm74.511 99.865c-5.08 2.542-10.477 3.54-16.792-2.031a56.171 56.171 0 01-.69-.629c-1.646-4.617-3.582-11.178-7.237-24.593-1.163-4.252-2.371-13.532-3.099-19.771-.427-3.619-.69-6.214-.69-6.214s-5.202-10.549-6.422-14.005c-1.219-3.438-2.275-6.095-3.163-8.34a175.835 175.835 0 01-1.163-2.993c.507-2.61.972-5.076 1.407-7.36.122-.655.247-1.309.369-1.942.05-1.03.1-2.028.141-3.004.176-3.738.321-7.002.416-9.659a82.472 82.472 0 001.902-1.182c2.336-1.479 4.63-3.08 6.894-4.729 3.175-2.321 6.285-4.75 9.3-7.129l6.113 27.847 11.601 52.852 6.522 29.719-5.409 3.163zm-12.334-163.033c.595 1.403 3.499 1.294 5.595.561-.031 2.165.015 4.309.358 6.337 1.102 6.073 2.645 11.51 2.862 17.778.446 8.991.225 17.978.446 26.969-.32.365-.709.676-1.158.947-2.23 1.374-5.744 1.71-8.038 1.594-.56-2.982-1.098-5.871-1.609-8.636 1.109-.868 2.2-1.71 3.278-2.531-1.429-3.521-3.586-8.618-4.444-13.469.797-9.83 1.658-19.728 2.706-29.572 0 .004 0 .008.004.022z" fill="#19066F"/><path fill-rule="evenodd" clip-rule="evenodd" d="M152.08 159.31c1.166-.148 2.188.257 3.125.831.728.445 1.407.987 2.089 1.457.404 1.576.579 3.51.884 4.989-.053.007-.107.014-.152.029-.48.061-.919.199-1.346.423a48.036 48.036 0 00-3.3-5.661 40.715 40.715 0 00-1.391-1.902c-.004-.054-.012-.097-.016-.152l.107-.014z" fill="#6B0F26"/><path fill-rule="evenodd" clip-rule="evenodd" d="M118.222 186.479c2.934 9.287 3.609 18.054 5.804 27.2.987-.673 1.978-1.367 2.962-2.075 8.571-6.178 17.135-13.513 25.306-20.049.412-.333.82-.662 1.235-.984 1.136-.057 2.39.293 3.667.933.446.221.891.481 1.337.774.564.368 1.117.788 1.67 1.24.194.159.392.336.587.506a21.274 21.274 0 011.581 1.583c.023.022.042.036.065.062-.023-.011-.046-.015-.068-.026a40.19 40.19 0 01-.546 4.255c-.827.463-1.638.951-2.439 1.475-.449.279-.892.579-1.334.882-3.018 2.057-5.88 4.393-8.777 6.645-2.073 1.616-4.166 3.185-6.342 4.584-4.855 3.137-9.703 6.279-14.78 9.2-.297.191-.602.39-.911.604-.008.278-.019.564-.034.849h-.004c-.019-.267-.034-.531-.053-.799-3.739 2.473-7.981 5.73-12.227 6.883-4.402-6.962-12.002-44.006-.4-49.233.221-.105.45-.192.686-.268.671.68 1.258 1.41 1.734 2.169.629 1.009 1.067 2.09 1.231 3.189-.053-.09-.107-.163-.156-.242.068.209.141.426.206.643z" fill="#1A076F"/><path fill-rule="evenodd" clip-rule="evenodd" d="M130.361 176.322c1.322 1.536 4.112-.553 5.293-.553 1.91.799-.087 6.963-.087 6.963 3.681 1.952 8.758 3.492 12.432 5.581 1.708.936 3.114 2.025 4.295 3.243-8.171 6.532-16.735 13.871-25.306 20.049-.961-10.09-3.96-17.956-8.816-25.53-.164-1.095-.602-2.176-1.231-3.188 4.677-2.321 8.461-5.007 12.84-7.574h.004c.187.373.377.72.576 1.009z" fill="#19066F"/><path fill-rule="evenodd" clip-rule="evenodd" d="M151.779 159.211c.072.083.145.181.209.264.481.614.942 1.251 1.391 1.905a47.678 47.678 0 013.301 5.658c-.507.249-.995.6-1.479 1.062-.007-.007-.015-.011-.023-.018-1.943-.925-3.899-2.512-5.343-4.074.05-.159.103-.322.152-.492a41.346 41.346 0 011.651-4.207l.141-.098z" fill="#891B38"/><path fill-rule="evenodd" clip-rule="evenodd" d="M158.272 167.044c2.698 4.772 4.985 9.457 5.922 14.93.176 2.762.176 5.568.019 8.358a8.001 8.001 0 00-1.7.709c-.133-8.177-2.256-16.767-5.835-24.004.427-.22.869-.361 1.35-.419.08.137.163.278.244.426z" fill="#801833"/><path fill-rule="evenodd" clip-rule="evenodd" d="M135.653 175.768c-1.181 0-3.971 2.089-5.294.553a9.135 9.135 0 01-.575-1.009c-.785-1.561-1.475-3.665-2.073-5.126-1.231-2.856-4.12-9.71-2.966-13.227.248-.195.5-.394.744-.6 1.551-2.581 3.365-5.188 5.335-7.107.012.123.019.249.035.376.69-.387 1.478-.655 2.286-.944-.686 2.234-1.417 4.909-1.818 6.865.039.481.077.958.119 1.439a3.126 3.126 0 01-.294-.499.696.696 0 01-.068-.13l-.061.022c-1.27 2.411-.275 5.021 1.387 7.291 1.223 1.667 2.816 3.142 4.124 4.215.876.673 1.741 1.32 2.587 1.938 3.617 2.642 6.945 4.963 9.982 8.524 3.213 3.727 5.946 8.185 7.924 12.747.061.13.118.267.167.408-1.276-.64-2.53-.99-3.666-.932-.412.321-.819.647-1.231.983-1.181-1.218-2.588-2.307-4.295-3.239-3.678-2.09-8.755-3.63-12.433-5.582 0 0 1.994-6.163.084-6.966z" fill="#0F024C"/><path fill-rule="evenodd" clip-rule="evenodd" d="M132.409 163.673c1.735 1.273 4.033 2.155 6.11 2.751.972.275 2.702.785 4.52 1.135 2.291.449 4.722.669 5.953-.086l.031.003c.145-1.077.442-2.267.812-3.467 1.444 1.558 3.399 3.149 5.343 4.074a.08.08 0 00.008.033c1.273 4.381 2.965 9.204 3.254 13.922.202 2.801.157 5.932.107 8.979-.556.022-1.078.069-1.521.08-1.978-4.566-4.71-9.02-7.923-12.747-3.038-3.564-6.365-5.882-9.982-8.524a156.649 156.649 0 01-2.588-1.938c-1.307-1.073-2.9-2.548-4.124-4.215z" fill="#CBE6F3"/><path fill-rule="evenodd" clip-rule="evenodd" d="M175.473 145.266c-2.116 2.849-6.956 5.531-9.83 7.541a139.234 139.234 0 00-3.152 2.162 38.46 38.46 0 00-2.584-1.41c.366-1.309.625-2.646 1.087-4.204.213-.724.472-1.494.8-2.332.793-2.144 1.684-3.695 1.97-5.618 4.833.145 9.948 1.902 11.484 3.351.072.166.152.336.225.51z" fill="#14045D"/><path fill-rule="evenodd" clip-rule="evenodd" d="M189.141 277.769c7.169 3.2 15.466 6.84 19.022 8.416v.387l-11.651 4.913-.099.039-16.251-7.689-2.058-11.08c1.482.716 4.066 1.894 7.15 3.279a195.964 195.964 0 01-.038 4.179c.407 1.28 2.824 2.885 3.91 1.565h.011c0-1.294.004-2.635.004-4.009z" fill="#764D2A"/><path fill-rule="evenodd" clip-rule="evenodd" d="M134.194 145.552c-.64.17-1.155.126-1.566-.058-2.07-.944-1.448-5.708-1.65-7.932-.256-2.859 3.239-2.631 4.055-1.42-.023 1.196-.282 3.297-.465 5.332a39.937 39.937 0 002.637 2.993c.461-5.227 2.378-6.605 3.491-8.831 1.014-2.007 1.994-3.413 2.531-5.358.713.231 1.467.43 2.26.586.213 2.874-.076 5.238-.076 5.238-1.589 2.147-1.06 2.342-1.185 5.419-.069 1.858-.988 3.192-1.765 5.14-.999 2.314-1.174 4.002-1.692 5.676a11.689 11.689 0 01-.644 1.605c-1.475-.969-2.901-2.01-4.09-3.04a3.2 3.2 0 01-.198-.293c-1.208-1.847-1.506-3.691-1.586-5.068l-.057.011z" fill="#FFD6BB"/><path fill-rule="evenodd" clip-rule="evenodd" d="M164.718 198.62c-.08-.127-.164-.246-.252-.373.13 0 .252.008.381.008.938-.011 1.891-.145 2.668-.474.023.029.042.058.061.08.839 1.156 1.109 2.411 1.056 3.69-.065 1.616-.644 3.276-1.227 4.823l-.054-.004c.134-2.118-.731-4.616-2.157-6.988a12.445 12.445 0 00-.476-.762z" fill="#A87C51"/><path fill-rule="evenodd" clip-rule="evenodd" d="M130.979 137.563c.202 2.224-.42 6.988 1.65 7.932.412.184.926.227 1.566.058-.247.65-.552 1.554-.876 2.573-.042.149-.095.297-.134.445-.312-.21-.727-.434-1.131-.69-.004.029-.016.054-.02.072l-.182-.036c-.385-.467-.786-.626-1.209-.937a2.738 2.738 0 01-.67-.621c.03-1.19-.153-2.325-.439-3.55l-.221.043c-1.867-6.417-3.121-12.479-4.295-19.742-.961-5.928 5.164-11.481 11.765-14.102l.046.087c13.374-5.336 34.176 5.025 30.753 19.087 0 0-.949 7.632-3.777 12.913.012-.123.023-.238.031-.35.278-3.706-.241-3.916 1.471-6.58 0 0 .484-3.405.312-7.291-4.707 3.951-13.518 5.296-20.131 3.987a18.64 18.64 0 01-2.26-.582c-.537 1.945-1.521 3.351-2.534 5.357-1.113 2.227-3.027 3.605-3.491 8.832a41.84 41.84 0 01-2.638-2.993c.187-2.036.446-4.136.465-5.332-.812-1.215-4.307-1.439-4.051 1.42z" fill="#30120B"/><path fill-rule="evenodd" clip-rule="evenodd" d="M118.588 399.816c4.509 3.351 23.013 14.449 29.046 15.78l.004-.022c4.6-.362 9.837-3.742 10.538-6.193.171.257.095 3.026.084 3.344-.073 1.385-1.875 3.189-4.311 4.581-1.89 1.07-4.169 1.89-6.311 2.06l-.008.025c-3.651-.813-11.861-5.191-18.778-9.261-.408-1.255-.793-2.531-2.161-3.319-.888-.466-2.397-.687-2.782.322-2.317-1.446-4.208-2.693-5.294-3.503-.046-1.236-.126-2.339-.046-3.825.008.004.016.007.019.011z" fill="#000"/><path fill-rule="evenodd" clip-rule="evenodd" d="M193.098 363.973c.228-.138.461-.279.69-.423.499 1.739 3.449 4.779 5.076 6.735h.008c.141.202.293.39.446.574a.214.214 0 01.049.051c3.259 3.698 8.152 3.416 8.556 7.414.237.351.267.77.138 1.215-.648 2.274-5.508 5.412-9.784 5.748l-.004.018c-4.291-.947-15.317-7.176-22.151-11.452-2.412-1.511-4.303-2.777-5.187-3.478.076-1.305-.004-3.279-.046-5.3 6.316 5.575 11.712 4.573 16.793 2.032 1.833-.925 3.632-2.046 5.416-3.134z" fill="#1B181A"/><path fill-rule="evenodd" clip-rule="evenodd" d="M151.989 159.476c-.069-.084-.137-.181-.21-.264l-.011-.264c.057-.004.118-.004.175-.007a20.12 20.12 0 003.514-.503c.812-.195 1.563-.441 2.146-.759.133.163.263.333.385.502.13.174.259.362.381.535.107.152.21.301.305.452.065.976.05 1.934-.53 2.965a10.065 10.065 0 01-.85-.535c-.682-.47-1.36-1.013-2.088-1.454-.938-.578-1.959-.983-3.125-.835l-.107.015c.004.054.011.097.015.152z" fill="#E8F6FD"/><path fill-rule="evenodd" clip-rule="evenodd" d="M164.325 156.192c.885 1.052.324.615-.007 1.653-.221.632-.77 1.362-.439 2.198.218.625 5.241 2.407 5.877 2.407.389 0 1.231 4.421.812 7.429-1.101 7.841-1.559 11.601-2.774 17.775a74.19 74.19 0 01-.462 2.054c-1.074.137-2.153.336-3.117.625a72.137 72.137 0 00-.019-8.358c-.027-.441-.065-.889-.099-1.327-.439-5.654-1.319-11.087-3.087-16.531-.427-1.454-1.251-3.265-2.337-4.949-.019-.206-.156-.337-.305-.452-.122-.174-.251-.358-.381-.535a9.706 9.706 0 00-.385-.503c.66-.35 1.109-.777 1.235-1.283.488-.983.804-1.902 1.071-2.838a38.46 38.46 0 012.584 1.41c.938.557 1.624 1.027 1.833 1.225z" fill="#0F024C"/><path fill-rule="evenodd" clip-rule="evenodd" d="M180.544 168.012c.209 9.081.472 18.231.526 27.294-1.155-1.212-2.725-2.441-4.33-3.453.187-1.496.385-2.989.579-4.49 2.31-5.863 3.229-12.609 3.049-19.347l.176-.004z" fill="#19066F"/><path fill-rule="evenodd" clip-rule="evenodd" d="M175.72 200.555c-1.189.538-1.944 1.58-2.157 2.418-.995-.235-1.971-.759-1.079-1.916a39.519 39.519 0 003.247-.611c-.007.036-.007.073-.011.109z" fill="#FFD6BB"/><path fill-rule="evenodd" clip-rule="evenodd" d="M131.444 156.987c3.849 5.878 17.227 4.952 19.971 1.973.114 0 .232-.007.354-.01l.008.26-.137.101a39.246 39.246 0 00-1.651 4.208c-.129.08-.259.163-.392.231.076.094.156.178.24.257-.374 1.2-.671 2.393-.812 3.467l-.034-.004c-1.231.756-3.659.539-5.953.091-1.818-.355-3.549-.861-4.521-1.139-2.077-.597-4.375-1.479-6.109-2.747-1.662-2.271-2.656-4.884-1.387-7.296l.061-.021c.023.05.045.09.068.13.084.177.183.34.294.499z" fill="#E8F6FD"/><path fill-rule="evenodd" clip-rule="evenodd" d="M132.626 273.914c-5.127.08-13.763-3.767-19.457-6.673-.442-.224-.869-.449-1.273-.658-1.932-1.023-3.38-1.855-4.021-2.26 1.571-7.635 3.076-12.985 3.076-21.769 0-1.649-.328-3.887-.85-6.446 1.452 1.612 2.283 1.388 2.283 1.388 4.147.232 8.728 1.117 13.713-2.248.08-.058.164-.116.251-.17.484-.333.976-.658 1.483-.987.095 1.442.198 2.877.32 4.284.656 8.361-.141 19.716 2.093 28.949.567 2.364 1.337 4.591 2.382 6.59z" fill="#19066F"/><path fill-rule="evenodd" clip-rule="evenodd" d="M196.513 291.566v47.588l-.313.17-6.689-3.539c-2.61-15.23-6.025-33.981-9.353-51.952l16.255 7.689.1.044z" fill="#8A5F3D"/><path fill-rule="evenodd" clip-rule="evenodd" d="M175.411 258.261c2.295.112 5.808-.224 8.038-1.594 1.971 1.684 3.678 4.508 4.581 7.367-1.097-.741-2.995-.987-5.48-1.674l-.099-.014a21.455 21.455 0 01-.877 3.72c-.141.416-.29.81-.457 1.175-.923 2.096-2.211 3.271-3.568.835-.499-.788-.247-2.552.065-4.295-.518-.202-.964-.123-1.113.347-.373-1.995-.732-3.951-1.09-5.867z" fill="#FFD6BB"/><path fill-rule="evenodd" clip-rule="evenodd" d="M164.966 194.581c.941-.271 1.894-.412 2.866-.553.278-.04.16-.441-.118-.405-.972.137-1.925.282-2.863.557-.274.076-.156.48.115.401z" fill="#A27449"/><path fill-rule="evenodd" clip-rule="evenodd" d="M163.761 192.954c.317.513.637 1.019.957 1.532.145.232.526.022.381-.213-.32-.51-.64-1.019-.957-1.533-.144-.231-.526-.018-.381.214z" fill="#A27449"/><path fill-rule="evenodd" clip-rule="evenodd" d="M238.111 308.804c-4.806 1.381-8.42-2.151-8.381-8.665l.053-7.762 18.824 11.211-8.671 4.482a9.977 9.977 0 01-1.825.734z" fill="#1E1E1E"/><path fill-rule="evenodd" clip-rule="evenodd" d="M229.729 300.137c-.038 6.518 3.575 10.046 8.381 8.666-1.113.574-2.558.679-4.143.433l-12.707-7.562c-1.749-2.057-2.881-4.277-2.866-6.359l-.838-9.331 12.173 5.474.206 1.008-.206 7.671z" fill="#000"/><path fill-rule="evenodd" clip-rule="evenodd" d="M272.972 197.106c-2.184-2.817-5.595-3.673-9.093-1.833l-34.961 18.44c-5.267 2.78-8.747 10.646-7.764 17.573l8.587 60.443-.514.318-11.671-6.062-8.419-59.261c-.975-6.927 2.497-14.786 7.768-17.566l34.96-18.447c4.037-2.122 18.195 1.131 21.107 6.395z" fill="#000"/><path fill-rule="evenodd" clip-rule="evenodd" d="M229.79 291.714l58.335-35.467-.095 13.762c-.046 7.321-4.699 15.628-10.382 18.571l-29.042 15.006-18.823-11.207.007-.665z" fill="#2F2F2F"/><path fill-rule="evenodd" clip-rule="evenodd" d="M272.982 197.112c1.105 1.428 1.894 3.344 2.218 5.665l9.147 57.602-54.604 31.35-8.587-60.444c-.983-6.926 2.497-14.793 7.76-17.573l34.961-18.44c3.498-1.84 6.909-.983 9.097 1.833.004 0 .008.003.008.007z" fill="#1E1E1E"/><path fill-rule="evenodd" clip-rule="evenodd" d="M381.258 387.499c-.194.141-.423.249-.617.398-1.62.95-3.244 1.977-4.902 2.823l4.902-2.859.617-.362z" fill="#140F2C"/><path fill-rule="evenodd" clip-rule="evenodd" d="M351.769 370.03l-2.008 1.099-13.008 7.068-7.375 4.06v-10.141l184.396-100.614-.266 10.249-2.085 1.171-66.781 36.433-65.969 36.027-4.208 2.274-16.75 9.15-3.324 1.796v.037l-2.622 1.391z" fill="#E9F1F4"/><path fill-rule="evenodd" clip-rule="evenodd" d="M349.76 371.128l2.008-1.099c.537 3.149 1.197 6.337 1.738 9.519l-1.776 1.059c-.233-.835-.465-1.721-.694-2.52-.697-2.274-.812-4.652-1.276-6.959z" fill="#250F8A"/><path fill-rule="evenodd" clip-rule="evenodd" d="M353.544 379.548c.077.333.115.698.157 1.027-.08-.329-.122-.658-.195-1.027h.038z" fill="#171043"/><path fill-rule="evenodd" clip-rule="evenodd" d="M356.36 402.654l-4.787-21.969.157-.079 1.776-1.059c.076.368.114.701.194 1.03 1.658 9.554 2.817 17.28 3.32 21.705l-.66.372z" fill="#250F8A"/><path fill-rule="evenodd" clip-rule="evenodd" d="M358.292 383.541c-.423-1.027-.774-2.23-1.041-3.478.385 1.28.732 2.451 1.041 3.478z" fill="#140F2C"/><path fill-rule="evenodd" clip-rule="evenodd" d="M357.211 379.951c-.191-.766-.347-1.5-.503-2.234l10.229-5.889 11.545 6.294 2.161 9.739-4.902 2.859c-4.596 2.303-9.497 3.218-15.21-1.829a5.298 5.298 0 01-.618-.586c-.499-1.359-1.006-2.895-1.62-4.764-.308-1.027-.655-2.198-1.044-3.478 0-.036 0-.072-.038-.112zm.502-13.144l9.223 5.021-10.229 5.889c-.152-.509-.267-.987-.385-1.464-.461-1.608-.579-3.441-1.078-5.05-.271-.882-.622-1.724-.854-2.563v-.036l3.323-1.797z" fill="#250F8A"/><path fill-rule="evenodd" clip-rule="evenodd" d="M357.211 379.951c-.191-.69-.385-1.392-.617-2.158l.114-.076c.156.734.312 1.468.503 2.234z" fill="#140F2C"/><path fill-rule="evenodd" clip-rule="evenodd" d="M336.753 378.196l13.008-7.067c.461 2.306.579 4.685 1.277 6.959.229.799.457 1.684.69 2.52l-.153.075-14.902 8.604.08-11.091z" fill="#250F8A"/><path fill-rule="evenodd" clip-rule="evenodd" d="M341.037 411.66l-2.546 1.432c-.659-.448-1.353-.846-1.97-1.32v-3.152c.808.658 2.469 1.761 4.516 3.04z" fill="#000"/><path fill-rule="evenodd" clip-rule="evenodd" d="M513.776 271.503L329.379 372.117h-.038l-109.475-60.046 183.471-100.509 110.439 59.941zm-2.354 71.835v34.86l-66.777 35.879v-32.915l66.777-37.824z" fill="#fff"/><path fill-rule="evenodd" clip-rule="evenodd" d="M511.422 306.721v36.617l-66.777 37.824v-36.613l66.777-37.828zm0-23.798v23.798l-66.777 37.828v-25.193l66.777-36.433z" fill="#fff"/><path fill-rule="evenodd" clip-rule="evenodd" d="M444.643 381.162v32.915l-64.464-35.041c-.271-3.221-.309-6.478-.541-9.663-.423-4.656-.659-9.41-.968-13.99l65.973-36.028v61.807z" fill="#E9F1F4"/><path fill-rule="evenodd" clip-rule="evenodd" d="M380.41 381.126c.114.767.232 1.501.308 2.191-.114-.73-.228-1.46-.308-2.191z" fill="#171043"/><path fill-rule="evenodd" clip-rule="evenodd" d="M380.642 387.859l-2.161-9.736.191.073 1.429.77c.114.621.194 1.207.271 1.789-.042.108 0 .257.038.372.076.731.194 1.461.308 2.191.233 1.612.423 3.008.542 4.179l-.618.362z" fill="#250F8A"/><path fill-rule="evenodd" clip-rule="evenodd" d="M377.938 365.526c.85 5.054 1.586 9.63 2.161 13.441l-1.429-.77c-.576-2.892-.999-5.897-1.811-8.716a76.827 76.827 0 01-.731-2.968l1.81-.987zm.542 12.596l-11.541-6.293 9.033-5.203 2.508 11.496z" fill="#250F8A"/><path fill-rule="evenodd" clip-rule="evenodd" d="M380.101 378.966a848.828 848.828 0 00-2.161-13.441l-1.811.991c-.621-3.001-1.044-5.933-1.665-8.861l4.207-2.27c.309 4.577.545 9.334.965 13.99.232 3.185.274 6.439.545 9.663l-.08-.072z" fill="#250F8A"/><path fill-rule="evenodd" clip-rule="evenodd" d="M376.859 369.48c.812 2.82 1.235 5.824 1.814 8.716l-.194-.072-2.508-11.496.156-.112c.229.987.461 1.977.732 2.964z" fill="#171043"/><path fill-rule="evenodd" clip-rule="evenodd" d="M357.713 366.807l16.755-9.149c.617 2.924 1.04 5.856 1.661 8.857l-.156.112-9.036 5.202-9.224-5.022z" fill="#250F8A"/><path fill-rule="evenodd" clip-rule="evenodd" d="M360.531 388.89c5.713 5.046 10.614 4.135 15.211 1.829 1.658-.846 3.281-1.873 4.901-2.82.19-.148.423-.26.614-.401.464 1.572 3.129 4.32 4.6 6.113h.034c.114.181.232.325.385.51l.038.039c2.973 3.37 7.413 3.113 7.76 6.735.194.289.232.698.118 1.103-.579 2.046-4.981 4.902-8.842 5.195v.036c-3.899-.879-13.896-6.515-20.07-10.397-2.203-1.356-3.899-2.527-4.711-3.149.076-1.171 0-2.964-.038-4.793z" fill="#101012"/><path fill-rule="evenodd" clip-rule="evenodd" d="M365.28 396.833c6.174 3.879 16.171 9.518 20.07 10.397v-.036c3.861-.293 8.263-3.149 8.838-5.195.156.217.076 2.523.076 2.812-.034.77-.766 1.725-1.848 2.639l-3.476 2.018c-1.159.473-2.432.838-3.59.914v.036c-3.087-.701-9.917-4.323-15.71-7.729-.347-1.062-.732-2.089-1.852-2.747-.774-.401-2.009-.586-2.432.148a112.094 112.094 0 00-2.702-1.717c-.926-.665-1.662-1.171-2.123-1.54-.038-1.027-.114-1.941-.038-3.185.038 0 .038.036.076.036.812.622 2.508 1.793 4.711 3.149z" fill="#000"/><path fill-rule="evenodd" clip-rule="evenodd" d="M351.496 405.545c-4.517 2.231-9.342 3.145-14.937-1.648l.115-14.609 14.902-8.603 4.783 21.968-4.863 2.892z" fill="#250F8A"/><path fill-rule="evenodd" clip-rule="evenodd" d="M369.834 415.684c.194.333.232.698.114 1.103-.579 2.05-4.977 4.906-8.876 5.202v.033c-3.861-.879-13.858-6.518-20.036-10.361-2.047-1.28-3.705-2.382-4.516-3.04l.041-4.725c5.595 4.793 10.42 3.879 14.933 1.648 1.665-.842 3.285-1.865 4.905-2.856.194-.108.427-.256.621-.361.461 1.569 3.126 4.316 4.589 6.077.156.181.274.365.427.51 0 .036.038.036.038.072 2.973 3.329 7.375 3.076 7.76 6.698z" fill="#101012"/><path fill-rule="evenodd" clip-rule="evenodd" d="M364.662 424.295c-1.159.474-2.394.803-3.59.915-3.053-.662-9.887-4.324-15.676-7.729-.347-1.027-.732-2.086-1.89-2.744-.732-.365-1.967-.589-2.394.145a60.877 60.877 0 01-2.698-1.721l.076-.072 2.546-1.428c6.178 3.842 16.175 9.482 20.036 10.36v-.032c3.899-.297 8.297-3.152 8.876-5.202.156.217.08 2.563.08 2.82-.042.802-.773 1.756-1.856 2.635l-3.51 2.053z" fill="#000"/><path fill-rule="evenodd" clip-rule="evenodd" d="M335.633 403.131c-.926-2.603-1.929-5.9-3.358-10.918v-.397l4.398-2.527-.114 14.608c-.076-.072-.195-.144-.271-.22-.232-.181-.423-.365-.655-.546z" fill="#fff"/><path fill-rule="evenodd" clip-rule="evenodd" d="M336.56 403.897l-.039 4.725c-.076-.036-.156-.112-.194-.145.038-1.178 0-2.968-.038-4.8.076.075.194.148.271.22z" fill="#F05A2B"/><path fill-rule="evenodd" clip-rule="evenodd" d="M332.274 392.215c1.429 5.018 2.435 8.315 3.358 10.918.232.177.426.361.655.545.038 1.833.08 3.623.038 4.798.042.036.118.108.195.144v3.153l-.462 61.69-10.77 5.86.735-98.568 3.046 1.649.308-.148 7.375-4.06-.076 11.091-4.402 2.531v.397z" fill="#fff"/><path fill-rule="evenodd" clip-rule="evenodd" d="M326.023 380.756l-.736 98.568-103.14-56.496V323.75l103.876 57.006z" fill="#E9F1F4"/><path fill-rule="evenodd" clip-rule="evenodd" d="M326.023 380.756L222.147 323.75l-2.512-1.388v-.04l.233-10.252 109.475 60.046h.034v10.14l-.309.148-3.045-1.648z" fill="#DAE5E9"/><path fill-rule="evenodd" clip-rule="evenodd" d="M349.281 59.176l.549 4.258a.547.547 0 01-.183-.119c-1.052-.933-1.368-2.693-.846-4.233l.48.094z" fill="#7B8091"/><path fill-rule="evenodd" clip-rule="evenodd" d="M369.605 50.52c-12.696-6.45-28.802.202-38.033 17.113-10.82 19.763-8.274 45.933 6.468 57.121a23.735 23.735 0 004.638 2.813c-5.286-1.699-10.66-4.201-13.617-6.46-15.074-11.391-18.237-35.97-7.101-55.965 9.666-17.312 24.693-28.165 47.645-14.623z" fill="#fff"/><path fill-rule="evenodd" clip-rule="evenodd" d="M335.698 70.205c-9.277 17.164-7.074 39.751 5.618 49.519 12.828 9.872 30.2 1.926 38.162-16.644 4.166-9.743 4.848-20.364 2.599-29.307-1.757-7.05-5.313-13.083-10.389-16.807-6.541-4.815-14.54-5.057-21.797-1.348-5.442 2.751-10.466 7.722-14.193 14.587zm-4.128-2.57c9.231-16.915 25.338-23.564 38.033-17.114a.47.47 0 00.11.05 23.442 23.442 0 013.293 2.057c13.149 9.75 17.387 32.876 8.903 52.784-6.17 14.496-17.341 23.436-28.527 24.144-2.786.105-6.715-.701-10.702-1.988a23.877 23.877 0 01-4.638-2.812c-14.746-11.189-17.288-37.358-6.472-57.122z" fill="#E9F1F4"/><path fill-rule="evenodd" clip-rule="evenodd" d="M335.698 70.205c3.727-6.865 8.751-11.836 14.193-14.587l.576 1.352c-.538.286-1.018.77-1.38 1.435a5.482 5.482 0 00-.286.676c-.522 1.544-.206 3.3.846 4.234a.55.55 0 00.183.119l2.34 18.52c-.682.64-1.288 1.478-1.78 2.418-1.78 3.43-1.349 7.877 1.128 9.88.713.56 3.614 1.381 5.077 1.587v-.036c2.142.3 4.482-1.233 5.755-4.078.114-.27.221-.546.32-.842l11.731-12.721.031-.019.937-.122c.179.444.427.795.74 1.07 1.181 1.008 2.85.354 3.655-1.46.465-1.078.503-2.278.179-3.225l2.134-.633c2.249 8.944 1.567 19.565-2.599 29.307-7.962 18.571-25.334 26.516-38.162 16.644-12.692-9.768-14.895-32.355-5.618-49.52zm2.119-.279c-.915 1.692-.709 3.948.56 4.971 1.307 1.066 3.164.398 4.063-1.486.861-1.833.461-3.998-.827-4.89-1.227-.861-2.908-.25-3.796 1.405zm-2.127 34.958c1.327 1.026 3.186.256 4.101-1.692.881-1.883.473-4.089-.823-4.942-1.273-.817-2.958-.133-3.861 1.584-.934 1.778-.709 4.038.583 5.05zm-.556-19.991c-.938 1.739-.717 4.002.56 5.032 1.334 1.045 3.198.307 4.105-1.609.861-1.854.465-4.03-.827-4.93-1.254-.836-2.958-.17-3.838 1.507zm46.021 7.678c.754-1.746.381-3.821-.793-4.634-1.124-.803-2.618-.163-3.419 1.428-.792 1.652-.571 3.788.576 4.739 1.177 1.005 2.851.314 3.636-1.533zm-6.132 14.16c.773-1.804.392-3.897-.801-4.71-1.158-.785-2.687-.109-3.48 1.525-.834 1.696-.613 3.868.549 4.83 1.216.969 2.927.224 3.732-1.645zm-19.956 12.504c.834-1.89.446-4.056-.82-4.869-1.212-.785-2.851-.061-3.716 1.652-.88 1.779-.674 3.998.583 4.974 1.27.991 3.084.188 3.953-1.757zm10.382-2.664c.811-1.843.434-3.969-.797-4.757-1.185-.792-2.756-.101-3.609 1.583-.839 1.754-.644 3.941.579 4.895 1.254.994 2.996.202 3.827-1.721zm-23.703-1.876c1.327 1.03 3.179.239 4.067-1.731.854-1.902.454-4.089-.823-4.921-1.254-.798-2.927-.075-3.808 1.634-.914 1.779-.693 4.042.564 5.018z" fill="#fff"/><path fill-rule="evenodd" clip-rule="evenodd" d="M371.687 56.966c5.077 3.723 8.633 9.757 10.394 16.806l-2.139.633c-.186-.597-.533-1.096-.971-1.407-1.125-.81-2.623-.227-3.427 1.352-.568 1.183-.632 2.607-.175 3.67l-.938.123-3.403-.738s-7.466 2.921-10.992 4.342l-6.967-19.033c.198-.25.351-.503.496-.817.823-1.772.453-3.916-.797-4.79-.705-.51-1.555-.517-2.302-.138l-.575-1.352c7.26-3.705 15.256-3.466 21.796 1.349zm2.474 10.722c.777-1.732.373-3.818-.801-4.678-1.132-.828-2.648-.26-3.453 1.32-.838 1.612-.613 3.745.549 4.764 1.212 1.027 2.901.38 3.705-1.406zm-10.394-10.603c-1.162-.835-2.732-.278-3.548 1.305-.854 1.623-.632 3.785.553 4.804 1.235 1.067 2.973.423 3.796-1.391.808-1.732.415-3.84-.801-4.718z" fill="#fff"/><path fill-rule="evenodd" clip-rule="evenodd" d="M352.767 57.107c1.25.875 1.623 3.019.796 4.79a3.704 3.704 0 01-.495.817l-1.09-2.953-.08-.225.019.206-2.638-.567-.48-.094a5.49 5.49 0 01.286-.676c.362-.665.842-1.15 1.38-1.435.747-.383 1.597-.373 2.302.137zm11.002-.021c1.212.878 1.604 2.986.796 4.717-.819 1.815-2.557 2.455-3.796 1.389-1.181-1.016-1.402-3.178-.548-4.805.815-1.58 2.385-2.136 3.548-1.301zm9.593 5.924c1.174.86 1.574 2.946.797 4.678-.801 1.785-2.489 2.433-3.705 1.41-1.162-1.024-1.383-3.153-.549-4.769.805-1.58 2.321-2.147 3.457-1.32zm6.58 11.396c.324.947.286 2.147-.179 3.224-.804 1.815-2.473 2.47-3.655 1.46a2.771 2.771 0 01-.739-1.07c-.458-1.062-.393-2.486.175-3.672.804-1.576 2.302-2.158 3.426-1.352.439.31.786.813.972 1.41zm.419 13.531c1.178.814 1.551 2.889.793 4.635-.785 1.847-2.458 2.534-3.636 1.532-1.147-.954-1.368-3.087-.575-4.739.8-1.59 2.298-2.234 3.418-1.428zm-6.137 14.083c1.189.817 1.574 2.91.8 4.71-.804 1.869-2.519 2.614-3.735 1.645-1.159-.962-1.384-3.131-.545-4.83.793-1.63 2.317-2.31 3.48-1.525zm-9.571 9.793c1.231.788 1.608 2.917.796 4.757-.831 1.927-2.572 2.715-3.826 1.721-1.224-.954-1.418-3.141-.58-4.895.854-1.681 2.421-2.375 3.61-1.583zm-10.407 2.553c1.265.817 1.658 2.978.82 4.869-.866 1.945-2.684 2.747-3.953 1.757-1.257-.976-1.463-3.196-.583-4.974.865-1.714 2.504-2.437 3.716-1.652zm-9.256-6.324c1.276.832 1.677 3.019.823 4.921-.888 1.97-2.74 2.761-4.067 1.731-1.257-.976-1.478-3.239-.564-5.018.881-1.709 2.554-2.432 3.808-1.634zm-9.882-8.208c.903-1.72 2.588-2.4 3.861-1.583 1.296.853 1.7 3.055.823 4.942-.915 1.948-2.778 2.718-4.101 1.688-1.292-1.009-1.521-3.272-.583-5.047zm.024-14.94c.884-1.68 2.584-2.342 3.838-1.51 1.292.9 1.689 3.08.827 4.93-.903 1.92-2.771 2.657-4.104 1.612-1.273-1.034-1.494-3.297-.561-5.032zm6.482-16.374c1.284.893 1.688 3.059.827 4.892-.903 1.883-2.755 2.552-4.066 1.485-1.27-1.026-1.472-3.282-.557-4.97.888-1.656 2.569-2.267 3.796-1.407z" fill="#3E24BA"/><path fill-rule="evenodd" clip-rule="evenodd" d="M371.028 77.406l3.404.738-.031.018c-.751.278-12.649 4.985-12.615 5.021a4.33 4.33 0 00-1.06-1.023 4.53 4.53 0 00-.67-.376l-.019-.036c3.525-1.42 10.991-4.342 10.991-4.342zm-19.11-17.662l3.11 23.19-2.854-.95-.004-.029-2.34-18.52-.549-4.258 2.637.567z" fill="#EBBA00"/><path fill-rule="evenodd" clip-rule="evenodd" d="M354.583 94.895a3.93 3.93 0 002.012.908v.036c-1.463-.206-4.363-1.027-5.076-1.587-2.477-2.003-2.908-6.45-1.128-9.88.491-.94 1.097-1.778 1.78-2.418l.003.032 2.855.947a7.918 7.918 0 00-1.578 2.126c-1.768 3.43-1.319 7.852 1.132 9.837z" fill="#EBBA00"/><path fill-rule="evenodd" clip-rule="evenodd" d="M359.984 81.77c.034-.022.061 0 .072.014a4.326 4.326 0 011.73 1.399c1.46 1.873 1.845 4.902.885 7.7-.1.297-.206.572-.321.843-1.273 2.845-3.613 4.378-5.755 4.078a3.96 3.96 0 01-2.012-.908c-2.451-1.984-2.9-6.41-1.132-9.836a7.917 7.917 0 011.578-2.126c1.471-1.41 3.339-1.869 4.955-1.164z" fill="#FFCA00"/><path fill-rule="evenodd" clip-rule="evenodd" d="M374.4 78.162l-11.731 12.721c.961-2.798.576-5.827-.884-7.7-.03-.036 11.868-4.743 12.615-5.021zm-21.332-15.449l6.971 19.037h-.042l-.015.018c-1.616-.705-3.48-.246-4.955 1.168l-3.11-23.19.061.017 1.09 2.95z" fill="#FFCA00"/><path fill-rule="evenodd" clip-rule="evenodd" d="M318.017 316.522v.954l.88-.477a.541.541 0 00-.083-.083c-.008 0-.023-.011-.046-.018-.21-.112-.606-.3-.751-.376zm-39.56-24.405c-.077.13-.164.267-.229.408.103.268.526.51.789.495.049-.108.114-.227.187-.329.567-.86 1.379-1.406 2.206-1.576.652-.148 1.323-.05 1.891.326.43.289.754.708.964 1.207.381.195.766.405 1.193.622l.004-.015c-.138-1.167-.694-2.19-1.593-2.787-1.113-.741-2.523-.672-3.751.047a5.277 5.277 0 00-1.661 1.602zm5.88 3.028c-.122.17-.228.358-.32.546.038.365.461.47.797.478.068-.156.164-.304.263-.456.522-.792 1.265-1.33 2.035-1.544.705-.198 1.448-.115 2.058.293.389.264.842.749.976 1.345.385.206.789.423 1.196.633-.095-1.229-.659-2.332-1.604-2.957-1.124-.738-2.542-.673-3.769.083-.618.354-1.178.896-1.632 1.579z" fill="#A3AEBD"/><path fill-rule="evenodd" clip-rule="evenodd" d="M314.12 312.137c-.339 0-.735-.199-.793-.528.111-.217.214-.427.355-.636a5.011 5.011 0 011.665-1.609l-.548-.296c-.385-.21-.786-.423-1.216-.655-.865-.47-1.814-.976-2.828-1.525-.835.17-1.666.726-2.241 1.605a7.176 7.176 0 00-.271.455v.004c-.244.069-.77-.152-.823-.412.107-.206.221-.416.358-.626.484-.733 1.102-1.301 1.772-1.666a7.53 7.53 0 00-.526-.286c-.358-.195-.731-.401-1.112-.607-1.033-.557-2.119-1.135-3.232-1.732-.736.217-1.433.749-1.937 1.512a4.506 4.506 0 00-.346.632v.015c-.301 0-.713-.159-.831-.427l.015-.007c.118-.271.263-.539.431-.788a5.054 5.054 0 011.555-1.537c-.149-.072-.286-.155-.427-.238a36.217 36.217 0 01-1.17-.618c-1.006-.55-2.028-1.096-3.034-1.634-.789.195-1.544.723-2.081 1.543a3.86 3.86 0 00-.274.51l-.008-.015c-.282.087-.777-.148-.789-.462v-.011c.111-.199.21-.409.336-.589a4.98 4.98 0 011.65-1.602c-.179-.094-.347-.195-.526-.282-.362-.191-.732-.394-1.102-.596l-3.277-1.761c-.724.228-1.407.749-1.91 1.508-.103.166-.209.35-.305.538-.305.073-.796-.177-.808-.462.119-.217.24-.452.378-.658.43-.644.953-1.164 1.543-1.526a3.305 3.305 0 01-.419-.228 62.974 62.974 0 01-1.201-.636 1112.33 1112.33 0 00-3.029-1.634c-.774.213-1.517.748-2.04 1.544-.095.152-.19.3-.262.455-.332-.007-.755-.112-.797-.477.091-.192.202-.376.324-.546.453-.687 1.014-1.225 1.631-1.583-.183-.098-.35-.185-.514-.293-.423-.217-.812-.427-1.189-.622-1.19-.636-2.15-1.167-2.859-1.533-.827.167-1.639.716-2.203 1.577-.072.101-.137.22-.187.329-.266.014-.689-.228-.789-.496.065-.141.153-.278.229-.408a5.238 5.238 0 011.662-1.602l-.012-.007c-1.726.864-25.135 12.508-27.688 13.781a1.365 1.365 0 00-.199.126l39.333 21.546 27.197-14.732c-.038-.032-.073-.068-.118-.094a.511.511 0 01-.08-.054c-.351-.188-1.052-.571-2.032-1.095-.785.199-1.551.745-2.096 1.576a2.945 2.945 0 00-.305.542v.033z" fill="#34336E"/><path fill-rule="evenodd" clip-rule="evenodd" d="M298.935 300.533c.693-.188 1.417-.109 2.031.293.469.318.804.791 1.002 1.341.389.213.778.419 1.17.618-.114-1.222-.674-2.317-1.612-2.939-1.113-.741-2.523-.669-3.758.061a5.026 5.026 0 00-1.65 1.602c-.122.181-.225.39-.335.589v.011c.015.314.51.549.789.463l.007.014c.076-.181.175-.34.278-.51.534-.82 1.289-1.348 2.078-1.543z" fill="#A3AEBD"/><path fill-rule="evenodd" clip-rule="evenodd" d="M252.87 307.195l38.44 21.057.98-.528 25.726-13.936.534-.285s.888-1.598.202-2.274l-27.198 14.731-39.332-21.545c-.964.701-.274 2.277-.274 2.277l.922.503z" fill="#6E6AA0"/><path fill-rule="evenodd" clip-rule="evenodd" d="M318.017 317.475l-26.179 14.163-.149.084-39.207-21.488-.129-.062c-.961.702-.271 2.274-.271 2.274l39.367 21.564 27.239-14.753s.88-1.569.209-2.259l-.88.477z" fill="#6E6AA0"/><path fill-rule="evenodd" clip-rule="evenodd" d="M252.617 310.016c-.046.079-.084.159-.133.22l39.202 21.488.153-.087-.096-.155c.984-1.009.877-2.502.549-3.76l-.983.531-38.44-21.057c.202.853.129 2.097-.252 2.82z" fill="#FDCB85"/><path fill-rule="evenodd" clip-rule="evenodd" d="M292.866 297.267c.743-.246 1.543-.191 2.195.246.522.347.884.886 1.083 1.515.369.202.735.408 1.097.596-.072-1.279-.64-2.433-1.612-3.091-1.147-.759-2.63-.661-3.865.134-.59.365-1.113.882-1.547 1.526a8.69 8.69 0 00-.373.658c.007.289.503.535.807.462.092-.184.199-.372.305-.538.503-.759 1.186-1.28 1.91-1.508z" fill="#A3AEBD"/><path fill-rule="evenodd" clip-rule="evenodd" d="M291.744 331.483l.095.156 26.18-14.164v-3.687l-25.726 13.936c.324 1.258.434 2.751-.549 3.759z" fill="#FFDEB2"/><path fill-rule="evenodd" clip-rule="evenodd" d="M303.567 303.022a5.065 5.065 0 00-1.555 1.54 4.664 4.664 0 00-.431.788l-.015.007c.118.268.53.427.831.427v-.015c.099-.224.213-.43.346-.632.507-.767 1.201-1.295 1.937-1.515.743-.235 1.52-.17 2.161.26.518.329.884.853 1.071 1.475.381.203.754.412 1.112.604-.068-1.269-.64-2.415-1.616-3.066-1.143-.744-2.606-.654-3.841.127zm5.984 3.227c-.674.365-1.288.932-1.772 1.666-.137.21-.251.42-.362.626.057.26.579.48.827.412v-.004c.088-.159.172-.304.271-.455.575-.879 1.406-1.436 2.241-1.605.652-.131 1.315-.029 1.871.339.431.293.755.694.957 1.186.427.231.827.445 1.216.654v-.007c-.134-1.175-.694-2.212-1.594-2.809-1.082-.726-2.458-.679-3.655-.003zm5.796 3.117c-.633.365-1.205.911-1.666 1.605-.141.213-.24.423-.351.64.054.329.45.527.789.527v-.032c.08-.188.187-.38.305-.546.545-.828 1.315-1.374 2.096-1.572.698-.188 1.418-.098 2.02.3 1.315.874 1.639 2.957.648 4.677a4.106 4.106 0 01-1.17 1.305v.25c.141.076.538.267.751.379.023.008.034.019.046.019v-.019c.438-.39.838-.871 1.162-1.424 1.304-2.281.877-5.01-.869-6.167-1.116-.734-2.53-.662-3.761.058z" fill="#A3AEBD"/><path fill-rule="evenodd" clip-rule="evenodd" d="M353.658 343.585c1.105 0 1.997-.546 1.997-1.225 0-.68-.892-1.229-1.997-1.229s-2.001.549-2.001 1.229c0 .679.896 1.225 2.001 1.225z" fill="#747474"/><path fill-rule="evenodd" clip-rule="evenodd" d="M340.447 342.392c1.285.708 2.1 1.149 2.1 1.149 1.285.709 3.388.709 4.707-.011l7.28-3.983c1.314-.713 1.333-1.873.045-2.574l-2.279-1.258-.019.029-14.597-8.029c-1.284-.713-3.392-.702-4.703.018l-7.283 3.976c-1.315.72-1.334 1.869-.046 2.585 0 0 9.25 5.079 14.776 8.127l.019-.029z" fill="#BCBCBC"/><path fill-rule="evenodd" clip-rule="evenodd" d="M359.421 343.419c1.235-.673 1.43-2.314 1.121-3.279.103.6-.282 1.218-1.121 1.677l-8.339 4.559c-1.505.817-3.914.824-5.393.014l-21.548-11.85c-.881-.488-1.235-1.156-1.033-1.796-.606 1.489-.191 2.725 1.033 3.391l21.548 11.853c1.479.806 3.888.806 5.393-.011l8.339-4.558z" fill="#434343"/><path fill-rule="evenodd" clip-rule="evenodd" d="M323.244 332.454c.172-.318.488-.615.953-.864l8.339-4.555c1.506-.821 3.91-.828 5.389-.022l21.549 11.854c.637.354.991.799 1.071 1.254v.018c.099.6-.286 1.219-1.124 1.678l-8.339 4.562c-1.506.813-3.915.82-5.389.011l-21.553-11.85c-.881-.488-1.231-1.157-1.033-1.797.034-.087.084-.188.137-.289zm30.414 8.676c-1.105 0-2.001.55-2.001 1.229 0 .68.896 1.226 2.001 1.226s1.997-.546 1.997-1.226c0-.679-.892-1.229-1.997-1.229zm-1.357-5.415l-.019.029-14.597-8.029c-1.284-.712-3.396-.701-4.703.018l-7.283 3.977c-1.315.719-1.334 1.872-.05 2.584 0 0 9.254 5.08 14.78 8.127l.019-.029c1.285.709 2.096 1.15 2.096 1.15 1.285.708 3.392.708 4.707-.011l7.284-3.984c1.315-.712 1.334-1.872.045-2.574 0 0-.888-.488-2.279-1.258z" fill="#212121"/><path fill-rule="evenodd" clip-rule="evenodd" d="M487.296 230.509l1.345-.734-25.245-13.325-1.803.915.008.003 25.695 13.141z" fill="#FFE4BF"/><path fill-rule="evenodd" clip-rule="evenodd" d="M490.039 229.012l-24.865-13.462-1.779.9 25.245 13.325 1.399-.763z" fill="#EAD3B3"/><path fill-rule="evenodd" clip-rule="evenodd" d="M491.532 228.19l-24.709-13.474-1.65.835 24.865 13.463 1.494-.824z" fill="#C9B58A"/><path fill-rule="evenodd" clip-rule="evenodd" d="M493.272 227.236l-.008-.014-24.704-13.383-1.738.879 24.708 13.473 1.742-.955z" fill="#DCC7A1"/><path fill-rule="evenodd" clip-rule="evenodd" d="M493.272 227.236l1.509-.82-24.674-13.369-1.547.792 24.704 13.383.008.014z" fill="#EAD3B3"/><path fill-rule="evenodd" clip-rule="evenodd" d="M496.54 225.454l-24.206-13.528-2.229 1.121 24.678 13.372 1.757-.965z" fill="#FFE4BF"/><path fill-rule="evenodd" clip-rule="evenodd" d="M491.855 242.202a1.53 1.53 0 00.458-.098c1.543-.575 2.797-3.275 2.797-6.026 0-1.457-.35-2.632-.899-3.34a1.677 1.677 0 00-.469.094c-1.536.574-2.786 3.275-2.786 6.037 0 1.453.351 2.635.899 3.333z" fill="#E9F1F4"/><path fill-rule="evenodd" clip-rule="evenodd" d="M492.313 242.103a1.43 1.43 0 01-.457.097c.491.644 1.158.897 1.886.626 1.552-.571 2.798-3.275 2.798-6.034 0-2.472-1.002-4.15-2.329-4.056.549.709.9 1.887.9 3.34 0 2.755-1.254 5.456-2.798 6.027z" fill="#D4E2E6"/><path fill-rule="evenodd" clip-rule="evenodd" d="M493.742 232.832c.16-.058.317-.087.469-.094 1.326-.098 2.329 1.58 2.329 4.056 0 2.755-1.246 5.459-2.798 6.034-.728.271-1.395.018-1.886-.626-.549-.701-.9-1.88-.9-3.333 0-2.762 1.25-5.462 2.786-6.037zm0 11.413c2.036-.756 3.674-4.309 3.674-7.939 0-3.633-1.638-5.957-3.674-5.206-2.027.763-3.674 4.313-3.674 7.943 0 3.626 1.647 5.95 3.674 5.202z" fill="#fff"/><path fill-rule="evenodd" clip-rule="evenodd" d="M492.546 229.341l7.344-4.024v-.17l-26.183-13.925-1.372.705 24.205 13.528-1.757.961-1.513.821-1.738.954-1.494.821-1.399.763-1.341.733-25.7-13.14-.007-.004-1.662.839 27.06 14.182 5.557-3.044z" fill="#250F8A"/><path fill-rule="evenodd" clip-rule="evenodd" d="M493.742 231.102c2.036-.756 3.674 1.573 3.674 5.202 0 3.63-1.638 7.187-3.674 7.942-2.027.749-3.674-1.579-3.674-5.205 0-3.63 1.647-7.176 3.674-7.939zm-6.753 1.28l.004.004.057 21.744 12.787-6.782.053-.029v-22.004l-7.344 4.027-5.557 3.04z" fill="#3E24BA"/><path fill-rule="evenodd" clip-rule="evenodd" d="M458.994 221.839c2.253 1.225 7.093 4.056 9.041 6.814 3.609 5.097 2.5 9.652 6.708 15.896 3.331 4.974 9.375 8.22 12.306 9.583l-.053-21.744-.008-.004-27.056-14.182.103 1.851.076 1.207-1.117.579z" fill="#250F8A"/><path fill-rule="evenodd" clip-rule="evenodd" d="M466.874 229.556c3.609 5.097 2.5 9.655 6.692 15.899 4.532 6.731 13.999 10.31 13.999 10.31l15.062-8.568.111-.094c-.317-.159-1.46-.777-2.847-1.522v1.739l-.054.029.054.04-12.844 6.742c-2.927-1.363-8.972-4.609-12.307-9.584-4.207-6.243-3.098-10.798-6.708-15.895-1.947-2.758-6.787-5.589-9.036-6.814l1.117-.579-.077-1.207-2.694 1.258h-.008l-.324.148-.004.007a.74.74 0 00-.362.658s7.642 3.785 10.23 7.433z" fill="#FFCA00"/><path fill-rule="evenodd" clip-rule="evenodd" d="M502.627 247.197l-15.062 8.567-.267 25.255 15.531-8.445-.202-25.377z" fill="#FFD740"/><path fill-rule="evenodd" clip-rule="evenodd" d="M473.568 245.456c-4.193-6.246-3.088-10.801-6.693-15.898-2.588-3.648-10.229-7.433-10.229-7.433l.407 40.698 30.243 18.198.266-25.254s-9.463-3.583-13.994-10.311z" fill="#FFCA00"/><path fill-rule="evenodd" clip-rule="evenodd" d="M466.256 241.029l1.345-.737-25.242-13.325-1.806.914.004.004 25.699 13.144z" fill="#FFE4BF"/><path fill-rule="evenodd" clip-rule="evenodd" d="M468.999 239.525l-24.865-13.462-1.776.904 25.242 13.325 1.399-.767z" fill="#EAD3B3"/><path fill-rule="evenodd" clip-rule="evenodd" d="M470.495 238.707l-24.712-13.474-1.65.832 24.864 13.462 1.498-.82z" fill="#C9B58A"/><path fill-rule="evenodd" clip-rule="evenodd" d="M472.235 237.757l-.011-.015-24.701-13.39-1.738.882 24.708 13.474 1.742-.951z" fill="#DCC7A1"/><path fill-rule="evenodd" clip-rule="evenodd" d="M472.235 237.757l1.509-.828-24.677-13.357-1.544.78 24.701 13.391.011.014z" fill="#EAD3B3"/><path fill-rule="evenodd" clip-rule="evenodd" d="M475.499 235.967l-24.205-13.528-2.229 1.132 24.681 13.361 1.753-.965z" fill="#FFE4BF"/><path fill-rule="evenodd" clip-rule="evenodd" d="M470.817 252.722a1.83 1.83 0 00.461-.098c1.54-.575 2.794-3.275 2.794-6.033 0-1.454-.351-2.632-.903-3.337-.149.011-.309.04-.461.101-1.544.575-2.79 3.272-2.79 6.03 0 1.453.347 2.632.899 3.337z" fill="#E9F1F4"/><path fill-rule="evenodd" clip-rule="evenodd" d="M471.277 252.623c-.16.054-.309.091-.461.098.491.64 1.162.9 1.89.622 1.548-.575 2.794-3.272 2.794-6.038 0-2.469-1.003-4.146-2.329-4.052.553.709.9 1.887.9 3.337 0 2.762-1.25 5.462-2.794 6.033z" fill="#D4E2E6"/><path fill-rule="evenodd" clip-rule="evenodd" d="M472.706 243.356c.156-.065.316-.091.465-.102 1.326-.097 2.329 1.58 2.329 4.053 0 2.762-1.246 5.462-2.794 6.037-.728.278-1.399.018-1.89-.622-.553-.705-.896-1.883-.896-3.336 0-2.759 1.246-5.456 2.786-6.03zm0 11.409c2.032-.763 3.674-4.317 3.674-7.942 0-3.626-1.642-5.951-3.674-5.199-2.027.752-3.67 4.306-3.67 7.935 0 3.626 1.643 5.954 3.67 5.206zm-1.2-14.908l7.348-4.023v-.17l-26.184-13.922-1.375.698 24.205 13.527-1.753.962-1.513.828-1.738.951-1.498.817-1.399.766-1.341.737-25.7-13.144-.004-.003-1.661.845 27.056 14.179 5.557-3.048z" fill="#fff"/><path fill-rule="evenodd" clip-rule="evenodd" d="M472.706 241.622c2.032-.752 3.674 1.577 3.674 5.199 0 3.626-1.642 7.183-3.674 7.946-2.027.748-3.67-1.584-3.67-5.21 0-3.629 1.643-7.179 3.67-7.935zm-6.757 1.28l.007.008.05 21.737 12.798-6.782.05-.025v-22.009l-7.348 4.027-5.557 3.044z" fill="#E9F1F4"/><path fill-rule="evenodd" clip-rule="evenodd" d="M437.954 232.359c2.253 1.225 7.093 4.056 9.044 6.811 3.606 5.093 2.501 9.655 6.701 15.895 3.342 4.974 9.383 8.221 12.306 9.584l-.049-21.738-.008-.007-27.056-14.178.103 1.847.076 1.204-1.117.582z" fill="#fff"/><path fill-rule="evenodd" clip-rule="evenodd" d="M445.834 240.069c3.609 5.097 2.5 9.663 6.7 15.906 4.524 6.731 13.991 10.303 13.991 10.303l15.062-8.568.115-.09a172.6 172.6 0 01-2.847-1.522v1.743l-.054.025.054.043-12.848 6.739c-2.927-1.363-8.964-4.61-12.307-9.584-4.204-6.239-3.095-10.802-6.704-15.895-1.947-2.755-6.788-5.585-9.04-6.811l1.117-.582-.077-1.204-2.694 1.255h-.008l-.32.148v.007a.737.737 0 00-.37.662s7.646 3.788 10.23 7.425z" fill="#FA7564"/><path fill-rule="evenodd" clip-rule="evenodd" d="M481.586 257.71l-15.062 8.568-.266 25.265 15.534-8.452-.206-25.381z" fill="#FF8979"/><path fill-rule="evenodd" clip-rule="evenodd" d="M452.533 255.977c-4.2-6.247-3.091-10.809-6.7-15.906-2.584-3.637-10.226-7.426-10.226-7.426l.412 40.698 30.239 18.202.266-25.265s-9.467-3.576-13.991-10.303z" fill="#FA7564"/><path fill-rule="evenodd" clip-rule="evenodd" d="M427.181 292.989l-45.815 25.07-13.214-5.484c-.419-2.27-.834-4.54-1.257-6.8l14.711 5.835 40.933-21.463-.149-.068c3.385 1.315 4.791 2.91 4.791 2.91z" fill="#3E24BA"/><path fill-rule="evenodd" clip-rule="evenodd" d="M422.54 290.147l-40.933 21.462-14.715-5.834c-.48-2.61-.961-5.21-1.433-7.783 3.396-1.822 7.561-4.075 11.796-6.37-.412 3.383-.648 5.596-.587 5.777 0 0 2.153 4.222 5.442 2.805v.029l.435-.25 18.477-10.613.4-8.944 20.966 9.652.152.069z" fill="#19066F"/><path fill-rule="evenodd" clip-rule="evenodd" d="M422.006 189.36l-1.136 61.607-17.719-8.39.141-3.218s-2.626-.824-6.09-.267l24.609-49.335.195-.397z" fill="#3E24BA"/><path fill-rule="evenodd" clip-rule="evenodd" d="M421.811 189.758l-24.61 49.331c-.327.055-.655.116-.991.192l-22.715-10.758-12.584 6.854-16.762-6.222h-.088a.48.48 0 00-.038-.079c.007-.463.015-.712.015-.712l77.666-38.855c.042.08.076.166.107.249z" fill="#3E24BA"/><path fill-rule="evenodd" clip-rule="evenodd" d="M421.704 189.508l-77.666 38.854s-.007.25-.015.713a205.398 205.398 0 00-1.825-3.887l74.979-38.16s3.521.405 4.527 2.48z" fill="#250F8A"/><path fill-rule="evenodd" clip-rule="evenodd" d="M420.869 250.967l-.118 6.211-17.928-7.519.327-7.082 17.719 8.39z" fill="#3E24BA"/><path fill-rule="evenodd" clip-rule="evenodd" d="M406.424 264.436l-4.329 2.194c-.016-.011-.031-.011-.042-.014l.77-16.959 17.928 7.52-14.327 7.259z" fill="#3E24BA"/><path fill-rule="evenodd" clip-rule="evenodd" d="M411.402 270.726v.224c-.072-.028-.141-.068-.217-.108.076-.036.145-.072.217-.116z" fill="#838E93"/><path fill-rule="evenodd" clip-rule="evenodd" d="M411.402 265.325v5.401a1.887 1.887 0 01-.217.116c-1.452-.665-3.507-1.623-5.721-2.647 2.432-1.232 4.394-2.223 5.747-2.913l.191.043z" fill="#FA7564"/><path fill-rule="evenodd" clip-rule="evenodd" d="M411.402 265.191v.134l-.19-.043c.064-.026.125-.062.19-.091z" fill="#838E93"/><path fill-rule="evenodd" clip-rule="evenodd" d="M406.424 264.436l4.787.845c-1.353.691-3.316 1.681-5.743 2.914a899.48 899.48 0 01-3.373-1.565l4.329-2.194z" fill="#FF8979"/><path fill-rule="evenodd" clip-rule="evenodd" d="M411.186 270.843c-2.012 1.066-5.347 2.83-9.551 5.05l.26-5.889c1.276-.643 2.473-1.254 3.571-1.807 2.214 1.023 4.268 1.977 5.72 2.646z" fill="#FA7564"/><path fill-rule="evenodd" clip-rule="evenodd" d="M403.294 239.36l-.145 3.217-6.936-3.293c.331-.08.659-.141.991-.192 3.464-.56 6.09.268 6.09.268z" fill="#250F8A"/><path fill-rule="evenodd" clip-rule="evenodd" d="M402.051 266.614v.036l-19.758 10.003c.198-13 .45-26.531.45-26.531s1.692-2.48 4.238-5.065c1.654-1.674 3.655-3.391 5.786-4.508a14.975 14.975 0 013.445-1.269l6.94 3.297-.328 7.082-.773 16.955z" fill="#250F8A"/><path fill-rule="evenodd" clip-rule="evenodd" d="M402.093 266.631c1.125.525 2.268 1.056 3.373 1.566-1.097.553-2.294 1.164-3.571 1.807l.157-3.355.041-.018z" fill="#FF8979"/><path fill-rule="evenodd" clip-rule="evenodd" d="M402.093 266.631l-.041.018v-.036c.011.004.026.008.041.018z" fill="#5E6A7E"/><path fill-rule="evenodd" clip-rule="evenodd" d="M401.896 270.003l-.263 5.892-.209 4.53-1.921-.889s-8.21 4.475-17.383 9.446c.045-3.699.106-7.982.175-12.328l19.758-10.006-.157 3.355z" fill="#250F8A"/><path fill-rule="evenodd" clip-rule="evenodd" d="M401.423 280.424l-.404 8.947-18.477 10.61c-.148.087-.293.156-.434.224-.084-.477-.057-5.032.011-11.224a9007.84 9007.84 0 0017.384-9.446l1.92.889z" fill="#250F8A"/><path fill-rule="evenodd" clip-rule="evenodd" d="M373.494 228.521l22.715 10.762a14.81 14.81 0 00-3.441 1.266c-2.131 1.117-4.132 2.834-5.786 4.508l-26.073-9.681 12.585-6.855z" fill="#3E24BA"/><path fill-rule="evenodd" clip-rule="evenodd" d="M349.739 241.464l11.171-6.088 26.073 9.681c-2.546 2.585-4.242 5.065-4.242 5.065s-.465 3.384-1.132 8.351l-19.861 19.59c-.4-2.144-.793-4.226-1.158-6.236a800.025 800.025 0 00-4.654 3.662c-2.836 2.237-5.755 4.522-8.747 6.702a123.748 123.748 0 01-4.177 2.939c.149-7.83.347-18.527.526-28.53.072-4.164.145-8.213.213-11.872l5.988-3.264z" fill="#3E24BA"/><path fill-rule="evenodd" clip-rule="evenodd" d="M382.741 250.12s-.247 13.531-.445 26.535l-3.347 1.695c.911-6.916 1.91-14.363 2.66-19.876.664-4.967 1.132-8.354 1.132-8.354z" fill="#19066F"/><path fill-rule="evenodd" clip-rule="evenodd" d="M382.544 299.982l-.435.25v-.026a9.61 9.61 0 00.435-.224z" fill="#838E93"/><path fill-rule="evenodd" clip-rule="evenodd" d="M378.493 281.847c.148-1.135.301-2.314.457-3.5l3.346-1.695c-.072 4.349-.129 8.629-.175 12.331-1.608.875-3.243 1.76-4.867 2.639l.373-3.026c.256-2.039.549-4.327.866-6.749z" fill="#19066F"/><path fill-rule="evenodd" clip-rule="evenodd" d="M382.12 288.982c-.073 6.192-.096 10.747-.012 11.221-3.285 1.417-5.438-2.805-5.438-2.805-.065-.181.171-2.394.583-5.777 1.623-.879 3.262-1.764 4.867-2.639z" fill="#19066F"/><path fill-rule="evenodd" clip-rule="evenodd" d="M361.748 278.062l19.86-19.59a4283.61 4283.61 0 00-2.656 19.876l-15.676 7.935c-.518-2.82-1.033-5.564-1.528-8.221z" fill="#3E24BA"/><path fill-rule="evenodd" clip-rule="evenodd" d="M363.276 286.284l15.675-7.935c-.156 1.186-.312 2.361-.457 3.496-4.848 2.455-9.821 4.978-14.666 7.429a363.72 363.72 0 00-.552-2.99z" fill="#FF8979"/><path fill-rule="evenodd" clip-rule="evenodd" d="M378.493 281.847c-.317 2.422-.61 4.71-.866 6.749-4.207 2.22-8.487 4.486-12.672 6.699-.374-2.028-.755-4.042-1.128-6.019 4.844-2.451 9.818-4.974 14.666-7.429z" fill="#FA7564"/><path fill-rule="evenodd" clip-rule="evenodd" d="M368.153 312.575l-4.485-1.866-1.498-6.81 4.722 1.876c.427 2.259.842 4.53 1.261 6.8z" fill="#3E24BA"/><path fill-rule="evenodd" clip-rule="evenodd" d="M366.893 305.775l-4.722-1.88-.815-3.705c1.162-.618 2.549-1.363 4.104-2.198.473 2.574.953 5.169 1.433 7.783z" fill="#19066F"/><path fill-rule="evenodd" clip-rule="evenodd" d="M363.828 289.275c.37 1.977.751 3.991 1.128 6.019-1.41.752-2.808 1.486-4.188 2.223l-1.319-6.03c1.441-.726 2.901-1.467 4.379-2.212z" fill="#FA7564"/><path fill-rule="evenodd" clip-rule="evenodd" d="M362.17 303.897l1.498 6.815-9.174-3.803c.32-.12.431-2.759 3.327-4.743l4.349 1.731z" fill="#3E24BA"/><path fill-rule="evenodd" clip-rule="evenodd" d="M363.276 286.284c.186.987.369 1.978.552 2.99-1.478.745-2.938 1.486-4.379 2.212l-.652-2.931 4.479-2.271z" fill="#FF8979"/><path fill-rule="evenodd" clip-rule="evenodd" d="M363.276 286.285l-4.478 2.27-1.361-6.233 4.31-4.258c.496 2.657 1.01 5.401 1.529 8.221z" fill="#3E24BA"/><path fill-rule="evenodd" clip-rule="evenodd" d="M361.355 300.19l.816 3.706-4.349-1.728-.152-.058c.225-.083 1.589-.792 3.685-1.92z" fill="#19066F"/><path fill-rule="evenodd" clip-rule="evenodd" d="M361.748 278.063l-4.311 4.262-1.501-6.836a682.248 682.248 0 014.653-3.662c.366 2.01.759 4.092 1.159 6.236zm-.839-42.686l-11.171 6.088c-1.917-3.919-3.689-7.993-5.675-12.309h.088l16.758 6.221z" fill="#3E24BA"/><path fill-rule="evenodd" clip-rule="evenodd" d="M359.45 291.488l1.318 6.03c-8.224 4.342-15.813 8.358-21.32 11.272-.408-2.216-.819-4.407-1.216-6.554l21.218-10.748z" fill="#FA7564"/><path fill-rule="evenodd" clip-rule="evenodd" d="M358.798 288.554l.652 2.936c-8.244 4.175-15.794 7.996-21.217 10.744a23.409 23.409 0 01-.16-.843c.404-2.14.773-4.113 1.109-5.903.754.524 1.924.983 3.605.835-.004.185-.011.297-.011.344l.263-.127 15.759-7.986z" fill="#FF8979"/><path fill-rule="evenodd" clip-rule="evenodd" d="M357.436 282.323l1.36 6.233-15.759 7.985 14.399-14.218z" fill="#3E24BA"/><path fill-rule="evenodd" clip-rule="evenodd" d="M343.16 286.645a1.572 1.572 0 01-.167-.152c.007-.445.011-.9.019-1.363 1.414-.947 2.801-1.93 4.177-2.939 2.992-2.18 5.911-4.465 8.747-6.702l1.501 6.836-14.399 14.214-.263.127c0-.044.008-.156.012-.34.03-1.114.103-4.754.194-9.801.065.044.122.08.179.12zm6.579-45.181l-5.988 3.264c.13-7.555.233-13.499.271-15.57h.038c1.99 4.313 3.762 8.387 5.679 12.306z" fill="#3E24BA"/><path fill-rule="evenodd" clip-rule="evenodd" d="M344.024 229.076a.48.48 0 01.038.079h-.038v-.079z" fill="#76829B"/><path fill-rule="evenodd" clip-rule="evenodd" d="M344.024 229.076v.079c-.038 2.075-.145 8.015-.271 15.574l-5.088 2.762c.157-11.529.279-20.642.279-20.642l3.254-1.66a189.07 189.07 0 011.826 3.887z" fill="#250F8A"/><path fill-rule="evenodd" clip-rule="evenodd" d="M338.666 247.49l5.084-2.762c-.068 3.658-.141 7.707-.213 11.875-1.01-.491-2.02-.99-3.049-1.467a48.425 48.425 0 00-1.917-.832c.03-2.328.065-4.616.095-6.814z" fill="#250F8A"/><path fill-rule="evenodd" clip-rule="evenodd" d="M343.536 256.602c-.175 10.002-.377 20.699-.522 28.53-.289.198-.587.394-.88.589-1.38-1.291-2.656-2.661-3.949-4.024.111-7.711.256-17.894.385-27.395.645.264 1.285.546 1.917.836 1.03.477 2.04.972 3.049 1.464z" fill="#250F8A"/><path fill-rule="evenodd" clip-rule="evenodd" d="M342.991 286.493c.057.058.111.105.168.152l-.175-.12c.007-.011.007-.021.007-.032z" fill="#818DA2"/><path fill-rule="evenodd" clip-rule="evenodd" d="M343.014 285.13l-.023 1.363a14.76 14.76 0 01-.854-.774c.293-.195.587-.386.877-.589z" fill="#250F8A"/><path fill-rule="evenodd" clip-rule="evenodd" d="M342.991 286.493c0 .011 0 .022-.008.032l-1.036-.683c.065-.04.122-.079.187-.123.282.268.564.532.857.774z" fill="#8E97AA"/><path fill-rule="evenodd" clip-rule="evenodd" d="M340.378 288.699c.142-.802.244-1.485.336-2.057.415-.263.827-.531 1.231-.798.381.245.732.48 1.037.679-.092 5.05-.164 8.691-.195 9.801-1.681.148-2.851-.311-3.605-.836.499-2.733.907-5.021 1.196-6.789zm1.82-63.51l-3.254 1.659s-.122 9.114-.279 20.642l-5.888 3.206c-4.859-7.034-8.236-15.714-12.623-23.476.023-.159.042-.31.061-.466 4.288-10.914 3.484-25.03-.335-35.991 3.556 3.597 14.437 19.872 17.135 24.56a156.087 156.087 0 015.183 9.866zm-.063 60.531c-.065.043-.126.079-.191.123-1.097-.727-2.446-1.595-3.784-2.354.004-.578.011-1.178.023-1.789 1.296 1.363 2.569 2.733 3.952 4.02z" fill="#250F8A"/><path fill-rule="evenodd" clip-rule="evenodd" d="M341.945 285.843c-.404.267-.815.535-1.231.799-.091.571-.198 1.254-.335 2.057-.793-.416-1.532-.973-2.275-1.522.011-1.128.034-2.361.053-3.687 1.338.759 2.687 1.626 3.788 2.353z" fill="#250F8A"/><path fill-rule="evenodd" clip-rule="evenodd" d="M337.985 293.871c.019-.499.034-1.486.057-2.86.019-1.059.035-2.353.061-3.835.743.553 1.483 1.106 2.276 1.522-.29 1.771-.698 4.056-1.201 6.789a4.301 4.301 0 01-.819-.723 3.158 3.158 0 01-.382-.532c.004-.047.008-.162.008-.361zm-5.207-43.175l5.888-3.207c-.03 2.202-.064 4.486-.095 6.814-1.311-.524-2.656-.968-4.044-1.232a41.418 41.418 0 01-1.749-2.375z" fill="#250F8A"/><path fill-rule="evenodd" clip-rule="evenodd" d="M338.357 294.764c.191.217.465.485.824.723-.336 1.79-.702 3.763-1.109 5.904-.382-2.054-.759-4.071-1.125-6.045.442-.126.903-.329 1.41-.582z" fill="#FF8979"/><path fill-rule="evenodd" clip-rule="evenodd" d="M338.231 302.234c.396 2.151.808 4.338 1.216 6.554-.747.394-1.46.77-2.135 1.128-.194-.524-.388-1.03-.575-1.518.408-2.104.789-4.107 1.143-5.99l.351-.174z" fill="#FA7564"/><path fill-rule="evenodd" clip-rule="evenodd" d="M338.071 301.391c.053.278.103.557.16.842-.114.058-.24.123-.351.174.057-.315.115-.622.176-.929.003-.026.011-.055.015-.087z" fill="#A8AEBE"/><path fill-rule="evenodd" clip-rule="evenodd" d="M320.728 279.316c3.804-1.309 7.146-2.877 11.518-3.044 2.249 1.631 4.116 3.518 5.938 5.426-.012.611-.019 1.211-.027 1.79-.019 1.327-.042 2.559-.053 3.691a912.488 912.488 0 00-.061 3.832 29.231 29.231 0 00-2.039-.723 561.588 561.588 0 00-.579-3.095c-.896.702-1.803 1.407-2.718 2.133-.636.506-1.284 1.02-1.932 1.526-.522.415-1.048.831-1.582 1.25-.762-.361-1.521-.697-2.237-1.037-2.702.235-5.397 1.164-8.095 1.627-1.925.332-3.853.419-5.774-.156-.275-1.182-.16-2.769.248-4.446a558.644 558.644 0 013.574-2.816 243.214 243.214 0 013.084-2.379c-.358-.889-.774-1.891-1.197-2.954a42.49 42.49 0 001.932-.625zm12.494 2.335c-1.407-.593-2.619-1.287-4.292-1.265v.022c-.202.781-.621 1.76-1.036 2.349l.053.181c1.612-.463 3.541-1.287 5.275-1.287z" fill="#FFD6BB"/><path fill-rule="evenodd" clip-rule="evenodd" d="M333.796 294.994c1.22.56 2.153.64 3.152.354.366 1.974.739 3.988 1.124 6.045-.004.029-.011.057-.015.086-.061.308-.118.615-.179.929-1.566.799-2.95 1.493-4.112 2.083l-2.485-11.326c.922.52 1.787 1.12 2.515 1.829zm4.247-3.983c-.023 1.374-.038 2.361-.057 2.86a21.185 21.185 0 01-1.563-1.298c-.137-.77-.278-1.536-.419-2.285.716.224 1.429.478 2.039.723z" fill="#FF8979"/><path fill-rule="evenodd" clip-rule="evenodd" d="M337.985 293.871c0 .199-.004.315-.008.362 0 0 .115.22.381.531-.51.253-.968.455-1.41.582-.179-.933-.347-1.858-.526-2.773.519.463 1.033.908 1.563 1.298z" fill="#FFD6BB"/><path fill-rule="evenodd" clip-rule="evenodd" d="M336.738 308.398c.183.488.381.994.576 1.519-.759.397-1.464.78-2.112 1.117l-1.436-6.544c1.162-.589 2.545-1.283 4.112-2.082-.351 1.884-.736 3.886-1.14 5.99z" fill="#FA7564"/><path fill-rule="evenodd" clip-rule="evenodd" d="M332.996 289.543c1.204.925 2.313 2.021 3.426 3.029.179.915.347 1.844.526 2.773-.999.289-1.932.21-3.152-.35-.728-.709-1.593-1.309-2.515-1.83l-.507-2.313c.648-.506 1.296-1.02 1.932-1.529.095.075.198.144.29.22z" fill="#FFD6BB"/><path fill-rule="evenodd" clip-rule="evenodd" d="M336.003 290.288c.141.748.282 1.514.419 2.284-1.112-1.008-2.222-2.104-3.426-3.029.739.09 1.879.376 3.007.745z" fill="#FF8979"/><path fill-rule="evenodd" clip-rule="evenodd" d="M336.003 290.288c-1.128-.369-2.268-.654-3.007-.745-.091-.076-.194-.144-.29-.22.915-.723 1.822-1.428 2.718-2.13.194 1.02.385 2.043.579 3.095z" fill="#FFD6BB"/><path fill-rule="evenodd" clip-rule="evenodd" d="M333.766 304.49l1.437 6.547c-.96.51-1.795.943-2.473 1.308l-.179-.079-.317-6.558-.56-.155c.583-.293 1.281-.655 2.092-1.063z" fill="#FA7564"/><path fill-rule="evenodd" clip-rule="evenodd" d="M331.282 293.165l2.485 11.326c-.812.408-1.513.77-2.093 1.063l-15.012-4.266c1.81-1.189 3.601-2.44 5.374-3.734 2.435-1.779 4.825-3.623 7.157-5.452.701.325 1.407.676 2.089 1.063z" fill="#FF8979"/><path fill-rule="evenodd" clip-rule="evenodd" d="M332.549 312.268l.18.075a1.874 1.874 0 00-.168.094l-.012-.169z" fill="#838E93"/><path fill-rule="evenodd" clip-rule="evenodd" d="M331.675 305.553l.556.155.316 6.558-17.516-7.053c.221-1.301.4-2.375.526-3.203.366-.238.735-.477 1.105-.723l15.013 4.266z" fill="#FA7564"/><path fill-rule="evenodd" clip-rule="evenodd" d="M331.282 293.165a29.088 29.088 0 00-2.089-1.063c.534-.419 1.06-.835 1.582-1.25l.507 2.313z" fill="#FFD6BB"/><path fill-rule="evenodd" clip-rule="evenodd" d="M328.929 280.386c1.674-.022 2.886.676 4.292 1.265-1.734 0-3.663.824-5.275 1.287l-.053-.181c.415-.589.834-1.569 1.036-2.35v-.021zm-15.676 15.494c2.451.036 4.116-1.023 5.61-3.189 2.699-.462 5.393-1.391 8.095-1.626.713.34 1.475.672 2.238 1.037-2.337 1.829-4.726 3.673-7.162 5.452a129.557 129.557 0 01-5.374 3.734l-15.058-4.277c.64-.451 1.277-.911 1.913-1.37a294.55 294.55 0 002.634-1.955.721.721 0 01.091-.051c1.761.604 3.35 1.128 4.707 1.562.873.271 1.65.502 2.302.683.004.007.004 0 .004 0z" fill="#FF8979"/><path fill-rule="evenodd" clip-rule="evenodd" d="M320.682 279.153c.015.051.038.105.046.163-.625.217-1.266.427-1.933.625a15.615 15.615 0 00-.217-.549c.587-.315 1.174-.463 1.765-.38h.007c.118.047.225.091.332.141z" fill="#150E39"/><path fill-rule="evenodd" clip-rule="evenodd" d="M319.878 190.761c3.822 10.961 4.627 25.078.335 35.992-.042.112-.088.224-.13.339a31.005 31.005 0 01-2.728 5.271c-2.882 2.043-6.079 4.147-9.452 6.265 1.616-4.316 2.801-8.907 3.357-11.608 1.144-5.791 1.574-9.334 2.611-16.705.393-2.827-.4-6.984-.762-6.984-.602 0-5.321-1.667-5.526-2.26-.313-.788.205-1.478.415-2.064.309-.987.835-.571.008-1.554-.202-.188-.846-.629-1.727-1.157.964-.673 1.94-1.352 2.961-2.032 2.699-1.883 7.253-4.406 9.239-7.082a48.786 48.786 0 011.399 3.579zm.473 88.251h-.008c-.617-.235-1.372-.426-2.138-.607a58.238 58.238 0 01-.606-1.656c.347.138.667.268.968.387h.004c1.105.456 1.787.973 2.111 2.017a5.78 5.78 0 00-.331-.141z" fill="#19066F"/><path fill-rule="evenodd" clip-rule="evenodd" d="M320.343 279.012c-.591-.079-1.181.065-1.765.38-.125-.322-.247-.658-.377-.987.77.181 1.525.372 2.142.607z" fill="#fff"/><path fill-rule="evenodd" clip-rule="evenodd" d="M320.215 226.752c-.019.156-.038.308-.061.467-.027-.04-.038-.091-.073-.127.046-.115.088-.227.134-.34z" fill="#171043"/><path fill-rule="evenodd" clip-rule="evenodd" d="M320.083 227.092c.03.04.045.087.072.126-1.406 10.643-2.55 22.381-3.495 33.161l-14.685 7.725c-.026-5.755.443-12.547 1.094-18.436.004-.011.004-.026.004-.036.08-.64.149-1.277.236-1.916 0-.055.012-.102.019-.156.054-.152.115-.3.172-.448 1.662-2.014 3.163-5.166 4.406-8.485 3.369-2.118 6.567-4.222 9.452-6.264a31.282 31.282 0 002.725-5.271z" fill="#19066F"/><path fill-rule="evenodd" clip-rule="evenodd" d="M318.797 279.94c.423 1.063.838 2.064 1.193 2.954-1.018.77-2.039 1.565-3.08 2.382a516.8 516.8 0 00-3.575 2.812c.85-3.546 2.958-7.45 5.241-8.694.076.181.148.362.221.546z" fill="#FFD6BB"/><path fill-rule="evenodd" clip-rule="evenodd" d="M318.268 186.701c.069.159.145.315.214.481-1.99 2.675-6.54 5.199-9.243 7.082-1.021.68-1.997 1.359-2.961 2.032-1.57-.933-3.884-2.133-5.69-2.607 1.41-.82 2.504-1.8 2.431-2.733.359-2.44-.064-4.284-.144-6.894 5.29-1.594 13.438.788 15.393 2.639z" fill="#14045D"/><path fill-rule="evenodd" clip-rule="evenodd" d="M318.203 278.405c.126.329.252.665.374.987-2.283 1.247-4.395 5.151-5.241 8.698-.358.282-.716.56-1.079.853-.949.745-1.898 1.493-2.866 2.241-.522-4.703 1.773-11.004 5.794-13.578.884.304 1.974.539 3.018.799z" fill="#fff"/><path fill-rule="evenodd" clip-rule="evenodd" d="M318.203 278.405c-1.044-.261-2.134-.496-3.018-.799a7.522 7.522 0 012.168-.958c.084.032.164.068.244.101.198.56.4 1.113.606 1.656z" fill="#19066F"/><path fill-rule="evenodd" clip-rule="evenodd" d="M317.554 276.601c.011.051.03.098.045.148-.083-.032-.164-.068-.247-.101.064-.018.133-.032.202-.047z" fill="#838E93"/><path fill-rule="evenodd" clip-rule="evenodd" d="M301.603 297.013l15.058 4.277c-.369.242-.739.481-1.105.719-.126.828-.301 1.902-.526 3.207l-14.913-6.001.122-1.255c.457-.311.911-.625 1.364-.947z" fill="#FA7564"/><path fill-rule="evenodd" clip-rule="evenodd" d="M313.701 293.857c-.301-.344-.491-.792-.613-1.32 1.92.575 3.849.488 5.774.156-1.494 2.162-3.16 3.221-5.611 3.188 0 0 0 .007-.003 0-.652-.18-1.43-.415-2.302-.687-.603-.705-1.029-1.594-1.292-2.602 1.238.502 2.629 1.008 4.047 1.265z" fill="#19066F"/><path fill-rule="evenodd" clip-rule="evenodd" d="M315.185 277.607c-4.021 2.574-6.316 8.875-5.794 13.578a287.876 287.876 0 01-3.171 2.44c-.926-.318-1.894-.661-2.904-1.016-.282-5.498-.888-13.299-1.044-21.932 5.835 2.332 11.495 4.544 15.081 5.968a7.643 7.643 0 00-2.168.962z" fill="#250F8A"/><path fill-rule="evenodd" clip-rule="evenodd" d="M313.108 203.329c.362 0 1.158 4.157.762 6.988-1.037 7.371-1.467 10.91-2.607 16.705-.56 2.7-1.742 7.288-3.358 11.608-.484.3-.968.603-1.456.907.446-1.395.786-2.794.923-4.161.572-4.497.796-9.164.507-13.69a65.323 65.323 0 00-.092-1.247c-.415-5.314-1.246-10.422-2.9-15.538-.404-1.37-1.174-3.069-2.199-4.656-.015-.199-.141-.311-.286-.423-.114-.166-.236-.332-.355-.499.183-.133.366-.271.557-.401.389-.282.823-.586 1.261-.907.282-.203.568-.398.843-.608.518-.365 1.044-.741 1.57-1.109.88.524 1.524.965 1.726 1.153.828.983.302.567-.007 1.558-.21.586-.728 1.272-.416 2.06.206.593 4.925 2.26 5.527 2.26z" fill="#0F024C"/><path fill-rule="evenodd" clip-rule="evenodd" d="M313.087 292.536c.122.528.317.98.614 1.32-1.418-.257-2.809-.763-4.044-1.262a9.74 9.74 0 01-.267-1.41 309.22 309.22 0 002.866-2.241c.362-.293.724-.571 1.079-.853-.408 1.674-.522 3.264-.248 4.446z" fill="#fff"/><path fill-rule="evenodd" clip-rule="evenodd" d="M306.241 293.634c-.008 0-.016 0-.019-.01a282.374 282.374 0 003.171-2.441c.057.488.141.958.263 1.41.259 1.005.686 1.894 1.288 2.603a246.605 246.605 0 01-4.703-1.562z" fill="#19066F"/><path fill-rule="evenodd" clip-rule="evenodd" d="M307.88 221.687c.286 4.526.065 9.193-.51 13.69-.134 1.367-.473 2.766-.919 4.157-.389.246-.777.485-1.17.727 2.401-10.173.427-22.728-4.467-32.615.4-.202.816-.34 1.266-.401.083.134.16.271.228.408 2.539 4.483 4.692 8.89 5.572 14.034z" fill="#801833"/><path fill-rule="evenodd" clip-rule="evenodd" d="M306.451 239.536c.484-.304.972-.607 1.452-.907-1.238 3.318-2.74 6.471-4.402 8.484.896-2.31 2.108-4.931 2.95-7.577z" fill="#0F024C"/><path fill-rule="evenodd" clip-rule="evenodd" d="M307.787 220.441c.035.412.065.828.092 1.247-.881-5.144-3.034-9.551-5.569-14.034-.03-.137-.064-.282-.091-.423-.282-1.402-.45-3.213-.819-4.692.263.181.525.351.792.499.538-.973.557-1.876.496-2.791 1.025 1.587 1.795 3.283 2.199 4.653 1.654 5.115 2.485 10.223 2.9 15.541z" fill="#CBE6F3"/><path fill-rule="evenodd" clip-rule="evenodd" d="M305.283 240.26c.392-.239.781-.481 1.17-.723-.847 2.646-2.055 5.267-2.954 7.577-.038.047-.088.101-.13.155.084-.665.179-1.341.286-1.999a29.18 29.18 0 001.628-5.01z" fill="#801833"/><path fill-rule="evenodd" clip-rule="evenodd" d="M306.278 196.297l-1.57 1.113c-.282.206-.561.402-.843.608-.423.3-.842.603-1.261.907-.191.13-.374.267-.557.398-1.444-1.963-3.266-3.608-5.229-4.006 1.144-.343 2.573-.925 3.77-1.63 1.806.477 4.12 1.674 5.69 2.61z" fill="#0F024C"/><path fill-rule="evenodd" clip-rule="evenodd" d="M306.241 293.634c-.031.015-.061.029-.092.051.023-.022.05-.04.073-.061.003.01.011.01.019.01z" fill="#838E93"/><path fill-rule="evenodd" clip-rule="evenodd" d="M306.222 293.624c-.023.022-.05.04-.072.061-1.033.528-1.948 1.002-2.726 1.403-.026-.763-.064-1.587-.11-2.476 1.01.35 1.978.694 2.908 1.012z" fill="#838E93"/><path fill-rule="evenodd" clip-rule="evenodd" d="M300.816 207.647c4.894 9.883 6.868 22.442 4.467 32.611-.275.17-.549.336-.827.51-.366.217-.721.437-1.09.654.011-2.548-.115-5.119-.835-7.505h.004c0-3.929.21-8.372-.065-12.171-.267-4.436-1.867-8.969-3.056-13.09 0-.004.003-.015.015-.019.453-.419.907-.762 1.387-.99z" fill="#9F2542"/><path fill-rule="evenodd" clip-rule="evenodd" d="M304.454 240.769c.279-.174.557-.34.827-.51a29.26 29.26 0 01-1.623 5.01c.228-1.522.491-3.022.796-4.5z" fill="#9F2542"/><path fill-rule="evenodd" clip-rule="evenodd" d="M306.15 293.684c-.873.658-1.75 1.309-2.634 1.956l-.08-.098-.012-.452c.778-.405 1.693-.878 2.726-1.406z" fill="#A8AEBE"/><path fill-rule="evenodd" clip-rule="evenodd" d="M303.367 241.422c.366-.217.724-.438 1.087-.655a86.064 86.064 0 00-.797 4.501 50.293 50.293 0 00-.29 2.003c-.015.029-.045.058-.068.083-.038-1.898.061-3.904.068-5.932z" fill="#9F2542"/><path fill-rule="evenodd" clip-rule="evenodd" d="M303.436 295.541l.08.098c-.636.459-1.273.922-1.913 1.374l-1.235-.344s1.117-.582 3.057-1.58l.011.452z" fill="#A8AEBE"/><path fill-rule="evenodd" clip-rule="evenodd" d="M303.5 247.112c-.058.149-.119.297-.168.449a3.66 3.66 0 01.034-.29c.046-.057.095-.108.134-.159z" fill="#801833"/><path fill-rule="evenodd" clip-rule="evenodd" d="M302.532 233.916c.716 2.386.846 4.956.835 7.505-.286.18-.58.354-.873.527-2.005-6.333-4.109-11.141-9.841-14.304-3.449-1.96-8.225-3.409-11.681-5.242 0 0 1.875-5.795.076-6.554-1.109 0-3.728 1.966-4.97.524a8.319 8.319 0 01-.545-.947 579.427 579.427 0 018.773-5.163c3.408 2.484 6.533 4.667 9.388 8.015 3.731 4.32 6.772 9.692 8.636 15.002.072.21.141.42.202.637z" fill="#0F024C"/><path fill-rule="evenodd" clip-rule="evenodd" d="M303.367 241.421c-.007 2.028-.106 4.035-.068 5.933-.054.054-.103.115-.157.177 0-1.764-.121-3.886-.426-4.877-.077-.235-.145-.47-.221-.705.293-.173.587-.347.872-.528z" fill="#0F024C"/><path fill-rule="evenodd" clip-rule="evenodd" d="M303.367 247.271c-.015.09-.03.191-.038.289-.011.054-.023.101-.023.155-.003-.119-.007-.242-.007-.365a.323.323 0 00.068-.079z" fill="#9F2542"/><path fill-rule="evenodd" clip-rule="evenodd" d="M303.3 247.352c0 .12.004.243.008.365-.088.637-.156 1.273-.236 1.916.042-.513.068-1.268.068-2.1.054-.065.107-.123.16-.181z" fill="#9F2542"/><path fill-rule="evenodd" clip-rule="evenodd" d="M303.142 247.533c0 .831-.027 1.587-.069 2.1 0 .011 0 .025-.003.036-.652 5.889-1.121 12.682-1.098 18.433l-2.649 1.388c-7.123-2.866-14.528-5.965-17.535-7.573-.904-2.032-1.822-4.324-2.76-6.771 7.364-3.923 15.68-8.517 23.466-13.199.076.239.145.474.221.705.305.994.427 3.116.427 4.881z" fill="#19066F"/><path fill-rule="evenodd" clip-rule="evenodd" d="M302.874 184.061c.08 2.613.503 4.453.145 6.893.072.933-1.018 1.916-2.432 2.733-1.196.702-2.626 1.287-3.769 1.631a10.23 10.23 0 01-.846.224 5.687 5.687 0 01-.686.105c-1.147.087-5.553-.665-9.787-1.92.354-2.339-.324-4.074-.05-7.158.122-1.955.556-3.398.069-5.086-.793-2.787-1.323-2.82-.534-5.177 0 0-.438-2.19-1.479-4.721 6.316-.582 13.828-4.128 16.892-8.918a41.912 41.912 0 011.871 6.623c-.754 2.845-.225 2.888.621 6.286.027.112.05.224.077.325.392 1.927.022 3.615-.058 5.853-.049.85-.053 1.609-.034 2.307z" fill="#FFD6BB"/><path fill-rule="evenodd" clip-rule="evenodd" d="M302.547 163.32s1.391 7.093.419 12.581c-.027-.102-.05-.214-.076-.322-.846-3.402-1.376-3.445-.621-6.29 0 0-.572-3.189-1.872-6.623-3.064 4.793-10.576 8.336-16.891 8.918-.755.076-1.49.101-2.203.08.095 1.894-.374 3.409-.694 5.473-.339 2.295-1.65 4.038-.522 8.857v.003a44.659 44.659 0 01-3.251-1.988c-.431-1.883-.819-3.828-1.155-4.909-1.09-.879-4.291-.148-3.22 2.35.842 1.945 1.688 6.377 3.822 6.68.069.785.134 1.573.195 2.364l-.176.015c-.728-.474-1.265-.307-2.149-.904-.316-1.066-.82-2.039-1.441-3.069l-.179.101c-3.575-5.26-6.487-10.375-9.681-16.578-2.618-5.054 1.243-11.67 6.396-15.78l.065.076c10.431-8.34 32.148-4.562 33.234 8.965z" fill="#000"/><path fill-rule="evenodd" clip-rule="evenodd" d="M302.688 200.247c.061.915.042 1.818-.495 2.787a9.043 9.043 0 01-.793-.495c-.648-.452-1.288-.958-1.967-1.377.877-.601 1.746-1.222 2.615-1.84.007.249.19.368.354.502.103.141.202.278.286.423z" fill="#E8F6FD"/><path fill-rule="evenodd" clip-rule="evenodd" d="M302.471 221.747c.274 3.799.064 8.239.064 12.168h-.003c-.061-.213-.13-.426-.202-.636-1.864-5.307-4.906-10.683-8.637-15.003-2.854-3.347-5.98-5.531-9.387-8.014 1.227-.709 2.462-1.417 3.689-2.129 2.154.43 4.437.625 5.595-.08l.031.004c.133-1.016.415-2.133.758-3.254 1.361 1.457 3.198 2.954 5.023 3.825 0 .007.004.018.012.029 1.189 4.121 2.79 8.651 3.057 13.09z" fill="#CBE6F3"/><path fill-rule="evenodd" clip-rule="evenodd" d="M302.403 199.823c-.163-.133-.346-.253-.358-.502.122.166.24.336.358.502z" fill="#E8F6FD"/><path fill-rule="evenodd" clip-rule="evenodd" d="M302.271 270.677c.157 8.633.766 16.434 1.045 21.932-8.545-3.029-19.758-7.349-27.659-10.798l23.062-12.566c1.182.481 2.371.955 3.552 1.432z" fill="#250F8A"/><path fill-rule="evenodd" clip-rule="evenodd" d="M302.219 207.23a3.92 3.92 0 00-1.403.416 43.582 43.582 0 00-3.102-5.318c.579-.38 1.147-.77 1.719-1.168.678.423 1.319.926 1.967 1.378.369 1.478.537 3.289.819 4.692z" fill="#6B0F26"/><path fill-rule="evenodd" clip-rule="evenodd" d="M300.367 296.667l1.235.347c-.449.322-.907.633-1.364.944l.129-1.291z" fill="#687589"/><path fill-rule="evenodd" clip-rule="evenodd" d="M302.046 199.322c-.869.618-1.734 1.24-2.615 1.84-.888-.542-1.84-.922-2.938-.777l-.099.007c-.031-.376-.061-.759-.095-1.139.049-.231.034-.47-.054-.716-.076-.932-.156-1.887-.232-2.841l-.042-.155c.259-.058.541-.127.846-.221 1.963.394 3.788 2.039 5.229 4.002z" fill="#E8F6FD"/><path fill-rule="evenodd" clip-rule="evenodd" d="M300.816 207.647c-.48.228-.934.571-1.387.99-.012-.003-.015-.007-.027-.011-1.825-.871-3.663-2.367-5.019-3.824.042-.152.091-.311.141-.463a59.742 59.742 0 003.19-2.014 43.667 43.667 0 013.102 5.322z" fill="#891B38"/><path fill-rule="evenodd" clip-rule="evenodd" d="M292.654 227.642c5.728 3.163 7.836 7.971 9.841 14.305-7.787 4.681-16.103 9.276-23.466 13.198-3.682-9.522-7.68-21.375-11.796-29.6a19.728 19.728 0 00-2.508-3.644c3.834-2.031 7.093-4.294 10.805-6.478h.004c.175.355.358.676.541.951 1.246 1.439 3.865-.528 4.974-.528 1.799.759-.077 6.558-.077 6.558 3.457 1.833 8.233 3.279 11.682 5.238z" fill="#19066F"/><path fill-rule="evenodd" clip-rule="evenodd" d="M281.789 261.918c3.008 1.606 9.811 4.461 16.93 7.325l-23.062 12.569c-.469-.213-.934-.412-1.379-.611-.054-2.299-.115-4.49-.275-6.503-.377-4.284-.587-8.825-.899-13.383h.003c.05-1.059.088-2.09.107-3.106a709.318 709.318 0 005.812-3.062c.938 2.448 1.86 4.74 2.763 6.771z" fill="#250F8A"/><path fill-rule="evenodd" clip-rule="evenodd" d="M299.431 201.161c-.567.394-1.135.788-1.718 1.164a31.998 31.998 0 00-1.312-1.789c-.003-.051-.003-.094-.007-.145l.099-.007c1.098-.145 2.05.239 2.938.777z" fill="#6B0F26"/><path fill-rule="evenodd" clip-rule="evenodd" d="M296.402 200.537a31.75 31.75 0 011.311 1.789 62.654 62.654 0 01-3.19 2.014 38.016 38.016 0 011.555-3.955l.13-.098c.068.083.133.166.194.25z" fill="#891B38"/><path fill-rule="evenodd" clip-rule="evenodd" d="M296.392 200.392c.004.051.004.094.008.145a4.739 4.739 0 00-.191-.25l-.133.098a38.035 38.035 0 00-1.551 3.955c-.118.068-.24.144-.37.213a689.109 689.109 0 01-6.159 3.582c-1.711-.332-3.335-.806-4.249-1.066-1.959-.564-4.113-1.392-5.744-2.588-1.566-2.13-2.5-4.592-1.307-6.855l.057-.021c.099.206.213.401.343.593 3.941 6.022 18.527 4.446 19.205 1.059.03.376.065.759.091 1.135z" fill="#E8F6FD"/><path fill-rule="evenodd" clip-rule="evenodd" d="M296.244 198.539c.023.238.038.48.057.715-.678 3.391-15.264 4.964-19.205-1.059-.13-1.59-.259-3.195-.385-4.79-.065-.828-.133-1.655-.198-2.472-.012-.152-.023-.3-.038-.441a223.26 223.26 0 00-.191-2.361c.435.061.923-.054 1.471-.387.503 1.269 1.372 2.957 3.183 4.331 1.372.615 2.957 1.168 4.562 1.652 4.234 1.258 8.636 2.006 9.787 1.92.187-.011.423-.051.686-.105l.042.155c.072.955.153 1.909.229 2.842z" fill="#FFD6BB"/><path fill-rule="evenodd" clip-rule="evenodd" d="M294.156 204.554c.076.087.144.166.224.246-.346 1.124-.625 2.238-.762 3.257l-.026-.003c-1.159.704-3.442.506-5.595.079 2.073-1.196 4.139-2.386 6.159-3.579z" fill="#E8F6FD"/><path fill-rule="evenodd" clip-rule="evenodd" d="M287.996 208.134l-3.69 2.129c-.792-.586-1.604-1.186-2.427-1.818-1.231-1.002-2.729-2.397-3.876-3.966 1.631 1.197 3.788 2.028 5.743 2.588.915.261 2.538.734 4.25 1.067z" fill="#CBE6F3"/><path fill-rule="evenodd" clip-rule="evenodd" d="M285.519 181.484c.484 1.688.053 3.13-.069 5.086-.274 3.084.404 4.819.05 7.158-1.605-.485-3.19-1.038-4.562-1.652-1.811-1.374-2.68-3.062-3.183-4.335.038-.021.08-.047.122-.076-.366-.925-.716-2.27-1.04-3.658 1.025.701 2.13 1.359 3.251 1.992v-.004c-1.128-4.819.183-6.561.522-8.857.32-2.064.789-3.578.694-5.476a16.96 16.96 0 002.202-.076 28.605 28.605 0 011.479 4.721c-.789 2.357-.259 2.389.534 5.177z" fill="#FFD6BB"/><path fill-rule="evenodd" clip-rule="evenodd" d="M281.877 208.445c.827.632 1.635 1.232 2.431 1.818a556.04 556.04 0 00-8.777 5.162c-.732-1.471-1.387-3.441-1.948-4.815-1.154-2.693-3.872-9.128-2.786-12.432.229-.192.469-.383.698-.571a729.047 729.047 0 015.214-4.201c.129 1.594.255 3.199.388 4.79a3.976 3.976 0 01-.343-.589l-.061.021c-1.192 2.263-.255 4.722 1.308 6.851 1.151 1.569 2.649 2.964 3.876 3.966z" fill="#0F024C"/><path fill-rule="evenodd" clip-rule="evenodd" d="M277.878 187.665a1.472 1.472 0 01-.122.076c-.549.336-1.037.452-1.471.391-2.139-.304-2.985-4.74-3.823-6.685-1.071-2.494 2.127-3.224 3.217-2.346.335 1.081.724 3.026 1.158 4.906.324 1.388.675 2.733 1.041 3.658z" fill="#FFD6BB"/><path fill-rule="evenodd" clip-rule="evenodd" d="M276.514 190.931c.064.821.133 1.645.194 2.476a632.862 632.862 0 00-5.214 4.201c1.456-2.429 3.167-4.873 5.02-6.677z" fill="#4A4573"/><path fill-rule="evenodd" clip-rule="evenodd" d="M275.658 281.811l-1.35.734c-.015-.452-.022-.9-.03-1.345.442.199.907.398 1.38.611z" fill="#1C1749"/><path fill-rule="evenodd" clip-rule="evenodd" d="M275.533 215.424h-.004c-3.712 2.183-6.971 4.443-10.805 6.478-2.622-3.066-6.471-5.669-11.037-5.296-.099.007-.202.014-.301.032-1.841-.18-3.423.496-4.257 2.621l-.092-.036c.389-1.03.911-1.92 1.567-2.635l-.18-.159c5.965-6.225 13.351-12.53 20.375-18.253-1.086 3.308 1.632 9.743 2.786 12.432.561 1.374 1.212 3.348 1.948 4.816z" fill="#14045D"/><path fill-rule="evenodd" clip-rule="evenodd" d="M267.233 225.546c4.116 8.224 8.114 20.078 11.796 29.6-2.02 1.07-3.971 2.107-5.816 3.062.278-15.263-3.335-25.356-10.401-35.345.107-.047.206-.097.301-.144.553-.268 1.09-.542 1.612-.817a19.613 19.613 0 012.508 3.644z" fill="#250F8A"/><path fill-rule="evenodd" clip-rule="evenodd" d="M274.308 282.546l-17.935 9.764c.842-4.179 1.463-8.228 1.463-13.676 0-6.293-5.176-21.871-6.14-28.967l.046-.011c-1.147-4.334-2.39-9.619-3.129-14.746 3.441 11.052 14.124 36.787 17.76 41.523l-.388.22c.465.814 3.681 2.491 8.293 4.548.008.445.015.893.03 1.345z" fill="#14045D"/><path fill-rule="evenodd" clip-rule="evenodd" d="M266.373 276.431c-3.636-4.735-14.319-30.471-17.76-41.518-.05-.336-.095-.669-.137-.998-.683-5.144-.812-10.053.213-13.629 1.243-2.129 3.015-3.416 4.696-3.647 3.357.325 7.569 3.506 9.73 6.08-.096.047-.198.098-.301.145 7.066 9.985 10.675 20.081 10.401 35.344a8.196 8.196 0 00-.321.174c.077.972.149 1.955.21 2.931.313 4.559.522 9.099.899 13.387.157 2.01.222 4.204.275 6.5-4.612-2.057-7.825-3.735-8.293-4.544l.388-.225z" fill="#250F8A"/><path fill-rule="evenodd" clip-rule="evenodd" d="M272.894 258.381a8.92 8.92 0 01.32-.173 109.39 109.39 0 01-.107 3.108h-.003c-.058-.979-.13-1.959-.21-2.935z" fill="#150E39"/><path fill-rule="evenodd" clip-rule="evenodd" d="M264.725 221.902c-.523.275-1.06.546-1.609.817-2.161-2.574-6.376-5.755-9.73-6.081.099-.018.202-.025.301-.032 4.566-.372 8.415 2.23 11.038 5.296zm-15.595-2.644c.834-2.126 2.412-2.798 4.257-2.621-1.681.235-3.457 1.518-4.699 3.648.106-.365.221-.72.35-1.063l.092.036zm-.442 1.028c-1.025 3.575-.891 8.488-.213 13.632-2.26-5.842-1.57-10.592.213-13.632z" fill="#250F8A"/><rect opacity=".5" width="122.146" height="14.872" rx="7.436" transform="matrix(.87705 -.4804 .51986 .85425 464.907 138.015)" fill="url(#paint0_linear)"/><rect opacity=".5" width="122.146" height="14.872" rx="7.436" transform="matrix(.87705 -.4804 .51986 .85425 418.52 503.78)" fill="url(#paint1_linear)"/><rect opacity=".5" width="122.146" height="14.872" rx="7.436" transform="matrix(.87705 -.4804 .51986 .85425 336.053 173.222)" fill="url(#paint2_linear)"/><rect opacity=".5" width="62.003" height="12.295" rx="6.147" transform="matrix(.87705 -.4804 .51986 .85425 158.749 466.085)" fill="url(#paint3_linear)"/><rect opacity=".5" width="101.788" height="20.184" rx="10.092" transform="matrix(.87705 -.4804 .51986 .85425 0 261.241)" fill="url(#paint4_linear)"/><defs><linearGradient id="paint0_linear" x1="122.146" y1="0" x2="0" y2="0" gradientUnits="userSpaceOnUse"><stop stop-color="#fff" stop-opacity=".01"/><stop offset="1" stop-color="#06CCE2"/><stop offset="1" stop-color="#fff"/></linearGradient><linearGradient id="paint1_linear" x1="122.146" y1="0" x2="0" y2="0" gradientUnits="userSpaceOnUse"><stop stop-color="#fff" stop-opacity=".01"/><stop offset="1" stop-color="#FA7564"/><stop offset="1" stop-color="#fff"/></linearGradient><linearGradient id="paint2_linear" x1="122.146" y1="0" x2="0" y2="0" gradientUnits="userSpaceOnUse"><stop stop-color="#fff" stop-opacity=".01"/><stop offset="1" stop-color="#fff"/><stop offset="1" stop-color="#fff"/></linearGradient><linearGradient id="paint3_linear" x1="62.003" y1="0" x2="0" y2="0" gradientUnits="userSpaceOnUse"><stop stop-color="#fff" stop-opacity=".01"/><stop offset="1" stop-color="#fff"/><stop offset="1" stop-color="#fff"/></linearGradient><linearGradient id="paint4_linear" x1="101.788" y1="0" x2="0" y2="0" gradientUnits="userSpaceOnUse"><stop stop-color="#fff" stop-opacity=".01"/><stop offset="1" stop-color="#644BD9"/><stop offset="1" stop-color="#fff"/></linearGradient></defs></svg>