<svg width="100" height="100" fill="none" xmlns="http://www.w3.org/2000/svg"><path fill-rule="evenodd" clip-rule="evenodd" d="M55.99 28.398c-1.302-.654-2.913-.847-4.714-.52-1.11.203-2.294.604-3.521 1.216a19.032 19.032 0 00-3.376 2.185l4.337 2.179a19.001 19.001 0 013.374-2.184c1.227-.613 2.41-1.014 3.521-1.216 1.8-.328 3.412-.135 4.714.519l-4.335-2.18z" fill="#F0A72E"/><mask id="a" maskUnits="userSpaceOnUse" x="3" y="25" width="42" height="47"><path fill-rule="evenodd" clip-rule="evenodd" d="M3 25h41.97v46.572H3V25z" fill="#fff"/></mask><g mask="url(#a)"><path fill-rule="evenodd" clip-rule="evenodd" d="M40.634 25.78c-1.504-.756-3.367-.978-5.449-.599-1.285.234-2.654.698-4.075 1.407-2.363 1.181-4.582 2.897-6.506 4.925-3.54 3.734-6.083 8.526-6.698 12.988-1.063.207-2.201.6-3.37 1.184-2.037 1.017-3.95 2.494-5.607 4.241C5.377 53.666 2.987 58.64 3 62.968c.012 3.157 1.299 5.38 3.376 6.424l4.335 2.18c-2.078-1.045-3.365-3.268-3.375-6.425-.015-4.329 2.377-9.302 5.928-13.042 1.659-1.747 3.57-3.224 5.609-4.24 1.166-.585 2.306-.978 3.367-1.185.616-4.462 3.16-9.254 6.7-12.987 1.924-2.03 4.142-3.745 6.507-4.926 1.419-.71 2.788-1.173 4.073-1.407 2.083-.38 3.945-.157 5.45.6l-4.335-2.18z" fill="#F0A72E"/></g><path fill-rule="evenodd" clip-rule="evenodd" d="M35.445 28.768c6.705-3.35 12.276-1.226 13.27 4.69a18.994 18.994 0 013.375-2.184c6.39-3.192 11.59-.628 11.611 5.723.021 6.352-5.146 14.092-11.537 17.284l-33.218 16.59c-6.4 3.196-11.591.629-11.612-5.724-.02-6.352 5.136-14.087 11.536-17.283 1.17-.583 2.308-.977 3.369-1.184.95-6.887 6.491-14.56 13.206-17.912" fill="#FFCA00"/><path fill-rule="evenodd" clip-rule="evenodd" d="M89.847 31.517c-1.302-.654-2.913-.847-4.713-.52-1.112.203-2.294.605-3.523 1.216a19.004 19.004 0 00-3.374 2.185l4.335 2.179a18.903 18.903 0 013.376-2.184c1.226-.614 2.41-1.014 3.52-1.216 1.801-.328 3.411-.135 4.713.519l-4.334-2.18zm-15.361-2.624c-1.505-.757-3.368-.98-5.45-.6-1.285.233-2.651.697-4.07 1.405-2.355 1.177-4.567 2.888-6.488 4.913-3.543 3.736-6.09 8.538-6.707 13.004-1.072.212-2.201.6-3.378 1.189-2.035 1.016-3.945 2.493-5.602 4.239-3.552 3.74-5.948 8.715-5.934 13.044.01 3.156 1.3 5.376 3.376 6.421l4.335 2.178c-2.078-1.044-3.367-3.264-3.377-6.42-.014-4.33 2.383-9.305 5.933-13.044 1.66-1.747 3.569-3.223 5.603-4.24 1.18-.587 2.308-.976 3.379-1.188.617-4.467 3.164-9.267 6.707-13.004 1.92-2.025 4.133-3.736 6.489-4.914 1.416-.707 2.784-1.17 4.068-1.405 2.083-.378 3.945-.156 5.45.6l-4.334-2.178z" fill="#D43E3E"/><path fill-rule="evenodd" clip-rule="evenodd" d="M69.301 31.876c6.705-3.347 12.278-1.215 13.27 4.7a18.96 18.96 0 013.376-2.183c6.39-3.192 11.59-.628 11.61 5.723.021 6.352-5.145 14.092-11.535 17.284l-33.22 16.59c-6.39 3.192-11.59.628-11.61-5.724-.02-6.352 5.145-14.092 11.535-17.284 1.179-.587 2.308-.976 3.379-1.189.95-6.886 6.49-14.568 13.195-17.917" fill="#FA7564"/></svg>