<svg width="1920" height="793" fill="none" xmlns="http://www.w3.org/2000/svg"><path fill-rule="evenodd" clip-rule="evenodd" d="M0 0h1920v772.078s-371.78-91.167-571.26-82.729c-396.574 16.773-440.564 88.166-789.761 99.093C238.062 798.483 0 715.219 0 715.219V0z" fill="url(#paint0_linear)"/><rect opacity=".1" width="983.896" height="143.129" rx="71.564" transform="matrix(.8822 -.47087 .52971 .84818 684.481 558.619)" fill="#fff"/><rect opacity=".5" width="89.311" height="10.735" rx="5.367" transform="matrix(.8822 -.47087 .52971 .84818 865.583 392.25)" fill="url(#paint1_linear)"/><rect opacity=".5" width="74.426" height="14.569" rx="7.284" transform="matrix(.8822 -.47087 .52971 .84818 712.677 500.44)" fill="url(#paint2_linear)"/><rect width="74.426" height="14.569" rx="7.284" transform="matrix(.8822 -.47087 .52971 .84818 1008.36 691.083)" fill="url(#paint3_linear)"/><rect opacity=".05" width="731.191" height="143.129" rx="71.564" transform="matrix(.8822 -.47087 .52971 .84818 90.98 344.293)" fill="#fff"/><rect opacity=".1" width="882.969" height="143.129" rx="71.564" transform="matrix(.8822 -.47087 .52971 .84818 1065.22 612.736)" fill="#fff"/><rect opacity=".05" width="731.191" height="143.129" rx="71.564" transform="matrix(.8822 -.47087 .52971 .84818 849.147 599.419)" fill="#fff"/><path opacity=".1" fill-rule="evenodd" clip-rule="evenodd" d="M0 674.262c112.555.799 183.496 23.436 362.134 51.644 178.639 28.209 579.457 19.672 579.457 19.672S402.569 840.642 0 738.889" fill="#fff"/><path opacity=".1" fill-rule="evenodd" clip-rule="evenodd" d="M124.682 765.17s330.428-41.981 554.029-50.96c223.6-8.979 537.379 8.184 537.379 8.184s-89.27 1.355-449.848 48.408c-360.581 47.053-641.56-5.632-641.56-5.632z" fill="#fff"/><path opacity=".2" fill-rule="evenodd" clip-rule="evenodd" d="M1297.91 718.697c105.37-19.288 289.54-29.415 488.19-9.924v68.98s-312.72-54.508-488.19-59.056z" fill="#fff"/><defs><linearGradient id="paint0_linear" x1="-945.879" y1="394.761" x2="-384.564" y2="1739.72" gradientUnits="userSpaceOnUse"><stop stop-color="#250E8A"/><stop offset="1" stop-color="#00F9F7"/></linearGradient><linearGradient id="paint1_linear" x1="89.311" y1="0" x2="0" y2="0" gradientUnits="userSpaceOnUse"><stop stop-color="#fff" stop-opacity=".01"/><stop offset="1" stop-color="#06CCE2"/><stop offset="1" stop-color="#fff"/></linearGradient><linearGradient id="paint2_linear" x1="74.426" y1="0" x2="0" y2="0" gradientUnits="userSpaceOnUse"><stop stop-color="#fff" stop-opacity=".01"/><stop offset="1" stop-color="#06CCE2"/><stop offset="1" stop-color="#fff"/></linearGradient><linearGradient id="paint3_linear" x1="74.426" y1="0" x2="0" y2="0" gradientUnits="userSpaceOnUse"><stop stop-color="#fff" stop-opacity=".01"/><stop offset="1" stop-color="#06CCE2"/><stop offset="1" stop-color="#fff"/></linearGradient></defs></svg>