<svg width="517" height="303" fill="none" xmlns="http://www.w3.org/2000/svg"><path fill-rule="evenodd" clip-rule="evenodd" d="M328.389 298.853H3.655c-2.018 0-3.655-1.501-3.655-3.351 0-1.851 1.637-3.351 3.655-3.351H328.39c2.018 0 3.655 1.5 3.655 3.351 0 1.85-1.637 3.351-3.655 3.351zm184.046 0H351.379c-2.016 0-3.651-1.501-3.651-3.351 0-1.851 1.635-3.351 3.651-3.351h161.056c2.017 0 3.651 1.5 3.651 3.351 0 1.85-1.634 3.351-3.651 3.351z" fill="#FFCA00"/><path fill-rule="evenodd" clip-rule="evenodd" d="M367.138.593h-24.499c-16.87 0-30.545 11.931-30.545 26.557 0 11.63 8.648 21.576 20.67 25.136v7.398l7.691-5.974c.721.043 1.448.15 2.184.15h24.499c16.867 0 30.544-12.008 30.544-26.634 0-14.626-13.677-26.633-30.544-26.633z" fill="#fff"/><path fill-rule="evenodd" clip-rule="evenodd" d="M306.907 104.764l9.323-14.02 12.29 4.791v33.751c0 2.64-1.578 5.095-4.177 6.494-5.917 3.189-17.436-.479-17.436-6.494v-24.522z" fill="#FFCA00"/><path fill-rule="evenodd" clip-rule="evenodd" d="M252.693 286.2l-3.71 6.818h23.343c-.716-2.548-3.465-4.191-6.349-3.794l-2.799.385c-1.951 0-3.274-1.787-2.524-3.409h-7.961zm27.665 0l-3.71 6.818h23.342c-.715-2.548-3.463-4.191-6.349-3.794l-2.797.385c-1.95 0-3.273-1.787-2.525-3.409h-7.961z" fill="#fff"/><path fill-rule="evenodd" clip-rule="evenodd" d="M337.25 95.967c2.231-5.022-.39-12.596-7.067-16.735-6.44-3.992-15.106-3.821-21.334.421l-1.027.7c-4.058 2.763-6.562 6.92-6.873 11.412l-.386 14.477-6.624 3.142 5.605 16.967 5.603-6.246 8.95-9.693 7.336 1.913c4.57 1.416 9.598-.65 11.282-4.631l.025-.063 1.404-3.318 3.106-8.346z" fill="#FBEFE1"/><path fill-rule="evenodd" clip-rule="evenodd" d="M339.018 91.082l.712-.21c.568-9.207-7.355-17.193-18.061-18.203-12.102-1.14-22.674 7.018-22.542 17.44.043 3.463 1.129 12.757 1.129 12.757l11.375-12.12 1.255.368c8.472 2.48 17.668 2.47 26.132-.032z" fill="#FFCA00"/><path fill-rule="evenodd" clip-rule="evenodd" d="M253.292 286.957l-2.983-22.44c-1.213-8.277-.897-24.086.937-32.274l2.114-9.447-3.968-23.405c-1.072-6.323-.025-12.785 3.014-18.596l3.556-8.99h40.426l-.349 1.719c-1.577 7.77-1.351 17.926.667 25.617l6.112 20.255c.803 2.659.839 5.449.107 8.123l-14.107 59.438h-7.939l-.597-21.898c-.533-14.352 6.061-40.546 6.061-40.546l-12.319-26.793-12.793 89.237h-7.939z" fill="#FA7564"/><path fill-rule="evenodd" clip-rule="evenodd" d="M277.31 171.805h18.878l-.358 1.719c-1.623 7.77-1.39 17.926.685 25.617l6.285 20.255c.826 2.659.863 5.449.11 8.123l-14.507 59.438h-8.163l-.614-21.899c-.548-14.351 6.232-40.545 6.232-40.545L273.19 197.72l4.12-25.915z" fill="#FD8778"/><path fill-rule="evenodd" clip-rule="evenodd" d="M334.875 122.318l-13.046 24.037-3.034-23.933-10.102-6.53-3.997 4.492-11.19-10.534h-16.418v-.166c-15.275 15.703-22.572 35.824-21.992 56.511l-.061 5.335h28.473l20.949 15.427 7.759-6.055-13.406-17.582 5.886-13.672 5.817-6.507 8.579 21.31 14.123-2.601 11.731-37.312-10.071-2.22z" fill="#1E389D"/><path fill-rule="evenodd" clip-rule="evenodd" d="M345.26 124.078c1.574-1.123 2.815-2.591 3.614-4.27l1.126-2.373c.46-1.68-.304-3.441-1.896-4.365l-4.866-2.83 2.039-6.131c.299-.901-.338-1.839-1.351-1.982-.712-.102-1.413.224-1.746.811l-4.011 7.052-.396.577a13.428 13.428 0 00-1.787 3.725 12.945 12.945 0 00-.482 5.061l.263 2.522 9.493 2.203z" fill="#FBEFE1"/><path fill-rule="evenodd" clip-rule="evenodd" d="M475.815 282.297h-25.872v-43.368h24.395l7.783-62.019c1.592-9.533-3.604-18.999-13.128-23.851-8.449-4.304-19.186-4.304-27.611.037l-13.887 6.986v61.182l-19.439 17.665h32.435v43.368h-25.844c-3.541 0-6.409 2.429-6.409 5.522 0 3.094 2.868 5.779 6.409 5.779 3.416 0 6.201-3.04 6.391-5.105h17.801c.191 2.065 2.975 5.282 6.391 5.282 3.418 0 6.202-3.217 6.391-5.282h17.803c.191 2.065 2.974 5.065 6.391 5.065 3.54 0 6.41-2.536 6.41-5.63s-2.87-5.631-6.41-5.631z" fill="#000"/><path fill-rule="evenodd" clip-rule="evenodd" d="M402.618 286.2l3.709 6.818h-23.342c.715-2.548 3.463-4.191 6.348-3.794l2.799.385c1.95 0 3.273-1.787 2.525-3.409h7.961z" fill="#fff"/><path fill-rule="evenodd" clip-rule="evenodd" d="M381.004 286.2l3.71 6.818h-23.342c.716-2.548 3.463-4.191 6.349-3.794l2.798.385c1.949 0 3.272-1.787 2.524-3.409h7.961z" fill="#fff"/><path fill-rule="evenodd" clip-rule="evenodd" d="M383.947 287.715l13.169-49.426 25.39-11.175h15.41l12.502-16.672-31.4 3.03-33.195 11.143c-3.47 1.165-5.976 3.831-6.593 7.018l-10.078 56.082h14.795z" fill="#1E389D"/><path fill-rule="evenodd" clip-rule="evenodd" d="M428.413 213.702l-26.516 12.1c-3.152 1.44-5.255 4.16-5.592 7.237l-5.539 54.676h13.832l12.133-53.783 33.808-6.817c9.005 0 16.305-6.334 16.305-14.147v-2.526l-38.431 3.26z" fill="#212293"/><path fill-rule="evenodd" clip-rule="evenodd" d="M427.184 153.884h26.07c6.797 0 13.067 3.226 16.42 8.446l17.054 22.343v34.86h-12.104v-30.535l-8.645-8.143v32.571h-46.683l3.946-41.522-18.722 15.377c-4.079 3.676-11.036 2.753-13.712-1.819l-16.468-28.128 8.215-4.468 14.55 20.864 16.647-14.889c3.546-3.171 8.383-4.957 13.432-4.957z" fill="#FA7564"/><path fill-rule="evenodd" clip-rule="evenodd" d="M420.395 125.52c-.101-5.477 5.301-11.892 13.117-13.777 7.538-1.818 15.51 1.022 19.622 6.991l.678.985c2.68 3.889 3.371 8.628 1.899 13.007l-5.161 13.715-.358 8.132-8.871 2.838-6.008-2.838.341-8.76-6.845-.018c-4.796-.061-8.647-3.583-8.647-7.9v-.068l-.003-5.815.236-6.492z" fill="#FBEFE1"/><path fill-rule="evenodd" clip-rule="evenodd" d="M443.502 146.805v-13.636h-23.343l.002 4.063v.065c0 4.084 3.873 7.417 8.698 7.475l6.886.017-.083 2.016h7.84z" fill="#000"/><path fill-rule="evenodd" clip-rule="evenodd" d="M445.442 122.554s-21.759.295-27.012-9.486c0 0 13.029-7.846 26.919-5.057 11.835 2.583 18.453 13.615 14.097 23.57-1.447 3.307-3.937 8.857-6.716 12.951v-12.205l-7.11-1.168-1.131 2.685h-3.337l4.29-11.29z" fill="#000"/><path fill-rule="evenodd" clip-rule="evenodd" d="M474.624 235.442c-.956 0-1.729-.743-1.729-1.66v-7.277l3.458-2.427v9.704c0 .917-.774 1.66-1.729 1.66zm3.513.757c-.918 0-1.665-.689-1.675-1.545l-.108-10.576h3.349l.109 10.546c.008.867-.743 1.575-1.675 1.575zm5.132-.757c-.954 0-1.728-.743-1.728-1.66v-9.704h3.458v9.704c0 .917-.774 1.66-1.73 1.66z" fill="#FBEFE1"/><path fill-rule="evenodd" clip-rule="evenodd" d="M486.421 230.896h-1.115c-.648 0-1.172-.507-1.172-1.133v-5.685h3.458v5.685c0 .626-.523 1.133-1.171 1.133z" fill="#FBEFE1"/><path fill-rule="evenodd" clip-rule="evenodd" d="M487.592 225.069v-3.243l-1.385-2.84-9.569-.211-.153.128c-2.288 1.916-3.316 4.594-3.316 7.424l-.274.024 14.697-1.282z" fill="#FBEFE1"/><path fill-rule="evenodd" clip-rule="evenodd" d="M512.664 205.896H287.023v9.311h10.63l-8.33 86.902h4.027l21.695-86.902h9.292l-7.371 77.591h3.504l19.145-77.591H424.6l21.693 86.902h4.029l-8.329-86.902h41.818l19.145 77.591h3.504l-7.371-77.591h13.575v-9.311z" fill="#fff"/><path fill-rule="evenodd" clip-rule="evenodd" d="M100.606 282.3H74.735v-43.358H107.2L87.744 221.28v-61.167l-13.901-7.006c-8.434-4.34-19.039-4.363-27.496-.06-9.534 4.851-14.806 14.36-13.213 23.89l7.72 62.005h24.42V282.3h-25.9c-3.543 0-6.415 2.428-6.415 5.521s2.872 5.777 6.416 5.777c3.42 0 6.206-3.039 6.397-5.104h17.82c.19 2.065 2.978 5.281 6.398 5.281 3.42 0 6.208-3.216 6.397-5.281h17.822c.189 2.065 2.976 5.064 6.397 5.064 3.543 0 6.416-2.536 6.416-5.629 0-3.093-2.873-5.629-6.416-5.629zm12.035 3.9l-3.71 6.818h23.342c-.715-2.548-3.464-4.191-6.349-3.794l-2.798.385c-1.951 0-3.274-1.787-2.524-3.409h-7.961z" fill="#000"/><path fill-rule="evenodd" clip-rule="evenodd" d="M134.254 286.2l-3.711 6.818h23.343c-.716-2.548-3.465-4.191-6.35-3.794l-2.797.385c-1.951 0-3.274-1.787-2.524-3.409h-7.961z" fill="#000"/><path fill-rule="evenodd" clip-rule="evenodd" d="M131.311 287.715l-13.169-49.426-25.392-11.175H77.34l-12.5-16.672 31.4 3.03 33.195 11.143c3.469 1.165 5.975 3.831 6.593 7.018l10.077 56.082h-14.794z" fill="#1E389D"/><path fill-rule="evenodd" clip-rule="evenodd" d="M85.98 213.702l26.516 12.1c3.153 1.44 5.256 4.16 5.592 7.237l5.539 54.676h-13.832l-12.133-53.783-33.81-6.817c-9.004 0-16.303-6.334-16.303-14.147v-2.526l38.432 3.26z" fill="#212293"/><path fill-rule="evenodd" clip-rule="evenodd" d="M87.41 153.872H61.015c-6.883 0-13.232 3.188-16.626 8.347l-19.625 25.452c-2.892 3.75-1.2 8.84 3.557 10.702l27.326 10.691 5.23-10.333-17.996-6.789c-1.79-.677-2.385-2.615-1.213-3.967l6.461-7.449v32.189h47.27l-3.996-41.035 18.956 15.197c4.131 3.633 11.175 2.721 13.885-1.798l16.675-27.797-8.319-4.416-14.732 20.619-16.857-14.714c-3.59-3.135-8.488-4.899-13.6-4.899z" fill="#FA7564"/><path fill-rule="evenodd" clip-rule="evenodd" d="M93.133 125.52c.1-5.477-5.3-11.892-13.117-13.777-7.538-1.818-15.51 1.022-19.622 6.991l-.678.985c-2.68 3.889-3.37 8.628-1.899 13.007l5.16 13.715.358 8.132 8.872 2.838 6.007-2.838-.34-8.76 6.846-.018c4.794-.061 8.647-3.583 8.647-7.9v-.068l.002-5.815-.236-6.492z" fill="#FBEFE1"/><path fill-rule="evenodd" clip-rule="evenodd" d="M96.827 110.223s-13.692-5.57-27.292-2.794a21.082 21.082 0 00-6.65 2.721l-2.803-2.799v4.912c-5.195 4.747-7.17 11.926-4.287 18.622 1.417 3.291 4.287 8.815 6.639 12.89v-12.147l6.897-1.163.144-8.563s12.968.615 21.046-4.338l2.661 4.792s-1.793-9.132 3.645-12.133z" fill="#000"/><path fill-rule="evenodd" clip-rule="evenodd" d="M65.704 194.533c0-.837-.848-1.516-1.894-1.516h-8.304l-2.77 3.031H63.81c1.046 0 1.894-.679 1.894-1.515zm.865 3.835c0-.805-.787-1.459-1.764-1.467l-12.069-.096v2.935l12.036.096c.988.007 1.797-.651 1.797-1.468zm-.865 3.74c0-.836-.848-1.515-1.894-1.515H52.736v3.031H63.81c1.046 0 1.894-.679 1.894-1.516z" fill="#FBEFE1"/><path fill-rule="evenodd" clip-rule="evenodd" d="M73.485 207.9v-.977c0-.568-.579-1.027-1.293-1.027h-6.488v3.031h6.488c.714 0 1.293-.459 1.293-1.027z" fill="#FF63BE"/><path fill-rule="evenodd" clip-rule="evenodd" d="M54.73 205.896h-3.7l-3.24-1.214-.24-8.385.146-.134c2.186-2.005 5.24-2.905 8.472-2.905l.026-.241-1.463 12.879z" fill="#FBEFE1"/><path fill-rule="evenodd" clip-rule="evenodd" d="M227.37 205.896H1.73v9.311h13.575l-7.372 77.591h3.504l19.144-77.591H72.4l-8.33 86.902h4.03l21.693-86.902h84.987l19.144 77.591h3.503l-7.371-77.591h9.292l21.694 86.902h4.028l-8.33-86.902h10.63v-9.311zm-109.3-11.363h90.185c3.116 0 5.798-1.917 6.415-4.583l10.84-46.908c.817-3.538-2.28-6.843-6.415-6.843H128.91c-3.115 0-5.799 1.917-6.415 4.583l-10.839 46.908c-.818 3.538 2.279 6.843 6.414 6.843z" fill="#fff"/><path fill-rule="evenodd" clip-rule="evenodd" d="M184 170.29h-27.51l11.257 25.712c1.203 2.746-1.083 5.705-4.406 5.705h-17.236v4.189h39.167c7.163 0 12.051-6.427 9.363-12.313L184 170.29z" fill="#B3D2EC"/><path fill-rule="evenodd" clip-rule="evenodd" d="M414.242 32.41h-28.798c-18.547 0-33.582 12.813-33.582 28.91v-.084c0 16.098 15.035 29.063 33.582 29.063h28.798c.631 0 1.257-.053 1.88-.083l8.405 6.589v-7.974c13.514-3.771 23.297-14.767 23.297-27.75v.239c0-16.097-15.036-28.91-33.582-28.91z" fill="#FFCA00"/><path fill-rule="evenodd" clip-rule="evenodd" d="M395.459 194.533h-90.186c-3.114 0-5.798-1.917-6.414-4.583l-10.841-46.908c-.816-3.538 2.281-6.843 6.414-6.843h90.188c3.113 0 5.797 1.917 6.413 4.583l10.84 46.908c.818 3.538-2.28 6.843-6.414 6.843z" fill="#fff"/><path fill-rule="evenodd" clip-rule="evenodd" d="M330.263 170.29h27.197l-11.129 25.712c-1.189 2.746 1.071 5.705 4.356 5.705h15.872v4.189h-37.553c-7.082 0-11.913-6.427-9.257-12.313l10.514-23.293z" fill="#B3D2EC"/></svg>