<svg width="18" height="15" fill="none" xmlns="http://www.w3.org/2000/svg"><path d="M4.5 14.48c-1.253 0-2.2-.453-2.84-1.36-.613-.933-.92-2.227-.92-3.88 0-1.893.467-3.56 1.4-5C3.074 2.8 4.5 1.613 6.42.68L7.7 3.24c-1.2.613-2.106 1.32-2.72 2.12-.586.773-.88 1.76-.88 2.96.08-.027.214-.04.4-.04.854 0 1.574.267 2.16.8.614.507.92 1.213.92 2.12 0 1.013-.293 1.813-.88 2.4-.586.587-1.32.88-2.2.88zm9.44 0c-1.253 0-2.2-.453-2.84-1.36-.613-.933-.92-2.227-.92-3.88 0-1.893.467-3.56 1.4-5 .934-1.44 2.36-2.627 4.28-3.56l1.28 2.56c-1.2.613-2.106 1.32-2.72 2.12-.586.773-.88 1.76-.88 2.96.08-.027.214-.04.4-.04.854 0 1.574.267 2.16.8.614.507.92 1.213.92 2.12 0 1.013-.293 1.813-.88 2.4-.586.587-1.32.88-2.2.88z" fill="#fff"/></svg>